<svg aria-hidden="true" focusable="false" data-prefix="fad" data-icon="align-justify" role="img" xmlns="http://www.w3.org/2000/svg" viewBox="0 0 448 512" class="svg-inline--fa fa-align-justify fa-w-14 fa-2x" name="hung2x"><g class="fa-group" stroke="none" fill="#000000" stroke-width="1px"><path fill="#adb5bd" d="M432 416H16a16 16 0 0 0-16 16v32a16 16 0 0 0 16 16h416a16 16 0 0 0 16-16v-32a16 16 0 0 0-16-16zm0-256H16a16 16 0 0 0-16 16v32a16 16 0 0 0 16 16h416a16 16 0 0 0 16-16v-32a16 16 0 0 0-16-16z" class="fa-secondary" stroke="none" stroke-width="1px"></path><path fill="#adb5bd" d="M432 288H16a16 16 0 0 0-16 16v32a16 16 0 0 0 16 16h416a16 16 0 0 0 16-16v-32a16 16 0 0 0-16-16zm0-256H16A16 16 0 0 0 0 48v32a16 16 0 0 0 16 16h416a16 16 0 0 0 16-16V48a16 16 0 0 0-16-16z" class="fa-primary" stroke="none" stroke-width="1px"></path></g></svg>