<svg xmlns="http://www.w3.org/2000/svg" xmlns:xlink="http://www.w3.org/1999/xlink" id="workspace" style="text-rendering: geometricprecision; cursor: auto;"><defs xmlns="http://www.w3.org/2000/svg"><linearGradient x1="0" y1="0.5" x2="1" y2="0.5" id="linearGradientSk0yrgsen204"><stop offset="0%" stop-color="#ffffff"/><stop offset="100%" stop-color="#ffffff"/></linearGradient><linearGradient x1="0" y1="0.5" x2="1" y2="0.5" id="linearGradientSk0yrgsen207"><stop offset="0%" stop-color="#f29898"/><stop offset="100%" stop-color="#f29898"/></linearGradient><linearGradient x1="0" y1="0.5" x2="1" y2="0.5" id="linearGradientSk0yrgsen20g"><stop offset="0%" stop-color="#ffffff"/><stop offset="100%" stop-color="#ffffff"/></linearGradient><linearGradient x1="0" y1="0.5" x2="1" y2="0.5" id="linearGradientSk0yrgsen20j"><stop offset="0%" stop-color="#f29898"/><stop offset="100%" stop-color="#f29898"/></linearGradient><linearGradient x1="0" y1="0.5" x2="1" y2="0.5" id="linearGradientSk0yrgsen20s"><stop offset="0%" stop-color="#ffffff"/><stop offset="100%" stop-color="#ffffff"/></linearGradient><linearGradient x1="0" y1="0.5" x2="1" y2="0.5" id="linearGradientSk0yrgsen20v"><stop offset="0%" stop-color="#f29898"/><stop offset="100%" stop-color="#f29898"/></linearGradient><linearGradient x1="0" y1="0.5" x2="1" y2="0.5" id="linearGradientSk0yrgsen214"><stop offset="0%" stop-color="#ffffff"/><stop offset="100%" stop-color="#ffffff"/></linearGradient><linearGradient x1="0" y1="0.5" x2="1" y2="0.5" id="linearGradientSk0yrgsen217"><stop offset="0%" stop-color="#f29898"/><stop offset="100%" stop-color="#f29898"/></linearGradient><linearGradient x1="0" y1="0.5" x2="1" y2="0.5" id="linearGradientSk0yrgsen21g"><stop offset="0%" stop-color="#ffffff"/><stop offset="100%" stop-color="#ffffff"/></linearGradient><linearGradient x1="0" y1="0.5" x2="1" y2="0.5" id="linearGradientSk0yrgsen21j"><stop offset="0%" stop-color="#f29898"/><stop offset="100%" stop-color="#f29898"/></linearGradient><linearGradient x1="0" y1="0.5" x2="1" y2="0.5" id="linearGradientSk0yrgsen21s"><stop offset="0%" stop-color="#ffffff"/><stop offset="100%" stop-color="#ffffff"/></linearGradient><linearGradient x1="0" y1="0.5" x2="1" y2="0.5" id="linearGradientSk0yrgsen21v"><stop offset="0%" stop-color="#f29898"/><stop offset="100%" stop-color="#f29898"/></linearGradient><linearGradient x1="0" y1="0.5" x2="1" y2="0.5" id="linearGradientSk0yrgsen21y"><stop offset="0%" stop-color="#ffffff"/><stop offset="100%" stop-color="#ffffff"/></linearGradient><linearGradient x1="0" y1="0.5" x2="1" y2="0.5" id="linearGradientSk0yrgsen221"><stop offset="0%" stop-color="#f29898"/><stop offset="100%" stop-color="#f29898"/></linearGradient></defs><g class="background-part" stroke="none" fill="#000000" stroke-width="1px"><rect x="0" y="0" width="1108" height="624" fill="rgba(255, 255, 255, 0.25)" style="" stroke="none" stroke-width="1px"/></g><g class="selector-part" stroke="none" fill="#000000" stroke-width="1px"><rect x="0" y="0" width="750" height="215" fill="rgba(255, 255, 255, 0)" style="transition: all 0.6s ease 0s;" stroke="none" stroke-width="1px"/></g><g class="selector-part" transform="matrix(1,0,0,1,12,12)" stroke="none" fill="#000000" stroke-width="1px"><rect x="0" y="0" width="0" height="0" fill="rgba(255, 255, 255, 0)" style="cursor: move;" stroke="none" stroke-width="1px"/></g><g transform="matrix(0.4342,0,0,0.4342,12.3348,17.552)" style="cursor: move; opacity: 1;" class="svg-clip svg-visible" stroke="none" fill="#000000" stroke-width="1px"><rect x="0" y="0" width="109" height="108" fill="none" style="" class="svg-hitbox" stroke="none" stroke-width="1px"/><svg width="109.00006141828241" height="108.53834554845157" viewBox="-4.500043515033521,-4.26,109.00006141828241,108.53834554845157" stroke="none" fill="#000000" stroke-width="1px"><desc stroke="none" fill="#000000" stroke-width="1px">Created with Snap</desc><defs/><g stroke="none" fill="#000000" stroke-width="1px"/><g stroke="none" fill="#000000" stroke-width="1px"/><g stroke="none" fill="#000000" stroke-width="1px"><path d="M88.09.74H42.29a11.42,11.42,0,0,0-11.41,11.4V31.86H11.06A10.57,10.57,0,0,0,.5,42.42V75A10.57,10.57,0,0,0,11.06,85.6h4.66V96.76A2.5,2.5,0,0,0,20,98.53l13-12.93H51.59A10.57,10.57,0,0,0,62.15,75V59.59H64L78.42,73.95a2.5,2.5,0,0,0,4.27-1.77V59.59h5.41A11.42,11.42,0,0,0,99.5,48.18v-36A11.42,11.42,0,0,0,88.09.74ZM57.15,75a5.57,5.57,0,0,1-5.56,5.56H31.91a2.5,2.5,0,0,0-1.77.73l-9.42,9.4V83.1a2.5,2.5,0,0,0-2.5-2.5H11.06A5.57,5.57,0,0,1,5.5,75V42.42a5.57,5.57,0,0,1,5.56-5.56H30.89V48.18A11.42,11.42,0,0,0,42.29,59.59H57.15ZM94.5,48.18a6.41,6.41,0,0,1-6.41,6.41H80.18a2.5,2.5,0,0,0-2.5,2.5v9.06L66.83,55.32a2.5,2.5,0,0,0-1.77-.73H42.29a6.41,6.41,0,0,1-6.41-6.41v-36a6.41,6.41,0,0,1,6.41-6.4h45.8a6.41,6.41,0,0,1,6.41,6.4Z" stroke="none" fill="url('#linearGradientSk0yrgsen21s')" style="" stroke-width="1px"/></g></svg></g><g transform="matrix(0.1419,0,0,0.1419,35.9775,27.7578)" style="cursor: move; opacity: 1;" class="svg-clip svg-visible" stroke="none" fill="#000000" stroke-width="1px"><rect x="0" y="0" width="99" height="88" fill="none" style="" class="svg-hitbox" stroke="none" stroke-width="1px"/><svg width="99.99950951353819" height="88.03920118088783" viewBox="-4.999910643668814,-5.000201180887821,99.99950951353819,88.03920118088783" stroke="none" fill="#000000" stroke-width="1px"><desc stroke="none" fill="#000000" stroke-width="1px">Created with Snap</desc><defs/><g stroke="none" fill="#000000" stroke-width="1px"/><g stroke="none" fill="#000000" stroke-width="1px"/><g stroke="none" fill="#000000" stroke-width="1px"><path d="M45.002,13.514C32.973-12.474-8.937,1.357,1.718,35.105C7.436,51.887,19.058,59.327,45,78.039    c25.945-18.712,37.563-26.154,43.283-42.934C98.933,1.357,57.028-12.474,45.002,13.514z" stroke="none" fill="url('#linearGradientSk0yrgsen21v')" style="" stroke-width="1px"/></g></svg></g><g transform="matrix(0.2109,0,0,0.2109,107,27)" style="pointer-events: fill; cursor: move; opacity: 1;" class="svg-text svg-visible" stroke="none" fill="#000000" stroke-width="1px"><path fill="none" style="" d="M-213.90000000000003,80 C-20,79 20,79 213.90000000000003,80" stroke="none" stroke-width="1px"/><path d="M-187.90000000000003 0L-187.90000000000003 0L-203.40000000000003 0Q-205.30000000000004 0 -206.15000000000003-0.85Q-207.00000000000003-1.7 -207.00000000000003-3.6L-207.00000000000003-3.6L-207.00000000000003-68.4Q-207.00000000000003-70.3 -206.15000000000003-71.15Q-205.30000000000004-72 -203.40000000000003-72L-203.40000000000003-72L-187.90000000000003-72Q-186.00000000000003-72 -185.15000000000003-71.15Q-184.30000000000004-70.3 -184.30000000000004-68.4L-184.30000000000004-68.4L-184.30000000000004-46.7L-167.60000000000002-46.7L-167.60000000000002-68.4Q-167.60000000000002-70.3 -166.75000000000003-71.15Q-165.90000000000003-72 -164.00000000000003-72L-164.00000000000003-72L-148.50000000000003-72Q-146.60000000000002-72 -145.75000000000003-71.15Q-144.90000000000003-70.3 -144.90000000000003-68.4L-144.90000000000003-68.4L-144.90000000000003-3.6Q-144.90000000000003-1.7 -145.75000000000003-0.85Q-146.60000000000002 0 -148.50000000000003 0L-148.50000000000003 0L-164.00000000000003 0Q-165.90000000000003 0 -166.75000000000003-0.85Q-167.60000000000002-1.7 -167.60000000000002-3.6L-167.60000000000002-3.6L-167.60000000000002-25.8L-184.30000000000004-25.8L-184.30000000000004-3.6Q-184.30000000000004-1.7 -185.15000000000003-0.85Q-186.00000000000003 0 -187.90000000000003 0ZM-69.80000000000003-68.4L-69.80000000000003-18.9Q-69.80000000000003-14.3 -71.15000000000003-10.55Q-72.50000000000003-6.8 -75.95000000000003-4.15Q-79.40000000000003-1.5 -85.40000000000003 0Q-91.40000000000003 1.5 -100.70000000000003 1.5L-100.70000000000003 1.5Q-110.00000000000003 1.5 -116.00000000000003 0Q-122.00000000000003-1.5 -125.45000000000003-4.15Q-128.90000000000003-6.8 -130.25000000000003-10.55Q-131.60000000000002-14.3 -131.60000000000002-18.9L-131.60000000000002-18.9L-131.60000000000002-68.4Q-131.60000000000002-70.3 -130.75000000000003-71.15Q-129.90000000000003-72 -128.00000000000003-72L-128.00000000000003-72L-112.30000000000003-72Q-110.40000000000003-72 -109.55000000000003-71.15Q-108.70000000000003-70.3 -108.70000000000003-68.4L-108.70000000000003-68.4L-108.70000000000003-22.8Q-108.70000000000003-20.8 -107.20000000000003-19.45Q-105.70000000000003-18.1 -100.50000000000003-18.1L-100.50000000000003-18.1Q-95.20000000000003-18.1 -93.70000000000003-19.45Q-92.20000000000003-20.8 -92.20000000000003-22.8L-92.20000000000003-22.8L-92.20000000000003-68.4Q-92.20000000000003-70.3 -91.35000000000002-71.15Q-90.50000000000003-72 -88.60000000000002-72L-88.60000000000002-72L-73.40000000000003-72Q-71.50000000000003-72 -70.65000000000003-71.15Q-69.80000000000003-70.3 -69.80000000000003-68.4L-69.80000000000003-68.4ZM-37.900000000000034 0L-37.900000000000034 0L-52.900000000000034 0Q-54.80000000000003 0 -55.650000000000034-0.85Q-56.500000000000036-1.7 -56.500000000000036-3.6L-56.500000000000036-3.6L-56.500000000000036-68.4Q-56.500000000000036-70.3 -55.650000000000034-71.15Q-54.80000000000003-72 -52.900000000000034-72L-52.900000000000034-72L-42.500000000000036-72Q-40.60000000000004-72 -39.250000000000036-71.4Q-37.900000000000034-70.8 -36.60000000000004-69.3L-36.60000000000004-69.3L-17.20000000000003-47.1L-17.20000000000003-68.4Q-17.20000000000003-70.3 -16.350000000000037-71.15Q-15.500000000000036-72 -13.600000000000037-72L-13.600000000000037-72L 1.399999999999963-72Q 3.2999999999999687-72  4.149999999999963-71.15Q 4.999999999999972-70.3  4.999999999999972-68.4L 4.999999999999972-68.4L 4.999999999999972-3.6Q 4.999999999999972-1.7  4.149999999999963-0.85Q 3.2999999999999687 0  1.399999999999963 0L 1.399999999999963 0L-13.600000000000037 0Q-15.500000000000036 0 -16.350000000000037-0.85Q-17.20000000000003-1.7 -17.20000000000003-3.6L-17.20000000000003-3.6L-17.20000000000003-15.9L-34.30000000000003-36.6L-34.30000000000003-3.6Q-34.30000000000003-1.7 -35.150000000000034-0.85Q-36.000000000000036 0 -37.900000000000034 0ZM 73.79999999999995 0L 73.79999999999995 0L 42.29999999999995 0Q 29.799999999999947 0  23.74999999999995-5Q 17.69999999999995-10  17.69999999999995-20.4L 17.69999999999995-20.4L 17.69999999999995-51.6Q 17.69999999999995-62  23.74999999999995-67Q 29.799999999999947-72  42.29999999999995-72L 42.29999999999995-72L 67.29999999999995-72Q 69.19999999999995-72  70.04999999999995-71.15Q 70.89999999999995-70.3  70.89999999999995-68.4L 70.89999999999995-68.4L 70.89999999999995-56.3Q 70.89999999999995-54.4  70.04999999999995-53.55Q 69.19999999999995-52.7  67.29999999999995-52.7L 67.29999999999995-52.7L 46.49999999999995-52.7Q 43.39999999999995-52.7  41.89999999999995-51.45Q 40.39999999999995-50.2  40.39999999999995-47.7L 40.39999999999995-47.7L 40.39999999999995-23.8Q 40.39999999999995-21.3  41.54999999999995-20.1Q 42.699999999999946-18.9  44.99999999999995-18.9L 44.99999999999995-18.9L 54.699999999999946-18.9L 54.699999999999946-34.5Q 54.699999999999946-36.4  55.54999999999995-37.25Q 56.39999999999995-38.1  58.29999999999995-38.1L 58.29999999999995-38.1L 73.79999999999995-38.1Q 75.69999999999995-38.1  76.54999999999995-37.25Q 77.39999999999995-36.4  77.39999999999995-34.5L 77.39999999999995-34.5L 77.39999999999995-3.6Q 77.39999999999995-1.7  76.54999999999995-0.85Q 75.69999999999995 0  73.79999999999995 0ZM 123.59999999999994 0L 123.59999999999994 0L 107.39999999999993 0Q 105.49999999999993 0  104.64999999999993-0.85Q 103.79999999999993-1.7  103.79999999999993-3.6L 103.79999999999993-3.6L 103.79999999999993-52.7L 89.09999999999994-52.7Q 87.19999999999993-52.7  86.34999999999994-53.55Q 85.49999999999993-54.4  85.49999999999993-56.3L 85.49999999999993-56.3L 85.49999999999993-68.4Q 85.49999999999993-70.3  86.34999999999994-71.15Q 87.19999999999993-72  89.09999999999994-72L 89.09999999999994-72L 141.89999999999992-72Q 143.79999999999993-72  144.64999999999992-71.15Q 145.49999999999994-70.3  145.49999999999994-68.4L 145.49999999999994-68.4L 145.49999999999994-56.3Q 145.49999999999994-54.4  144.64999999999992-53.55Q 143.79999999999993-52.7  141.89999999999992-52.7L 141.89999999999992-52.7L 127.19999999999993-52.7L 127.19999999999993-3.6Q 127.19999999999993-1.7  126.34999999999994-0.85Q 125.49999999999993 0  123.59999999999994 0ZM 189.19999999999996 0L 189.19999999999996 0L 172.99999999999994 0Q 171.09999999999997 0  170.24999999999994-0.85Q 169.39999999999995-1.7  169.39999999999995-3.6L 169.39999999999995-3.6L 169.39999999999995-52.7L 154.69999999999996-52.7Q 152.79999999999995-52.7  151.94999999999996-53.55Q 151.09999999999997-54.4  151.09999999999997-56.3L 151.09999999999997-56.3L 151.09999999999997-68.4Q 151.09999999999997-70.3  151.94999999999996-71.15Q 152.79999999999995-72  154.69999999999996-72L 154.69999999999996-72L 207.49999999999994-72Q 209.39999999999995-72  210.24999999999994-71.15Q 211.09999999999997-70.3  211.09999999999997-68.4L 211.09999999999997-68.4L 211.09999999999997-56.3Q 211.09999999999997-54.4  210.24999999999994-53.55Q 209.39999999999995-52.7  207.49999999999994-52.7L 207.49999999999994-52.7L 192.79999999999995-52.7L 192.79999999999995-3.6Q 192.79999999999995-1.7  191.94999999999996-0.85Q 191.09999999999997 0  189.19999999999996 0Z" data-textpath="HUNGTT" data-text-anchor="middle" data-font-size="100" data-letterspacing="0" data-side="left" data-offset="0" data-dx="0" data-dy="75" data-href="" data-font="Bungee" data-font-src="/Content/clientfonts/bungee.woff" data-font-scale="contain" transform="translate(0,75)" data-xmlspace="preserve" fill="url('#linearGradientSk0yrgsen21y')" stroke="none" stroke-width="1px"/><rect x="0" y="0" width="0" height="0" stroke="none" fill="#000000" stroke-width="1px"/></g><g transform="matrix(0.2109,0,0,0.2109,84,37)" style="pointer-events: fill; cursor: move; opacity: 1;" class="svg-text svg-visible" stroke="none" fill="#000000" stroke-width="1px"><path fill="none" style="" d="M-103.02734375,121.69921875 C-20,120.69921875 20,120.69921875 103.02734375,121.69921875" stroke="none" stroke-width="1px"/><path d="M-42.91734375-54.59L-42.91734375-54.59L-42.91734375-54.35Q-42.91734375-53.86 -43.30734375-53.54Q-43.69734375-53.22 -44.28734375-53.05Q-44.87734375-52.88 -45.52734375-52.83Q-46.18734375-52.78 -46.67734375-52.78L-46.67734375-52.78Q-46.87734375-52.78 -47.14734375-52.81Q-47.40734375-52.83 -47.65734375-52.83L-47.65734375-52.83Q-48.23734375-52.83 -48.65734375-51.9Q-49.06734375-50.98 -49.33734375-49.46Q-49.60734375-47.95 -49.82734375-46.02Q-50.04734375-44.09 -50.24734375-42.04Q-50.43734375-39.99 -50.68734375-38.04Q-50.92734375-36.08 -51.26734375-34.52L-51.26734375-34.52Q-51.46734375-34.18 -51.65734375-34.18L-51.65734375-34.18L-51.65734375-33.98Q-51.65734375-33.54 -51.46734375-33.13Q-51.26734375-32.71 -51.26734375-32.32L-51.26734375-32.32L-51.46734375-31.93Q-51.65734375-31.54 -51.65734375-31.35L-51.65734375-31.35L-51.65734375-30.71Q-51.65734375-30.03 -51.97734375-29.44Q-52.29734375-28.86 -52.39734375-28.32L-52.39734375-28.32Q-52.53734375-27.05 -52.68734375-26.27Q-52.82734375-25.49 -52.82734375-24.76L-52.82734375-24.76Q-52.82734375-24.37 -52.60734375-24.17Q-52.39734375-23.97 -52.39734375-23.58L-52.39734375-23.58Q-52.43734375-23.1 -52.73734375-22.71Q-53.02734375-22.31 -53.12734375-21.78L-53.12734375-21.78Q-53.22734375-21.24 -53.26734375-20.63Q-53.31734375-20.02 -53.31734375-19.38L-53.31734375-19.38Q-53.31734375-18.99 -53.29734375-18.58Q-53.26734375-18.16 -53.26734375-17.77L-53.26734375-17.77Q-53.26734375-17.09 -53.31734375-16.46Q-53.36734375-15.82 -53.46734375-15.19L-53.46734375-15.19Q-53.56734375-14.65 -53.90734375-14.01Q-54.24734375-13.38 -54.24734375-12.7L-54.24734375-12.7Q-54.24734375-12.4 -54.19734375-12.06Q-54.14734375-11.72 -54.14734375-11.23L-54.14734375-11.23Q-54.14734375-10.4 -54.48734375-9.77Q-54.83734375-9.13 -54.92734375-8.3L-54.92734375-8.3Q-55.02734375-7.76 -55.10734375-6.98Q-55.17734375-6.2 -55.22734375-5.42L-55.22734375-5.42Q-55.31734375-4.54 -55.31734375-3.56L-55.31734375-3.56Q-55.02734375-3.13 -54.09734375-3.13L-54.09734375-3.13Q-53.26734375-3.13 -52.29734375-3.34Q-51.31734375-3.56 -50.58734375-3.56L-50.58734375-3.56Q-49.89734375-3.56 -49.28734375-3.03Q-48.67734375-2.49 -48.67734375-1.95L-48.67734375-1.95Q-48.67734375-1.46 -49.28734375-1.32Q-49.89734375-1.17 -50.85734375-1.12Q-51.80734375-1.07 -52.90734375-1Q-54.00734375-0.93 -54.92734375-0.63L-54.92734375-0.63Q-55.61734375-0.44 -56.02734375-0.1Q-56.44734375 0.24 -56.80734375 0.59Q-57.17734375 0.93 -57.54734375 1.15Q-57.90734375 1.37 -58.44734375 1.37L-58.44734375 1.37L-59.03734375 1.37Q-59.47734375 1.37 -59.71734375 1.61Q-59.95734375 1.86 -60.15734375 1.86L-60.15734375 1.86Q-60.39734375 1.86 -60.61734375 1.64Q-60.83734375 1.42 -61.10734375 1.17Q-61.37734375 0.93 -61.76734375 0.71Q-62.15734375 0.49 -62.69734375 0.49L-62.69734375 0.49Q-63.18734375 0.49 -64.23734375000001 0.85Q-65.28734374999999 1.22 -66.20734375 1.22L-66.20734375 1.22Q-66.79734375000001 1.22 -67.25734374999999 0.93Q-67.72734375 0.63 -67.72734375-0.15L-67.72734375-0.15Q-67.72734375-1.07 -65.86734375-1.71L-65.86734375-1.71Q-65.57734375-1.81 -65.08734375-1.83Q-64.59734375-1.86 -64.08734375-1.86Q-63.57734375-1.86 -63.15734375-1.88Q-62.74734375-1.9 -62.59734375-2.05L-62.59734375-2.05Q-62.64734375-2 -62.37734375-2.88Q-62.10734375-3.76 -61.74734375-4.91Q-61.37734375-6.05 -61.05734375-7.06Q-60.73734375-8.06 -60.73734375-8.2L-60.73734375-8.2Q-60.73734375-8.59 -60.78734375-9.01Q-60.83734375-9.42 -60.83734375-9.91L-60.83734375-9.91Q-60.83734375-10.69 -60.49734375-11.62Q-60.15734375-12.55 -60.00734375-13.38L-60.00734375-13.38Q-59.95734375-13.77 -59.88734375-14.77Q-59.81734375-15.77 -59.76734375-16.92Q-59.71734375-18.07 -59.66734375-19.21Q-59.61734375-20.36 -59.61734375-21.04L-59.61734375-21.04Q-59.61734375-21.63 -59.73734375-21.78Q-59.86734375-21.92 -60.54734375-21.92L-60.54734375-21.92Q-61.56734375-21.92 -63.54734375-21.88Q-65.52734375-21.83 -67.67734375-21.73Q-69.82734375-21.63 -71.84734375-21.53Q-73.87734375-21.44 -74.99734375-21.39L-74.99734375-21.39Q-75.53734375-21.34 -75.82734375-21.22Q-76.12734375-21.09 -76.48734375000001-20.97Q-76.85734375-20.85 -77.41734375-20.75Q-77.97734375-20.65 -79.05734375-20.65L-79.05734375-20.65Q-79.73734375000001-20.65 -80.49734375-20.73Q-81.24734375-20.8 -81.83734375-20.8L-81.83734375-20.8Q-82.66734375-20.8 -83.12734375-20.26Q-83.59734375-19.73 -83.85734375-18.9Q-84.12734375-18.07 -84.25734375-17.09Q-84.37734375-16.11 -84.47734375-15.19L-84.47734375-15.19Q-84.66734375-13.48 -84.81734374999999-12.3Q-84.95734375-11.13 -85.03734375-10.06Q-85.10734375-8.98 -85.15734375-7.79Q-85.20734375-6.59 -85.20734375-4.83L-85.20734375-4.83Q-85.20734375-4.1 -85.12734375-3.69Q-85.05734375-3.27 -84.76734375-3.08Q-84.47734375-2.88 -83.85734375-2.86Q-83.24734375-2.83 -82.12734375-2.83L-82.12734375-2.83Q-81.88734375-2.83 -81.58734375-2.86Q-81.29734375-2.88 -80.95734375-2.88L-80.95734375-2.88Q-80.61734375-2.88 -80.17734375-2.76Q-79.73734375000001-2.64 -79.73734375000001-2.2L-79.73734375000001-2.2Q-79.73734375000001-1.37 -80.63734375-1.03Q-81.54734375-0.68 -82.78734375-0.56Q-84.03734375-0.44 -85.32734375-0.44Q-86.61734375-0.44 -87.35734375-0.29L-87.35734375-0.29Q-88.03734375-0.15 -88.74734375 0.34Q-89.45734375 0.83 -90.13734375 0.83L-90.13734375 0.83Q-90.62734375 0.83 -90.79734375 0.66Q-90.96734375 0.49 -91.20734375 0.49L-91.20734375 0.49Q-91.69734375 0.49 -92.25734375 0.85Q-92.81734374999999 1.22 -93.69734375 1.22L-93.69734375 1.22Q-94.08734375 1.22 -94.33734375 1.03Q-94.57734375 0.83 -95.01734375 0.83L-95.01734375 0.83Q-95.55734375 0.88 -96.21734375 1.17Q-96.87734375 1.46 -97.50734375 1.46L-97.50734375 1.46Q-98.04734375 1.46 -98.28734375 1.17Q-98.53734375 0.88 -98.67734375 0.44L-98.67734375 0.44L-98.67734375 0.49Q-98.77734375 0.2 -98.77734375 0L-98.77734375 0Q-98.77734375-0.44 -98.43734375-0.76Q-98.09734375-1.07 -97.60734375-1.27Q-97.11734375-1.46 -96.53734375-1.56Q-95.94734375-1.66 -95.40734375-1.71L-95.40734375-1.71Q-94.52734375-1.76 -94.01734375-1.78Q-93.50734375-1.81 -93.21734375-2.03Q-92.91734375-2.25 -92.77734375-2.76Q-92.62734375-3.27 -92.47734375-4.25L-92.47734375-4.25Q-92.42734375-4.54 -92.35734375-4.76Q-92.28734375-4.98 -92.20734375-5.22Q-92.13734375-5.47 -92.06734374999999-5.83Q-91.98734375000001-6.2 -91.98734375000001-6.88L-91.98734375000001-6.88Q-91.98734375000001-6.93 -92.08734375-7.23Q-92.18734375-7.52 -92.18734375-8.01L-92.18734375-8.01Q-92.18734375-8.79 -91.86734375-9.47Q-91.55734375-10.16 -91.40734375-10.84L-91.40734375-10.84Q-91.15734375-11.96 -91.18734375-13.11Q-91.20734375-14.26 -91.06734374999999-15.58L-91.06734374999999-15.58Q-90.96734375-15.97 -90.81734374999999-16.14Q-90.67734375-16.31 -90.67734375-16.41L-90.67734375-16.41Q-90.67734375-16.94 -90.86734375-17.16Q-91.06734374999999-17.38 -91.06734374999999-17.77L-91.06734374999999-17.77Q-90.96734375-18.31 -90.62734375-18.82Q-90.28734375-19.34 -90.28734375-19.97L-90.28734375-19.97Q-90.28734375-20.41 -90.47734375-20.83Q-90.67734375-21.24 -90.67734375-21.73L-90.67734375-21.73Q-90.47734375-21.73 -90.25734375-22.88Q-90.03734375-24.02 -89.81734374999999-25.44Q-89.59734375-26.86 -89.42734375-28.08Q-89.25734375-29.3 -89.20734375-29.39L-89.20734375-29.39Q-89.15734375-29.54 -88.98734375000001-29.61Q-88.81734374999999-29.69 -88.64734375-29.76Q-88.47734375-29.83 -88.35734375-30Q-88.23734375000001-30.18 -88.23734375000001-30.57L-88.23734375000001-30.57Q-88.23734375000001-31.2 -88.54734375-31.96Q-88.86734375-32.71 -88.86734375-33.84L-88.86734375-33.84Q-88.86734375-34.67 -88.74734375-35.77Q-88.62734375-36.87 -88.47734375-37.79L-88.47734375-37.79Q-88.37734375-38.53 -88.10734375-39.09Q-87.83734375-39.65 -87.74734375-40.33L-87.74734375-40.33Q-87.49734375-42.09 -87.52734375-43.8Q-87.54734375-45.51 -87.35734375-46.92L-87.35734375-46.92Q-87.20734375-48.05 -86.91734375-49Q-86.61734375-49.95 -86.61734375-50.78L-86.61734375-50.78Q-86.61734375-51.27 -86.81734374999999-51.37Q-87.00734375-51.46 -87.30734375-51.46L-87.30734375-51.46Q-87.98734375000001-51.46 -88.71734375-51.03Q-89.45734375-50.59 -90.13734375-50.59L-90.13734375-50.59Q-90.42734375-50.59 -90.84734375-50.71Q-91.25734375-50.83 -91.67734375-51.05Q-92.08734375-51.27 -92.35734375-51.56Q-92.62734375-51.86 -92.62734375-52.25L-92.62734375-52.25Q-92.62734375-52.88 -91.98734375000001-53.13Q-91.35734375-53.37 -90.37734375-53.44Q-89.40734375-53.52 -88.23734375000001-53.56Q-87.05734375-53.61 -85.93734375-53.86L-85.93734375-53.86Q-85.34734375-54 -84.86734375-54.25Q-84.37734375-54.49 -83.85734375-54.74Q-83.34734375-54.98 -82.83734375-55.15Q-82.32734375-55.32 -81.73734375000001-55.32L-81.73734375000001-55.32Q-80.95734375-55.32 -80.22734375-55.15Q-79.48734375000001-54.98 -78.46734375-54.98L-78.46734375-54.98Q-77.63734375-54.98 -76.92734375-55.03Q-76.21734375-55.08 -75.53734375-55.08L-75.53734375-55.08Q-74.80734375-55.08 -74.19734375-54.98Q-73.58734375-54.88 -73.14734375-54.59L-73.14734375-54.59Q-73.48734375000001-54 -73.94734375-53.71Q-74.41734375-53.42 -74.94734375-53.27Q-75.48734375000001-53.13 -76.14734375-53.05Q-76.80734375-52.98 -77.53734375-52.78L-77.53734375-52.78Q-78.41734375-52.78 -78.80734375-52.34Q-79.19734375-51.9 -79.34734375-51.12Q-79.48734375000001-50.34 -79.51734375-49.27Q-79.53734375-48.19 -79.73734375000001-46.92L-79.73734375000001-46.92Q-79.97734375-45.46 -80.34734375-43.73Q-80.71734375-41.99 -81.05734375-40.36Q-81.39734375-38.72 -81.66734375-37.35Q-81.93734375-35.99 -81.93734375-35.3L-81.93734375-35.3Q-81.93734375-34.62 -81.88734375-34.08Q-81.83734375-33.54 -81.83734375-32.91L-81.83734375-32.91Q-81.83734375-32.32 -81.98734375000001-31.93Q-82.12734375-31.54 -82.27734375-31.27Q-82.41734375-31.01 -82.56734374999999-30.79Q-82.71734375-30.57 -82.71734375-30.32L-82.71734375-30.32Q-82.71734375-30.18 -82.66734375-30Q-82.61734375-29.83 -82.61734375-29.69L-82.61734375-29.69Q-82.61734375-29.49 -82.66734375-29.39L-82.66734375-29.39Q-82.66734375-29.35 -82.76734375-28.69Q-82.85734375-28.03 -82.98734375000001-27.29Q-83.10734375-26.56 -83.22734375-25.98Q-83.34734375-25.39 -83.39734375-25.44L-83.39734375-25.44Q-83.10734375-25 -82.54734375-24.83Q-81.98734375000001-24.66 -81.24734375-24.66L-81.24734375-24.66Q-80.31734374999999-24.66 -79.34734375-24.78Q-78.36734375-24.9 -77.46734375-25.07Q-76.56734374999999-25.24 -75.80734375-25.37Q-75.04734375-25.49 -74.60734375-25.49L-74.60734375-25.49Q-74.02734375-25.49 -73.21734375-25.27Q-72.40734375-25.05 -72.06734374999999-25.05L-72.06734374999999-25.05Q-71.53734375-25.29 -70.94734375-25.39Q-70.35734375-25.49 -69.72734375-25.49L-69.72734375-25.49Q-69.33734375-25.49 -68.91734375-25.46Q-68.50734374999999-25.44 -68.11734375-25.44L-68.11734375-25.44Q-66.74734375-25.44 -65.37734375-25.49Q-64.01734375000001-25.54 -62.59734375-25.78L-62.59734375-25.78Q-62.10734375-25.83 -61.52734375-25.98Q-60.93734375-26.12 -60.37734375-26.22Q-59.81734375-26.32 -59.42734375-26.42Q-59.03734375-26.51 -58.93734375-26.51L-58.93734375-26.51Q-58.83734375-26.61 -58.81734375-27.64Q-58.78734375-28.66 -58.59734375-29.79L-58.59734375-29.79Q-58.44734375-30.76 -58.15734375-31.79Q-57.85734375-32.81 -57.85734375-33.35L-57.85734375-33.35Q-57.85734375-34.18 -58.00734375-34.74Q-58.15734375-35.3 -58.15734375-35.99L-58.15734375-35.99Q-58.15734375-36.47 -57.98734375-36.84Q-57.81734375-37.21 -57.61734375-37.55Q-57.41734375-37.89 -57.24734375-38.23Q-57.07734375-38.57 -57.07734375-39.01L-57.07734375-39.01Q-57.07734375-39.4 -57.12734375-39.92Q-57.17734375-40.43 -57.17734375-41.02L-57.17734375-41.02Q-57.17734375-42.14 -56.78734375-43.19Q-56.39734375-44.24 -56.39734375-45.02L-56.39734375-45.02Q-56.39734375-45.61 -56.49734375-45.87Q-56.58734375-46.14 -56.58734375-46.53L-56.58734375-46.53Q-56.58734375-47.02 -56.39734375-47.66L-56.39734375-47.66Q-56.39734375-47.66 -56.22734375-47.92Q-56.05734375-48.19 -55.88734375-48.58Q-55.71734375-48.97 -55.56734375-49.44Q-55.41734375-49.9 -55.41734375-50.34L-55.41734375-50.34Q-55.41734375-50.88 -55.68734375-51.29Q-55.95734375-51.71 -56.24734375-51.71L-56.24734375-51.71Q-56.63734375-51.71 -57.02734375-51.32Q-57.41734375-50.93 -58.10734375-50.93L-58.10734375-50.93Q-58.83734375-50.93 -59.44734375-51.22Q-60.05734375-51.51 -60.05734375-52.1L-60.05734375-52.1Q-60.05734375-53.08 -59.59734375-53.34Q-59.12734375-53.61 -58.44734375-53.61L-58.44734375-53.61Q-58.05734375-53.61 -57.56734375-53.56Q-57.07734375-53.52 -56.58734375-53.52L-56.58734375-53.52Q-56.05734375-53.52 -55.51734375-53.66Q-54.97734375-53.81 -54.53734375-54.2L-54.53734375-54.2Q-54.14734375-55.03 -53.34734375-55.18Q-52.53734375-55.32 -51.99734375-55.32L-51.99734375-55.32Q-51.12734375-55.32 -50.26734375-54.93Q-49.41734375-54.54 -48.38734375-54.54L-48.38734375-54.54Q-47.26734375-54.54 -46.18734375-54.79Q-45.11734375-55.03 -44.23734375-55.03L-44.23734375-55.03Q-43.35734375-55.03 -42.91734375-54.59ZM-4.049062499999998-12.5L-3.6090625000000003-12.5Q-3.759062499999999-11.33 -4.589062499999997-10.52Q-5.419062500000003-9.72 -6.149062499999999-8.79L-6.149062499999999-8.79Q-7.029062500000002-7.81 -7.589062499999997-7.15Q-8.159062499999997-6.49 -8.589062499999997-5.86Q-9.029062500000002-5.22 -9.3990625-4.49Q-9.769062499999997-3.76 -10.209062500000002-2.64L-10.209062500000002-2.64Q-10.299062499999998-2.44 -10.4290625-2.34Q-10.549062499999998-2.25 -10.549062499999998-1.9L-10.549062499999998-1.9Q-10.6490625-0.83 -11.7890625-0.29Q-12.939062499999999 0.24 -14.5790625 0.46Q-16.2090625 0.68 -18.0390625 0.68Q-19.8690625 0.68 -21.2890625 0.68L-21.2890625 0.68Q-22.2690625 0.68 -23.3190625 0.66Q-24.3690625 0.63 -25.3390625 0.63L-25.3390625 0.63Q-26.3190625 0.63 -27.0790625 0.83Q-27.8290625 1.03 -28.4190625 1.03L-28.4190625 1.03Q-29.6890625 1.03 -30.7590625 0.83Q-31.8390625 0.63 -32.809062499999996 0.63L-32.809062499999996 0.63Q-33.8390625 0.68 -34.6390625 0.88Q-35.4490625 1.07 -36.2290625 1.29Q-37.0090625 1.51 -37.769062500000004 1.68Q-38.5290625 1.86 -39.4090625 1.86L-39.4090625 1.86Q-39.7490625 1.86 -39.9890625 1.76Q-40.2390625 1.66 -40.2390625 1.12L-40.2390625 1.12Q-40.2390625 0.54 -39.6190625 0.34Q-39.0090625 0.15 -38.2590625 0Q-37.4990625-0.15 -36.8890625-0.39Q-36.2790625-0.63 -36.2790625-1.27L-36.2790625-1.27L-36.2790625-1.76Q-36.2790625-2 -36.2590625-2.29Q-36.2290625-2.59 -36.0790625-2.98L-36.0790625-2.98Q-36.0390625-3.13 -35.6890625-3.34Q-35.3490625-3.56 -35.3490625-3.86L-35.3490625-3.86Q-35.3490625-3.96 -35.3790625-4.1Q-35.3990625-4.25 -35.3990625-4.35L-35.3990625-4.35Q-35.3990625-4.39 -35.3490625-4.44L-35.3490625-4.44Q-34.8590625-4.88 -34.6890625-6.18Q-34.519062500000004-7.47 -34.4690625-9.08Q-34.4190625-10.69 -34.4190625-12.38Q-34.4190625-14.06 -34.2790625-15.38L-34.2790625-15.38Q-34.1290625-16.46 -33.7390625-17.53Q-33.3490625-18.6 -33.1590625-19.73L-33.1590625-19.73Q-33.1590625-19.92 -33.0790625-20.65Q-33.0090625-21.39 -32.9590625-22.22Q-32.9090625-23.05 -32.8590625-23.85Q-32.809062499999996-24.66 -32.809062499999996-25L-32.809062499999996-25Q-32.809062499999996-25.29 -33.0290625-25.42Q-33.2490625-25.54 -33.4990625-25.54L-33.4990625-25.54Q-34.0290625-25.54 -34.6890625-25.15Q-35.3490625-24.76 -36.0390625-24.27Q-36.7190625-23.78 -37.3990625-23.39Q-38.0890625-23 -38.6190625-23L-38.6190625-23Q-39.0090625-23 -39.059062499999996-23.24Q-39.1090625-23.49 -39.1090625-23.73L-39.1090625-23.73Q-39.1090625-24.32 -38.6690625-24.78Q-38.2290625-25.24 -37.5990625-25.68Q-36.9590625-26.12 -36.2590625-26.54Q-35.5490625-26.95 -35.0090625-27.39L-35.0090625-27.39Q-34.769062500000004-27.64 -34.769062500000004-27.88Q-34.769062500000004-28.13 -34.519062500000004-28.13L-34.519062500000004-28.13Q-34.4190625-28.13 -34.2790625-28.1Q-34.1290625-28.08 -34.0290625-28.08L-34.0290625-28.08Q-33.7890625-28.08 -33.7390625-28.44Q-33.6890625-28.81 -33.4990625-28.91L-33.4990625-28.91Q-33.059062499999996-29.05 -32.7590625-29.17Q-32.4690625-29.3 -32.2790625-29.71Q-32.0790625-30.13 -31.979062499999998-31.01Q-31.8890625-31.88 -31.8890625-33.59L-31.8890625-33.59Q-31.8890625-35.25 -31.4690625-36.21Q-31.0590625-37.16 -30.9590625-37.99L-30.9590625-37.99Q-30.8590625-38.77 -30.8090625-39.7Q-30.7590625-40.63 -30.7390625-41.58Q-30.7090625-42.53 -30.6890625-43.38Q-30.659062499999997-44.24 -30.6190625-44.92L-30.6190625-44.92Q-30.5190625-45.95 -30.3190625-46.92Q-30.1290625-47.9 -30.1290625-48.58L-30.1290625-48.58Q-30.1290625-49.56 -30.7590625-49.85Q-31.3990625-50.15 -32.0290625-50.15L-32.0290625-50.15Q-32.5690625-50.15 -33.1790625-50.07Q-33.7890625-50 -34.3290625-50L-34.3290625-50Q-34.8590625-50 -35.3290625-50.15Q-35.7890625-50.29 -36.0790625-50.78L-36.0790625-50.78Q-35.8390625-51.56 -35.1290625-51.9Q-34.4190625-52.25 -33.4690625-52.37Q-32.519062500000004-52.49 -31.4690625-52.47Q-30.419062500000003-52.44 -29.5390625-52.54L-29.5390625-52.54Q-27.7790625-52.69 -25.9290625-52.73Q-24.0690625-52.78 -22.2190625-52.93L-22.2190625-52.93Q-21.0890625-53.03 -19.9990625-53.34Q-18.8990625-53.66 -17.6790625-53.66L-17.6790625-53.66Q-17.1890625-53.66 -16.7190625-53.64Q-16.2590625-53.61 -15.7190625-53.61L-15.7190625-53.61Q-14.209062500000002-53.61 -12.959062500000002-54Q-11.7190625-54.39 -10.1090625-54.39L-10.1090625-54.39Q-9.769062499999997-54.39 -9.639062500000001-54.35Q-9.519062499999997-54.3 -9.4690625-54.22Q-9.419062500000003-54.15 -9.379062500000003-54.1Q-9.3290625-54.05 -9.1790625-54.05L-9.1790625-54.05Q-9.0790625-54.05 -9.059062500000003-54.1Q-9.029062500000002-54.15 -8.989062500000003-54.22Q-8.939062499999999-54.3 -8.809062500000003-54.35Q-8.689062499999999-54.39 -8.299062499999998-54.39L-8.299062499999998-54.39Q-7.909062499999997-54.39 -7.5390625-54.37Q-7.179062500000001-54.35 -6.7890625-54.35L-6.7890625-54.35Q-6.349062500000002-54.35 -6.009062499999999-54.49Q-5.659062499999997-54.64 -5.349062500000002-54.79Q-5.029062500000002-54.93 -4.659062499999997-55.08Q-4.299062499999998-55.22 -3.759062499999999-55.22L-3.759062499999999-55.22Q-2.779062500000002-55.22 -2.3690624999999983-54.74Q-1.9490624999999966-54.25 -1.9490624999999966-53.52L-1.9490624999999966-53.52Q-1.9490624999999966-52.78 -2.249062500000001-51.88Q-2.5390625-50.98 -2.9290625000000006-50.07Q-3.319062500000001-49.17 -3.739062500000003-48.36Q-4.149062499999999-47.56 -4.399062499999999-47.07L-4.399062499999999-47.07Q-4.589062499999997-46.68 -4.709062500000002-46.17Q-4.829062499999999-45.65 -5.079062499999999-45.31L-5.079062499999999-45.31Q-5.319062500000001-45.02 -5.659062499999997-44.75Q-6.009062499999999-44.48 -6.149062499999999-44.19L-6.149062499999999-44.19Q-6.299062499999998-44.04 -6.369062499999998-43.63Q-6.449062499999997-43.21 -6.5390625-42.8Q-6.639062500000001-42.38 -6.839062499999997-42.07Q-7.029062500000002-41.75 -7.369062499999998-41.75L-7.369062499999998-41.75Q-7.809062500000003-41.75 -8.059062500000003-42.07Q-8.299062499999998-42.38 -8.299062499999998-42.82L-8.299062499999998-42.82Q-8.299062499999998-43.8 -7.959062500000002-45Q-7.619062499999998-46.19 -7.619062499999998-47.61L-7.619062499999998-47.61Q-7.619062499999998-48.44 -7.839062499999997-49.24Q-8.059062500000003-50.05 -8.7890625-50.05L-8.7890625-50.05Q-9.379062500000003-50.05 -10.299062499999998-49.85Q-11.229062499999998-49.66 -11.619062499999998-49.66L-11.619062499999998-49.66Q-12.549062499999998-49.66 -14.189062499999999-49.8Q-15.819062500000001-49.95 -17.5290625-49.95L-17.5290625-49.95Q-19.0890625-49.95 -20.1690625-49.73Q-21.2390625-49.51 -21.9490625-48.71Q-22.6590625-47.9 -23.0690625-46.31Q-23.4890625-44.73 -23.6790625-41.99L-23.6790625-41.99L-23.6790625-41.41Q-23.6290625-40.72 -24.0190625-39.28Q-24.4090625-37.84 -24.4090625-36.13L-24.4090625-36.13L-24.4090625-35.4Q-24.4090625-34.91 -24.5890625-34.59Q-24.7590625-34.28 -24.7590625-34.33L-24.7590625-34.33Q-24.7590625-34.08 -24.5890625-33.62Q-24.4090625-33.15 -24.4090625-32.52L-24.4090625-32.52Q-24.4090625-32.42 -24.6290625-32.06Q-24.8490625-31.69 -24.8490625-31.35L-24.8490625-31.35Q-24.8490625-31.1 -24.0490625-30.91Q-23.2390625-30.71 -22.1190625-30.59Q-20.9990625-30.47 -19.8290625-30.4Q-18.6490625-30.32 -17.8690625-30.32L-17.8690625-30.32Q-17.1890625-30.32 -16.4290625-30.52Q-15.669062499999999-30.71 -14.6490625-30.71L-14.6490625-30.71Q-14.159062499999997-30.71 -13.699062499999997-30.66Q-13.229062499999998-30.62 -12.839062499999997-30.62L-12.839062499999997-30.62Q-12.549062499999998-30.62 -12.3990625-30.66L-12.3990625-30.66Q-11.0390625-31.01 -10.3290625-31.59Q-9.619062499999998-32.18 -9.029062500000002-32.76Q-8.449062499999997-33.35 -7.689062499999999-33.81Q-6.929062500000001-34.28 -5.4690625-34.38L-5.4690625-34.38Q-5.269062499999997-34.13 -5.269062499999997-33.79L-5.269062499999997-33.79Q-5.269062499999997-33.25 -5.739062500000003-32.76Q-6.199062499999997-32.28 -6.5390625-31.79L-6.5390625-31.79Q-6.639062500000001-31.69 -6.709062500000002-31.25Q-6.7890625-30.81 -6.929062500000001-30.66L-6.929062500000001-30.66Q-7.179062500000001-30.42 -7.619062499999998-30.49Q-8.059062500000003-30.57 -8.349062500000002-30.32L-8.349062500000002-30.32Q-8.589062499999997-30.22 -8.7190625-30Q-8.839062499999997-29.79 -9.0790625-29.59L-9.0790625-29.59Q-10.599062500000002-28.71 -11.4290625-27.93Q-12.259062499999999-27.15 -12.889062500000001-26.59Q-13.529062500000002-26.03 -14.209062500000002-25.71Q-14.889062500000001-25.39 -16.0690625-25.39L-16.0690625-25.39Q-18.2590625-25.39 -20.4390625-25.78Q-22.6090625-26.17 -24.4590625-26.17L-24.4590625-26.17Q-25.6790625-26.17 -26.0290625-25.37Q-26.3690625-24.56 -26.3690625-23.44L-26.3690625-23.44Q-26.3690625-23.05 -26.3190625-22.73Q-26.2690625-22.41 -26.2690625-22.17L-26.2690625-22.17Q-26.2690625-21.92 -26.3690625-21.51Q-26.4690625-21.09 -26.5890625-20.63Q-26.7090625-20.17 -26.8090625-19.75Q-26.9090625-19.34 -26.9490625-19.04L-26.9490625-19.04Q-27.0490625-18.21 -27.1490625-17.43Q-27.2490625-16.65 -27.3690625-15.65Q-27.4890625-14.65 -27.6590625-13.38Q-27.8290625-12.11 -28.0290625-10.3L-28.0290625-10.3Q-28.1690625-8.89 -28.3690625-7.96Q-28.5690625-7.03 -28.8590625-6.23Q-29.1490625-5.42 -29.5690625-4.61Q-29.9790625-3.81 -30.6190625-2.64L-30.6190625-2.64Q-30.4690625-2.64 -30.349062500000002-2.61Q-30.2290625-2.59 -30.1290625-2.59L-30.1290625-2.59Q-29.4890625-2.59 -28.8290625-2.78Q-28.1690625-2.98 -26.9490625-3.32L-26.9490625-3.32Q-26.6590625-3.52 -26.3690625-3.71L-26.3690625-3.71Q-26.1190625-3.86 -25.8790625-3.98Q-25.6390625-4.1 -25.3890625-4.1L-25.3890625-4.1Q-25.2490625-4.1 -24.9490625-4.05Q-24.6590625-4 -24.4090625-4L-24.4090625-4Q-24.1190625-4 -23.9990625-4.13Q-23.8790625-4.25 -23.5790625-4.25L-23.5790625-4.25Q-22.9990625-4.25 -21.2890625-4.08Q-19.5790625-3.91 -17.2390625-3.91L-17.2390625-3.91Q-16.3090625-3.91 -15.459062500000002-3.98Q-14.599062499999999-4.05 -13.819062500000001-4.44L-13.819062500000001-4.44Q-13.7190625-4.54 -13.4990625-4.79Q-13.279062500000002-5.03 -13.0390625-5.32Q-12.7890625-5.62 -12.529062500000002-5.86Q-12.259062499999999-6.1 -12.009062499999999-6.25L-12.009062499999999-6.25Q-11.7190625-6.45 -11.279062500000002-6.42Q-10.839062499999997-6.4 -10.549062499999998-6.64L-10.549062499999998-6.64Q-10.159062499999997-6.93 -9.8590625-7.45Q-9.569062500000001-7.96 -9.0790625-8.45L-9.0790625-8.45L-6.5390625-10.99Q-6.349062500000002-11.18 -6.149062499999999-11.45Q-5.959062500000002-11.72 -5.689062499999999-11.96Q-5.419062500000003-12.21 -5.029062500000002-12.35Q-4.639062500000001-12.5 -4.049062499999998-12.5L-4.049062499999998-12.5ZM 54.930859375000004-10.45L 54.930859375000004-10.45Q 54.930859375000004-10.01  54.56085937500001-9.55Q 54.20085937500001-9.08  53.73085937500001-8.62Q 53.27085937500001-8.15  52.780859375000006-7.69Q 52.290859375000004-7.23  52.000859375000005-6.84L 52.000859375000005-6.84Q 51.76085937500001-6.49  51.63085937500001-5.96Q 51.51085937500001-5.42  51.27085937500001-4.98L 51.27085937500001-4.98Q 50.680859375000004-3.86  49.710859375000005-3.03Q 48.73085937500001-2.2  47.610859375000004-0.98L 47.610859375000004-0.98Q 47.170859375000006-0.49  46.80085937500001 0Q 46.430859375000004 0.49  46.070859375000005 0.9Q 45.70085937500001 1.32  45.24085937500001 1.56Q 44.77085937500001 1.81  44.140859375000005 1.81L 44.140859375000005 1.81Q 43.460859375000005 1.81  43.09085937500001 1.61Q 42.72085937500001 1.42  42.41085937500001 1.15Q 42.09085937500001 0.88  41.72085937500001 0.59Q 41.360859375000004 0.29  40.72085937500001 0.1L 40.72085937500001 0.1Q 39.99085937500001-0.1  38.790859375000004-1.37Q 37.600859375000006-2.64  36.33085937500001-4.64L 36.33085937500001-4.64Q 36.23085937500001-4.79  36.110859375000004-4.74Q 35.99085937500001-4.69  35.99085937500001-4.98L 35.99085937500001-4.98Q 35.99085937500001-5.27  35.570859375000005-5.64Q 35.16085937500001-6.01  34.69085937500001-6.37Q 34.23085937500001-6.74  33.81085937500001-7.03Q 33.40085937500001-7.32  33.40085937500001-7.52L 33.40085937500001-7.52Q 33.40085937500001-7.81  33.13085937500001-8.08Q 32.860859375000004-8.35  32.49085937500001-8.62Q 32.13085937500001-8.89  31.76085937500001-9.16Q 31.40085937500001-9.42  31.200859375000007-9.72L 31.200859375000007-9.72Q 30.860859375000004-10.4  30.37085937500001-10.99Q 29.880859375000007-11.57  29.340859375000008-12.13Q 28.810859375000007-12.7  28.270859375000008-13.26Q 27.73085937500001-13.82  27.250859375000008-14.5L 27.250859375000008-14.5Q 26.950859375000007-14.89  26.760859375000006-15.33Q 26.560859375000007-15.77  26.460859375000005-15.92L 26.460859375000005-15.92Q 25.830859375000006-16.7  24.760859375000006-17.55Q 23.680859375000008-18.41  22.66085937500001-19.31Q 21.630859375000007-20.21  20.900859375000007-21.12Q 20.170859375000006-22.02  20.170859375000006-22.85L 20.170859375000006-22.85Q 20.170859375000006-23.1  20.380859375000007-23.54Q 20.600859375000006-23.97  21.240859375000007-23.97L 21.240859375000007-23.97Q 21.39085937500001-23.97  21.530859375000006-23.95Q 21.680859375000008-23.93  21.780859375000006-23.93L 21.780859375000006-23.93Q 21.870859375000006-23.97  22.290859375000007-24.19Q 22.700859375000007-24.41  23.14085937500001-24.71L 23.14085937500001-24.71Q 23.680859375000008-25  24.32085937500001-25.44L 24.32085937500001-25.44Q 25.240859375000007-25.98  26.780859375000006-26.98Q 28.32085937500001-27.98  29.98085937500001-29.3Q 31.640859375000005-30.62  33.15085937500001-32.13Q 34.670859375000006-33.64  35.59085937500001-35.25L 35.59085937500001-35.25Q 35.94085937500001-35.79  36.250859375000005-36.08Q 36.570859375000005-36.38  36.570859375000005-37.16L 36.570859375000005-37.16Q 36.570859375000005-37.65  36.250859375000005-38.33Q 35.94085937500001-39.01  35.420859375000006-39.7Q 34.91085937500001-40.38  34.30085937500001-41.04Q 33.69085937500001-41.7  33.06085937500001-42.19L 33.06085937500001-42.19Q 32.670859375000006-42.53  32.08085937500001-42.75Q 31.490859375000007-42.97  31.200859375000007-43.26L 31.200859375000007-43.26Q 30.76085937500001-43.85  30.69085937500001-44.65Q 30.610859375000004-45.46  30.130859375000007-45.8L 30.130859375000007-45.8Q 29.83085937500001-46.04  28.950859375000007-46.02Q 28.080859375000006-46  27.590859375000008-46.19L 27.590859375000008-46.19Q 27.440859375000006-46.29  27.270859375000008-46.56Q 27.100859375000006-46.83  26.850859375000006-46.92L 26.850859375000006-46.92Q 26.560859375000007-47.12  26.290859375000007-47.17Q 26.020859375000008-47.22  25.73085937500001-47.31L 25.73085937500001-47.31Q 25.630859375000007-47.31  25.440859375000006-47.56Q 25.240859375000007-47.8  24.80085937500001-48.05Q 24.360859375000008-48.29  23.680859375000008-48.51Q 23.000859375000008-48.73  21.970859375000007-48.73L 21.970859375000007-48.73Q 21.290859375000007-48.73  20.870859375000006-47.97Q 20.460859375000005-47.22  20.210859375000005-46.02Q 19.970859375000007-44.82  19.870859375000006-43.31Q 19.770859375000008-41.8  19.73085937500001-40.26Q 19.680859375000008-38.72  19.680859375000008-37.28Q 19.680859375000008-35.84  19.580859375000006-34.86L 19.580859375000006-34.86Q 19.290859375000007-30.81  18.580859375000006-26.64Q 17.870859375000006-22.46  17.380859375000007-17.77L 17.380859375000007-17.77L 17.380859375000007-17.63Q 17.380859375000007-17.43  17.41085937500001-17.26Q 17.430859375000008-17.09  17.430859375000008-16.94L 17.430859375000008-16.94Q 17.430859375000008-16.8  17.310859375000007-16.53Q 17.190859375000006-16.26  16.990859375000007-16.26L 16.990859375000007-16.26Q 16.990859375000007-15.72  17.060859375000007-15.6Q 17.14085937500001-15.48  17.14085937500001-15.14L 17.14085937500001-15.14Q 17.14085937500001-14.99  17.110859375000008-14.75Q 17.090859375000008-14.5  16.990859375000007-14.11L 16.990859375000007-14.11Q 16.750859375000008-13.04  16.600859375000006-11.6Q 16.450859375000007-10.16  16.330859375000006-8.54Q 16.210859375000005-6.93  16.14085937500001-5.27Q 16.060859375000007-3.61  15.920859375000006-2.05L 15.920859375000006-2.05Q 16.010859375000006-2.05  16.110859375000008-2.03Q 16.210859375000005-2  16.310859375000007-2L 16.310859375000007-2Q 17.240859375000007-2  18.14085937500001-2.27Q 19.040859375000007-2.54  19.870859375000006-2.54L 19.870859375000006-2.54Q 20.750859375000008-2.54  21.39085937500001-2.05L 21.39085937500001-2.05Q 21.240859375000007-1.37  20.750859375000008-1.07Q 20.260859375000006-0.78  19.580859375000006-0.63Q 18.900859375000007-0.49  18.110859375000008-0.44Q 17.330859375000006-0.39  16.650859375000007-0.29L 16.650859375000007-0.29Q 16.55085937500001-0.24  16.380859375000007-0.07Q 16.210859375000005 0.1  15.920859375000006 0.1L 15.920859375000006 0.1Q 15.180859375000008 0.15  14.330859375000006 0.44Q 13.480859375000009 0.73  12.600859375000008 1.07Q 11.720859375000007 1.42  10.860859375000008 1.71Q 10.010859375000008 2  9.230859375000007 2L 9.230859375000007 2Q 8.690859375000008 2  8.350859375000008 1.88Q 8.010859375000008 1.76  7.620859375000007 1.76L 7.620859375000007 1.76Q 7.080859375000006 1.76  6.880859375000007 2Q 6.690859375000008 2.25  6.440859375000008 2.29L 6.440859375000008 2.29Q 5.420859375000006 2.54  4.050859375000007 3Q 2.680859375000007 3.47  1.6608593750000074 3.47L 1.6608593750000074 3.47Q 1.1208593750000073 3.47  0.6808593750000069 3.27L 0.6808593750000069 3.27Q 0.29085937500000725 3.17  0.050859375000007034 2.91Q-0.19914062499999297 2.64 -0.09914062499999288 2.25L-0.09914062499999288 2.25Q-0.19914062499999297 1.95 -0.19914062499999297 1.81L-0.19914062499999297 1.81Q-0.19914062499999297 1.17  0.3708593750000073 0.83Q 0.9308593750000069 0.49  1.7808593750000075 0.29Q 2.640859375000007 0.1  3.6908593750000067-0.02Q 4.7408593750000065-0.15  5.710859375000007-0.29L 5.710859375000007-0.29Q 5.810859375000007-0.29  5.960859375000007-0.27Q 6.100859375000008-0.24  6.350859375000008-0.24L 6.350859375000008-0.24Q 7.620859375000007-0.24  8.080859375000006-1.61Q 8.540859375000007-2.98  8.980859375000007-6.1L 8.980859375000007-6.1Q 8.980859375000007-6.15  9.030859375000007-6.3L 9.030859375000007-6.3Q 9.080859375000006-6.49  9.370859375000007-6.84L 9.370859375000007-6.84Q 9.370859375000007-7.37  9.180859375000008-7.74Q 8.980859375000007-8.11  8.980859375000007-8.5L 8.980859375000007-8.5Q 8.980859375000007-8.64  9.130859375000007-8.81Q 9.280859375000007-8.98  9.370859375000007-9.38L 9.370859375000007-9.38Q 9.470859375000007-10.45  9.690859375000008-11.79Q 9.910859375000006-13.13  10.160859375000006-14.65Q 10.400859375000007-16.16  10.590859375000008-17.8Q 10.790859375000007-19.43  10.840859375000008-21.04L 10.840859375000008-21.04Q 10.840859375000008-22.12  10.890859375000007-23.05Q 10.940859375000008-23.97  11.180859375000008-25.05L 11.180859375000008-25.05Q 11.230859375000007-25.24  11.250859375000006-25.37Q 11.280859375000007-25.49  11.280859375000007-25.63L 11.280859375000007-25.63Q 11.280859375000007-25.93  11.230859375000007-26.32Q 11.180859375000008-26.71  11.180859375000008-27.64L 11.180859375000008-27.64Q 11.180859375000008-29.1  11.470859375000007-30.96Q 11.770859375000008-32.81  11.910859375000006-34.86L 11.910859375000006-34.86Q 12.010859375000008-36.33  12.110859375000008-37.55Q 12.210859375000007-38.77  12.300859375000007-39.97Q 12.400859375000007-41.16  12.570859375000007-42.41Q 12.740859375000007-43.65  12.990859375000007-45.12L 12.990859375000007-45.12Q 13.090859375000008-45.51  13.280859375000006-46.48Q 13.480859375000009-47.46  13.480859375000009-48.14L 13.480859375000009-48.14Q 13.480859375000009-48.83  13.060859375000007-49Q 12.650859375000007-49.17  12.110859375000008-49.17L 12.110859375000008-49.17Q 10.200859375000007-49.17  8.930859375000008-48.39Q 7.670859375000006-47.61  6.7408593750000065-46.7Q 5.810859375000007-45.8  5.080859375000006-45.02Q 4.340859375000007-44.24  3.470859375000007-44.24L 3.470859375000007-44.24Q 3.220859375000007-44.24  3.000859375000007-44.34Q 2.7808593750000075-44.43  2.7808593750000075-44.87L 2.7808593750000075-44.87Q 2.7808593750000075-45.85  3.3708593750000073-46.56Q 3.9508593750000074-47.27  4.590859375000007-48L 4.590859375000007-48Q 4.830859375000006-48.24  5.150859375000007-48.22Q 5.470859375000007-48.19  5.710859375000007-48.39L 5.710859375000007-48.39Q 6.100859375000008-48.78  6.440859375000008-49.49Q 6.790859375000007-50.2  7.180859375000008-50.59L 7.180859375000008-50.59Q 7.420859375000006-50.83  7.710859375000007-50.78Q 8.010859375000008-50.73  8.300859375000007-50.93L 8.300859375000007-50.93L 8.980859375000007-51.71Q 9.230859375000007-52  9.450859375000007-52.29Q 9.670859375000006-52.59  9.720859375000007-52.78L 9.720859375000007-52.78Q 9.720859375000007-52.83  10.060859375000007-53.27Q 10.400859375000007-53.71  10.840859375000008-54.22Q 11.280859375000007-54.74  11.690859375000008-55.15Q 12.110859375000008-55.57  12.260859375000008-55.66L 12.260859375000008-55.66Q 12.690859375000006-55.91  13.300859375000009-55.98Q 13.920859375000006-56.05  14.530859375000006-56.08Q 15.140859375000009-56.1  15.700859375000007-56.15Q 16.260859375000006-56.2  16.650859375000007-56.4L 16.650859375000007-56.4Q 17.040859375000007-56.64  17.110859375000008-56.91Q 17.190859375000006-57.18  17.720859375000007-57.86L 17.720859375000007-57.86Q 17.970859375000007-58.2  18.510859375000006-58.45Q 19.040859375000007-58.69  19.190859375000006-58.94L 19.190859375000006-58.94Q 19.190859375000006-58.98  19.290859375000007-59.69Q 19.380859375000007-60.4  19.650859375000007-61.23Q 19.920859375000006-62.06  20.380859375000007-62.74Q 20.850859375000006-63.43  21.630859375000007-63.43L 21.630859375000007-63.43Q 22.020859375000008-63.43  22.260859375000006-63.01Q 22.510859375000006-62.6  22.850859375000006-62.6L 22.850859375000006-62.6L 22.850859375000006-62.4Q 22.850859375000006-61.87  22.610859375000008-61.06Q 22.360859375000008-60.25  22.07085937500001-59.45Q 21.780859375000006-58.64  21.530859375000006-57.98Q 21.290859375000007-57.32  21.290859375000007-57.13L 21.290859375000007-57.13Q 21.290859375000007-56.4  21.870859375000006-55.98Q 22.460859375000005-55.57  23.460859375000005-55.22Q 24.460859375000005-54.88  25.80085937500001-54.59Q 27.150859375000007-54.3  28.66085937500001-53.86L 28.66085937500001-53.86Q 29.69085937500001-53.56  30.390859375000005-53.22Q 31.100859375000006-52.88  31.740859375000007-52.51Q 32.37085937500001-52.15  33.01085937500001-51.76Q 33.640859375000005-51.37  34.47085937500001-50.93L 34.47085937500001-50.93Q 34.72085937500001-50.83  35.23085937500001-50.81Q 35.74085937500001-50.78  35.99085937500001-50.59L 35.99085937500001-50.59Q 36.52085937500001-50.2  36.890859375000005-49.56Q 37.26085937500001-48.93  37.790859375000004-48.39L 37.790859375000004-48.39Q 38.38085937500001-47.8  39.23085937500001-47.02Q 40.09085937500001-46.24  40.920859375000006-45.48Q 41.750859375000005-44.73  42.33085937500001-44.04Q 42.920859375000006-43.36  42.920859375000006-43.02L 42.920859375000006-43.02Q 42.920859375000006-42.82  42.87085937500001-42.55Q 42.820859375000005-42.29  42.820859375000005-42.09L 42.820859375000005-42.09Q 42.820859375000005-41.85  42.97085937500001-41.7Q 43.110859375000004-41.55  43.110859375000004-41.31L 43.110859375000004-41.31Q 43.110859375000004-40.92  42.850859375000006-40.45Q 42.58085937500001-39.99  42.140859375000005-39.26L 42.140859375000005-39.26Q 41.94085937500001-38.87  41.99085937500001-38.53Q 42.040859375000004-38.18  41.80085937500001-37.79L 41.80085937500001-37.79Q 41.65085937500001-37.55  41.33085937500001-37.57Q 41.01085937500001-37.6  41.01085937500001-37.3L 41.01085937500001-37.3Q 41.01085937500001-37.21  41.040859375000004-37.06Q 41.06085937500001-36.91  41.06085937500001-36.82L 41.06085937500001-36.82Q 41.06085937500001-36.43  40.530859375000006-36.04Q 39.99085937500001-35.64  39.280859375000006-35.23Q 38.570859375000005-34.81  37.91085937500001-34.38Q 37.26085937500001-33.94  37.06085937500001-33.45L 37.06085937500001-33.45L 37.06085937500001-33.4Q 37.06085937500001-33.3  37.08085937500001-33.13Q 37.110859375000004-32.96  37.110859375000004-32.86L 37.110859375000004-32.86Q 37.110859375000004-32.71  36.91085937500001-32.59Q 36.72085937500001-32.47  36.47085937500001-32.37Q 36.23085937500001-32.28  35.99085937500001-32.18Q 35.74085937500001-32.08  35.59085937500001-31.98L 35.59085937500001-31.98Q 35.350859375000006-31.84  35.030859375000006-31.42Q 34.72085937500001-31.01  34.350859375000006-30.54Q 33.98085937500001-30.08  33.640859375000005-29.66Q 33.30085937500001-29.25  33.06085937500001-29.05L 33.06085937500001-29.05Q 32.76085937500001-28.81  32.08085937500001-28.52Q 31.40085937500001-28.22  30.710859375000005-27.88Q 30.030859375000006-27.54  29.520859375000008-27.17Q 29.000859375000005-26.81  29.000859375000005-26.46L 29.000859375000005-26.46Q 29.000859375000005-26.22  29.47085937500001-25.51Q 29.930859375000004-24.8  30.47085937500001-24.07L 30.47085937500001-24.07Q 31.100859375000006-23.19  31.930859375000004-22.17L 31.930859375000004-22.17Q 31.930859375000004-21.78  32.76085937500001-20.75Q 33.59085937500001-19.73  34.69085937500001-18.48Q 35.790859375000004-17.24  36.890859375000005-16.04Q 37.99085937500001-14.84  38.52085937500001-14.11L 38.52085937500001-14.11Q 38.77085937500001-13.82  39.06085937500001-13.6Q 39.350859375000006-13.38  39.600859375000006-12.99L 39.600859375000006-12.99Q 39.84085937500001-12.74  39.820859375000005-12.45Q 39.790859375000004-12.16  39.94085937500001-11.91L 39.94085937500001-11.91Q 40.09085937500001-11.82  40.360859375000004-11.74Q 40.62085937500001-11.67  40.72085937500001-11.57L 40.72085937500001-11.57Q 42.09085937500001-9.67  42.920859375000006-8.47Q 43.750859375000005-7.28  44.31085937500001-6.57Q 44.87085937500001-5.86  45.34085937500001-5.62Q 45.80085937500001-5.37  46.430859375000004-5.37L 46.430859375000004-5.37Q 47.22085937500001-5.37  48.170859375000006-5.86Q 49.12085937500001-6.35  49.930859375000004-7.01Q 50.73085937500001-7.67  51.290859375000004-8.3Q 51.850859375000006-8.94  51.850859375000006-9.23L 51.850859375000006-9.23L 51.850859375000006-9.38Q 51.850859375000006-9.47  51.930859375000004-9.69Q 52.000859375000005-9.91  52.390859375000005-10.45L 52.390859375000005-10.45Q 52.73085937500001-10.99  53.05085937500001-11.47Q 53.37085937500001-11.96  53.91085937500001-11.96L 53.91085937500001-11.96Q 54.15085937500001-11.96  54.540859375000004-11.62Q 54.930859375000004-11.28  54.930859375000004-10.45ZM 103.269375-29.05L 103.269375-29.05Q 103.12937500000001-27.15  102.689375-25.42Q 102.249375-23.68  101.539375-21.97Q 100.829375-20.26  99.809375-18.43Q 98.779375-16.6  97.459375-14.5L 97.459375-14.5Q 97.359375-14.26  97.31937500000001-13.94Q 97.269375-13.62  97.11937499999999-13.38L 97.11937499999999-13.38Q 96.779375-12.99  96.189375-12.65Q 95.609375-12.3  95.259375-11.91L 95.259375-11.91Q 95.06937500000001-11.67  95.06937500000001-11.38Q 95.06937500000001-11.08  94.919375-10.84L 94.919375-10.84Q 94.679375-10.5  94.139375-10.13Q 93.59937500000001-9.77  93.06937500000001-9.38L 93.06937500000001-9.38Q 92.86937499999999-9.18  92.84937500000001-8.89Q 92.81937500000001-8.59  92.579375-8.59L 92.579375-8.59Q 92.479375-8.59  92.329375-8.62Q 92.189375-8.64  92.08937499999999-8.64L 92.08937499999999-8.64Q 91.799375-8.64  91.62937500000001-8.18Q 91.459375-7.71  91.259375-7.52L 91.259375-7.52Q 91.019375-7.37  90.699375-7.37Q 90.37937500000001-7.37  90.139375-7.18L 90.139375-7.18Q 89.359375-6.59  88.769375-5.88Q 88.179375-5.18  87.259375-4.64L 87.259375-4.64Q 87.009375-4.54  86.689375-4.49Q 86.37937500000001-4.44  86.179375-4.25L 86.179375-4.25Q 85.939375-4.15  85.909375-3.83Q 85.889375-3.52  85.64937499999999-3.52L 85.64937499999999-3.52Q 85.549375-3.52  85.39937499999999-3.54Q 85.249375-3.56  85.159375-3.56L 85.159375-3.56Q 84.909375-3.56  84.83937499999999-3.17Q 84.769375-2.78  84.519375-2.78L 84.519375-2.78Q 84.419375-2.78  84.299375-2.81Q 84.179375-2.83  84.079375-2.83L 84.079375-2.83Q 83.789375-2.83  83.61937499999999-2.34Q 83.449375-1.86  83.249375-1.71L 83.249375-1.71Q 82.759375-1.37  82.059375-1.39Q 81.349375-1.42  80.709375-0.98L 80.709375-0.98Q 80.469375-0.88  80.349375-0.66Q 80.229375-0.44  79.929375-0.29L 79.929375-0.29Q 78.999375 0.24  77.779375 0.61Q 76.559375 0.98  74.999375 0.98L 74.999375 0.98Q 74.06937500000001 0.98  73.049375 0.83L 73.049375 0.83Q 72.609375 0.39  72.019375 0.22Q 71.439375 0.05  70.779375-0.12Q 70.119375-0.29  69.389375-0.54Q 68.64937499999999-0.78  67.919375-1.37L 67.919375-1.37Q 67.239375-1.9  66.679375-2.51Q 66.109375-3.13  65.379375-3.56L 65.379375-3.56Q 64.989375-3.76  64.579375-3.88Q 64.159375-4  63.919375-4.25L 63.919375-4.25Q 63.669375-4.49  63.719375-4.79Q 63.769375-5.08  63.529375-5.37L 63.529375-5.37Q 63.429375-5.52  63.159375-5.57Q 62.889375-5.62  62.789375-5.76L 62.789375-5.76Q 62.549375-6.1  62.449375-6.47Q 62.349375-6.84  62.109375-7.18L 62.109375-7.18Q 61.519375-7.91  60.859375-8.37Q 60.209375-8.84  59.909375-9.38L 59.909375-9.38Q 59.669375-9.81  59.399375-10.62Q 59.129374999999996-11.43  58.859375-12.38Q 58.589375000000004-13.33  58.299375-14.28Q 58.009375-15.23  57.719375-15.92L 57.719375-15.92Q 56.889375-17.72  56.889375-20.9L 56.889375-20.9Q 56.889375-22.17  56.979375-23.63Q 57.079375-25.1  57.299375-26.56Q 57.519375-28.03  57.789375-29.42Q 58.059375-30.81  58.449375-31.98L 58.449375-31.98Q 58.739375-32.96  58.789375-33.96Q 58.839375000000004-34.96  59.179375-35.64L 59.179375-35.64Q 59.229375-35.79  59.499375-35.96Q 59.769375-36.13  59.909375-36.38L 59.909375-36.38Q 60.059375-36.72  60.059375-36.94Q 60.059375-37.16  60.249375-37.45L 60.249375-37.45Q 60.349375-37.65  60.619375-37.84Q 60.889375-38.04  60.989375-38.18L 60.989375-38.18Q 61.129374999999996-38.43  61.159375-38.72Q 61.179375-39.01  61.379374999999996-39.26L 61.379374999999996-39.26Q 61.619375-39.65  62.089375000000004-39.99Q 62.549375-40.33  62.789375-40.72L 62.789375-40.72Q 62.989375-40.97  62.989375-41.28Q 62.989375-41.6  63.179375-41.85L 63.179375-41.85Q 63.279375-41.99  63.549375-42.02Q 63.819375-42.04  63.919375-42.19L 63.919375-42.19Q 64.109375-42.43  64.109375-42.72Q 64.109375-43.02  64.309375-43.26L 64.309375-43.26Q 64.599375-43.7  65.259375-44.26Q 65.919375-44.82  66.459375-45.46L 66.459375-45.46Q 67.429375-46.53  68.429375-47.51Q 69.429375-48.49  70.529375-49.39Q 71.629375-50.29  72.879375-51.2Q 74.119375-52.1  75.589375-53.13L 75.589375-53.13Q 76.559375-53.91  77.589375-54.54L 77.589375-54.54Q 78.419375-55.08  79.439375-55.62Q 80.469375-56.15  81.39937499999999-56.4L 81.39937499999999-56.4Q 81.449375-56.4  81.489375-56.57Q 81.539375-56.74  81.789375-56.74L 81.789375-56.74Q 82.229375-56.84  83.059375-56.91Q 83.889375-56.98  84.769375-56.98L 84.769375-56.98Q 86.12937500000001-56.98  87.259375-56.74L 87.259375-56.74Q 88.179375-56.49  89.189375-56.35Q 90.189375-56.2  91.239375-55.93Q 92.289375-55.66  93.37937500000001-55.2Q 94.479375-54.74  95.609375-53.86L 95.609375-53.86Q 95.84937500000001-53.66  96.019375-53.25Q 96.189375-52.83  96.729375-52.78L 96.729375-52.78Q 97.269375-52.73  97.62937500000001-52.29Q 97.999375-51.86  98.269375-51.2Q 98.539375-50.54  98.759375-49.78Q 98.979375-49.02  99.269375-48.39L 99.269375-48.39Q 99.36937499999999-48.24  100.169375-46.73Q 100.979375-45.21  101.809375-42.92L 101.809375-42.92Q 101.949375-42.53  101.999375-41.99Q 102.049375-41.46  102.199375-41.11L 102.199375-41.11Q 102.299375-40.82  102.559375-40.6Q 102.829375-40.38  102.929375-39.99L 102.929375-39.99Q 103.169375-38.77  103.31937500000001-36.96Q 103.469375-35.16  103.469375-33.15L 103.469375-33.15Q 103.469375-32.13  103.419375-31.08Q 103.36937499999999-30.03  103.269375-29.05ZM 97.459375-34.52L 97.459375-34.52Q 97.31937500000001-35.74  96.729375-36.99Q 96.139375-38.23  95.999375-38.92L 95.999375-38.92Q 95.699375-40.09  95.169375-40.99Q 94.62937500000001-41.89  94.06937500000001-42.63Q 93.509375-43.36  93.08937499999999-43.92Q 92.679375-44.48  92.679375-44.97L 92.679375-44.97Q 92.679375-45.12  92.699375-45.31Q 92.729375-45.51  92.729375-45.65L 92.729375-45.65Q 92.729375-45.85  92.139375-46.48Q 91.549375-47.12  90.86937499999999-47.66L 90.86937499999999-47.66Q 90.529375-47.9  89.989375-47.97Q 89.449375-48.05  89.059375-48.39L 89.059375-48.39Q 88.669375-48.68  88.429375-49.17Q 88.179375-49.66  87.939375-49.85L 87.939375-49.85Q 87.009375-50.59  85.34937500000001-50.98Q 83.689375-51.37  82.12937500000001-51.37L 82.12937500000001-51.37Q 81.589375-51.37  80.959375-51.29Q 80.31937500000001-51.22  80.31937500000001-50.93L 80.31937500000001-50.93Q 78.56937500000001-50.68  77.369375-50.39Q 76.169375-50.1  75.31937500000001-49.73Q 74.459375-49.37  73.849375-48.93Q 73.239375-48.49  72.659375-48L 72.659375-48Q 72.409375-47.85  72.289375-47.66Q 72.169375-47.46  71.919375-47.31L 71.919375-47.31Q 71.389375-46.92  70.919375-46.73Q 70.459375-46.53  70.119375-46.19L 70.119375-46.19Q 69.869375-45.95  69.89937499999999-45.65Q 69.919375-45.36  69.779375-45.12L 69.779375-45.12Q 69.579375-44.87  69.189375-44.75Q 68.799375-44.63  68.64937499999999-44.38L 68.64937499999999-44.38Q 68.509375-44.14  68.429375-43.8Q 68.359375-43.46  68.259375-43.26L 68.259375-43.26Q 67.529375-41.65  66.81937500000001-40.41Q 66.109375-39.16  65.719375-38.18L 65.719375-38.18Q 65.429375-37.45  65.239375-36.23Q 65.039375-35.01  64.919375-33.67Q 64.799375-32.32  64.719375-31.03Q 64.64937499999999-29.74  64.599375-28.86L 64.599375-28.86Q 64.599375-28.56  64.619375-28.44Q 64.64937499999999-28.32  64.64937499999999-28.08L 64.64937499999999-28.08L 64.64937499999999-27.64Q 64.699375-27.1  64.749375-26.73Q 64.799375-26.37  64.839375-26.1Q 64.889375-25.83  64.939375-25.59Q 64.989375-25.34  64.989375-25L 64.989375-25Q 64.989375-24.9  64.939375-24.63Q 64.889375-24.37  64.64937499999999-23.93L 64.64937499999999-23.93Q 64.699375-23.39  64.989375-22.85Q 65.279375-22.31  65.379375-21.78L 65.379375-21.78Q 65.479375-21.24  65.479375-20.83Q 65.479375-20.41  65.479375-20.02L 65.479375-20.02L 65.479375-19.14Q 65.479375-18.41  65.64937499999999-18.07Q 65.81937500000001-17.72  66.06937500000001-17.04L 66.06937500000001-17.04Q 66.259375-16.5  66.309375-15.97Q 66.359375-15.43  66.459375-15.19L 66.459375-15.19Q 66.599375-14.84  66.969375-14.7Q 67.329375-14.55  67.579375-14.11L 67.579375-14.11Q 67.81937500000001-13.72  67.919375-13.18Q 68.019375-12.65  68.259375-12.3L 68.259375-12.3Q 68.359375-12.16  68.629375-12.11Q 68.89937499999999-12.06  68.989375-11.91L 68.989375-11.91Q 69.189375-11.67  69.209375-11.38Q 69.239375-11.08  69.389375-10.84L 69.389375-10.84Q 69.479375-10.69  69.749375-10.64Q 70.019375-10.6  70.119375-10.45L 70.119375-10.45Q 70.309375-10.3  70.289375-9.94Q 70.259375-9.57  70.459375-9.38L 70.459375-9.38Q 70.89937499999999-8.94  71.849375-8.62Q 72.799375-8.3  73.389375-7.91L 73.389375-7.91Q 73.629375-7.76  73.759375-7.37Q 73.879375-6.98  74.119375-6.84L 74.119375-6.84Q 74.369375-6.64  74.679375-6.59Q 74.999375-6.54  75.239375-6.45L 75.239375-6.45Q 76.469375-5.66  77.299375-5.4Q 78.129375-5.13  79.049375-5.13L 79.049375-5.13Q 79.929375-5.13  81.099375-5.42Q 82.279375-5.71  83.36937499999999-6.15Q 84.469375-6.59  85.329375-7.06Q 86.179375-7.52  86.519375-7.91L 86.519375-7.91Q 86.519375-7.96  86.61937499999999-7.96L 86.61937499999999-7.96Q 86.719375-7.96  86.889375-7.91Q 87.059375-7.86  87.159375-7.86L 87.159375-7.86Q 87.39937499999999-7.86  87.83937499999999-8.35Q 88.279375-8.84  88.719375-9.47Q 89.159375-10.11  89.579375-10.72Q 89.989375-11.33  90.139375-11.57L 90.139375-11.57Q 90.579375-12.21  91.139375-12.92Q 91.699375-13.62  92.239375-14.33Q 92.769375-15.04  93.209375-15.72Q 93.64937499999999-16.41  93.799375-17.04L 93.799375-17.04Q 94.039375-17.97  94.289375-18.29Q 94.529375-18.6  94.919375-19.24L 94.919375-19.24Q 95.219375-19.78  95.409375-20.21Q 95.609375-20.65  95.749375-21.09Q 95.89937499999999-21.53  96.049375-22.05Q 96.189375-22.56  96.33937499999999-23.24L 96.33937499999999-23.24Q 96.489375-23.83  96.489375-24.41Q 96.489375-25  96.509375-25.59Q 96.529375-26.17  96.659375-26.68Q 96.779375-27.2  97.11937499999999-27.64L 97.11937499999999-27.64Q 97.359375-28.61  97.459375-29.86Q 97.559375-31.1  97.559375-32.32L 97.559375-32.32Q 97.559375-32.91  97.559375-33.47Q 97.559375-34.03  97.459375-34.52Z" data-textpath="HERO" data-text-anchor="middle" data-font-size="100" data-letterspacing="0" data-side="left" data-offset="0" data-dx="0" data-dy="106.2744140625" data-href="" data-font="Jim Nightshade" data-font-src="/Content/clientfonts/jimnightshade.woff" data-font-scale="contain" transform="translate(0,106.2744140625)" data-xmlspace="preserve" fill="url('#linearGradientSk0yrgsen221')" stroke="none" stroke-width="1px"/><rect x="0" y="0" width="0" height="0" stroke="none" fill="#000000" stroke-width="1px"/></g><g stroke="none" fill="#000000" stroke-width="1px"><rect x="94" y="87" width="0" height="0" fill="rgba(255, 136, 0, 0.1)" stroke="#ff8800" style="" stroke-width="1px"/></g><g class="selector-part" stroke="none" fill="#000000" stroke-width="1px"><rect x="0" y="0" width="0" height="0" fill="rgba(168, 202, 236, 0.5)" stroke="#3399ff" style="" stroke-width="1px"/></g><g class="selector-part" transform="matrix(1,0,0,1,12,12)" stroke="none" fill="#000000" stroke-width="1px"><rect x="0" y="0" width="0" height="0" fill="none" stroke="#2390bb" style="" stroke-width="2px"/><g transform="matrix(0.5,0,0,0.5,0,0)" stroke="none" fill="#000000" stroke-width="1px"><svg xmlns="http://www.w3.org/2000/svg" xmlns:xlink="http://www.w3.org/1999/xlink" version="1.1" id="Calque_1" x="124.5" y="-71px" width="28.94px" height="30px" viewBox="0 -15 28.94 30" enable-background="new 0 -15 28.94 30" xml:space="preserve" style="cursor: pointer;" stroke="none" fill="#000000" stroke-width="1px">
<g stroke="none" fill="#000000" stroke-width="1px">
	<path fill="rgba(0,0,0,0)" d="M23.355-9.979c-0.352-0.263-0.712-0.511-1.084-0.739L20.34-7.486c0.317,0.195,0.629,0.414,0.929,0.646   L23.355-9.979z" style="" stroke="none" stroke-width="1px"/>
	<path fill="rgba(0,0,0,0)" d="M28.894,0.081L25.092-0.13c0.292,2.317-0.217,4.718-1.539,6.756l-0.037-0.021   c-0.376,0.583-0.821,1.137-1.335,1.648c-3.808,3.809-9.902,3.942-13.871,0.396C8.282,8.623,8.255,8.602,8.227,8.576   C8.143,8.498,8.059,8.421,7.976,8.339c-0.052-0.051-0.104-0.1-0.153-0.152C7.8,8.163,7.776,8.14,7.753,8.115   c-0.084-0.091-0.167-0.18-0.25-0.271v0.002C4.312,4.293,4.087-0.98,6.821-4.782l4.123,4.124l3.401-14.306L0.037-11.566l4.102,4.098   C-0.064-2.14,0.193,5.554,4.917,10.587l0,0c0.012,0.016,0.023,0.025,0.033,0.037c0.091,0.098,0.181,0.199,0.278,0.293   c0.021,0.023,0.047,0.043,0.07,0.068c0.075,0.074,0.148,0.146,0.225,0.22c0.051,0.045,0.099,0.086,0.15,0.133   c0.053,0.047,0.104,0.094,0.156,0.14c0.144,0.13,0.291,0.257,0.439,0.375c0.01,0.012,0.018,0.016,0.027,0.023   c5.574,4.563,13.804,4.115,18.842-1.194C27.94,7.722,29.185,3.851,28.894,0.081z" style="" stroke="none" stroke-width="1px"/>
	<path fill="rgba(0,0,0,0)" d="M24.122-3.353l3.544-1.319c-0.426-0.932-0.962-1.826-1.611-2.662L22.88-5.276   C23.373-4.675,23.79-4.027,24.122-3.353z" style="" stroke="none" stroke-width="1px"/>
</g>
<desc stroke="none" fill="#000000" stroke-width="1px">Created with Snap</desc><defs/><circle cx="14.5" cy="0" r="15" style="" fill="rgba(0, 0, 0, 0)" stroke="none" stroke-width="1px"/></svg></g><rect x="69.5" y="-21" width="0" height="21" fill="rgba(255, 255, 255, 0)" stroke="#2390bb" style="cursor: pointer;" stroke-width="1px"/><circle cx="139" cy="60" r="0" fill="#ffffff" stroke="#2390bb" style="cursor: se-resize;" stroke-width="2px"/><circle cx="0" cy="60" r="0" fill="#ffffff" stroke="#2390bb" style="cursor: sw-resize;" stroke-width="2px"/><circle cx="139" cy="0" r="0" fill="#ffffff" stroke="#2390bb" style="cursor: ne-resize;" stroke-width="2px"/><circle cx="0" cy="0" r="0" fill="#ffffff" stroke="#2390bb" style="cursor: nw-resize;" stroke-width="2px"/><circle cx="70" cy="60" r="0" fill="#ffffff" stroke="#2390bb" style="cursor: s-resize;" stroke-width="2px"/><circle cx="70" cy="0" r="0" fill="#ffffff" stroke="#2390bb" style="cursor: n-resize;" stroke-width="2px"/><circle cx="0" cy="30" r="0" fill="#ffffff" stroke="#2390bb" style="cursor: w-resize;" stroke-width="2px"/><circle cx="139" cy="30" r="0" fill="#ffffff" stroke="#2390bb" style="cursor: e-resize;" stroke-width="2px"/><path stroke="#ff0000" fill="none" style="" stroke-width="3px"/><line x1="0" x2="0" y1="0" y2="0" fill="rgba(255, 255, 255, 0)" stroke="#2390bb" style="" stroke-width="1px"/><line x1="0" x2="0" y1="0" y2="0" fill="rgba(255, 255, 255, 0)" stroke="#2390bb" style="" stroke-width="1px"/><circle cx="0" cy="0" r="0" fill="#ff0000" stroke="#2390bb" style="cursor: pointer;" stroke-width="2px"/><circle cx="0" cy="0" r="0" fill="#ffa500" stroke="#2390bb" style="cursor: pointer;" stroke-width="2px"/><circle cx="0" cy="0" r="0" fill="#ffa500" stroke="#2390bb" style="cursor: pointer;" stroke-width="2px"/><circle cx="0" cy="0" r="0" fill="#ff0000" stroke="#2390bb" style="cursor: pointer;" stroke-width="2px"/><g style="cursor: pointer; visibility: hidden; opacity: 0;" transform="matrix(1,0,0,1,-50,-15)" stroke="none" fill="#000000" stroke-width="1px"><rect x="0" y="0" width="30" height="30" fill="#2390bb" rx="5" ry="5" style="" stroke="none" stroke-width="1px"/><rect x="6" y="6" width="18" height="4" style="" fill="#ffffff" stroke="none" stroke-width="1px"/><rect x="6" y="13" width="18" height="4" fill="#ffffff" style="" stroke="none" stroke-width="1px"/><rect x="6" y="20" width="18" height="4" fill="#ffffff" style="" stroke="none" stroke-width="1px"/></g></g>
</svg>