<svg xmlns="http://www.w3.org/2000/svg" xmlns:xlink="http://www.w3.org/1999/xlink" id="workspace" style="cursor: auto;width: 340px;height: 150px;/* background-color: #ccc; *//* overflow: hidden; */"><defs><linearGradient x1="0" y1="0.5" x2="1" y2="0.5" id="linearGradientSjzt8cqfa89c"><stop offset="0%" stop-color="#5e0000"/><stop offset="100%" stop-color="#5e0000"/></linearGradient><linearGradient x1="0" y1="0.5" x2="1" y2="0.5" id="linearGradientSjzt8cqfa89f"><stop offset="0%" stop-color="#5e0000"/><stop offset="100%" stop-color="#5e0000"/></linearGradient><linearGradient x1="0" y1="0.5" x2="1" y2="0.5" id="linearGradientSjzt8cqfa89i"><stop offset="0%" stop-color="#5e0000"/><stop offset="100%" stop-color="#5e0000"/></linearGradient><linearGradient x1="0" y1="0.5" x2="1" y2="0.5" id="linearGradientSjzt8cqfa89l"><stop offset="0%" stop-color="#5e0000"/><stop offset="100%" stop-color="#5e0000"/></linearGradient><linearGradient x1="0" y1="0.5" x2="1" y2="0.5" id="linearGradientSjzt8cqfa89o"><stop offset="0%" stop-color="#5e0000"/><stop offset="100%" stop-color="#5e0000"/></linearGradient><linearGradient x1="0" y1="0.5" x2="1" y2="0.5" id="linearGradientSjzt8cqfa89r"><stop offset="0%" stop-color="#5e0000"/><stop offset="100%" stop-color="#5e0000"/></linearGradient><linearGradient x1="0" y1="0.5" x2="1" y2="0.5" id="linearGradientSjzt8cqfa89u"><stop offset="0%" stop-color="#5e0000"/><stop offset="100%" stop-color="#5e0000"/></linearGradient><linearGradient x1="0" y1="0.5" x2="1" y2="0.5" id="linearGradientSjzt8cqfa89x"><stop offset="0%" stop-color="#5e0000"/><stop offset="100%" stop-color="#5e0000"/></linearGradient><linearGradient x1="0" y1="0.5" x2="1" y2="0.5" id="linearGradientSjzt8cqfa8a0"><stop offset="0%" stop-color="#5e0000"/><stop offset="100%" stop-color="#5e0000"/></linearGradient><linearGradient x1="0" y1="0.5" x2="1" y2="0.5" id="linearGradientSjzt8cqfa8a3"><stop offset="0%" stop-color="#000000"/><stop offset="100%" stop-color="#000000"/></linearGradient></defs><g transform="matrix(1.1007,0,0,1.1007,36.732,47.4047)" style="cursor: move; opacity: 1;" class="svg-clip svg-visible"><rect x="0" y="0" width="33" height="31" fill="none" style="" class="svg-hitbox"/><svg width="33.143" height="31.914967706061624" viewBox="10.439000000000004,13.188032293938392,33.143,31.914967706061624"><desc>Created with Snap</desc><defs/><g/><g/><g><path d="M17.03,38.776c0.538-0.373,1.2-0.805,2.008-1.213c0.805-0.411,1.74-0.814,2.784-1.187c1.047-0.365,2.207-0.685,3.44-0.963  c0.307-0.06,0.619-0.121,0.934-0.183l0.248-0.041l0.124-0.021c0.104-0.021,0.208-0.053,0.307-0.099  c0.4-0.184,0.682-0.568,0.754-0.983l0.051-0.642l0.027-0.484c0.003-0.325,0.057-0.649,0.116-0.974  c0.395-2.615,1.766-5.209,3.637-7.4c0.917-1.114,1.958-2.141,3.055-3.069c0.399-0.332,0.79-0.645,1.188-0.953  c-0.288,1.252-0.354,2.498-0.364,3.663c-0.002,1.356,0.203,2.615,0.419,3.758c0.493,2.278,1.222,4.067,1.807,5.268  c0.588,1.203,1.017,1.834,1.017,1.834s-0.28-0.71-0.648-1.977c-0.184-0.633-0.382-1.407-0.572-2.298  c-0.202-0.888-0.337-1.906-0.474-3.004c-0.085-1.104-0.147-2.299-0.062-3.544c0.106-1.24,0.283-2.542,0.705-3.808l0.07-0.24  l0.035-0.121c0.052-0.199,0.026-0.07,0.059-0.249c0.078-0.572-0.138-1.008-0.503-1.326c-0.353-0.306-0.929-0.431-1.403-0.244  c-0.124,0.043-0.211,0.095-0.326,0.166l-0.113,0.076l-0.227,0.152c-0.617,0.409-1.255,0.878-1.84,1.363  c-1.191,0.977-2.331,2.065-3.356,3.271c-1.008,1.218-1.894,2.556-2.578,3.982c-0.706,1.417-1.1,2.965-1.272,4.467  c-0.049,0.376-0.091,0.749-0.08,1.123l-0.005,0.555l0.002,0.236l-0.116,0.029c-0.341,0.088-0.669,0.18-0.988,0.274  c-1.282,0.38-2.458,0.844-3.507,1.348c-1.053,0.495-1.97,1.051-2.742,1.594c-0.783,0.528-1.387,1.096-1.869,1.564  c-0.472,0.482-0.807,0.89-1.011,1.185c-0.21,0.288-0.322,0.442-0.322,0.442s0.14-0.128,0.402-0.369  C16.092,39.481,16.509,39.167,17.03,38.776z M35.936,19.585c0-0.003,0-0.005,0.001-0.009c0.002-0.004,0.001-0.003,0.006-0.019  L35.936,19.585z M35.938,19.566c0.001-0.008,0-0.013,0.001-0.021C35.954,19.495,35.944,19.536,35.938,19.566z" stroke="none" fill="url('#linearGradientSjzt8cqfa89c')" style=""/></g></svg></g><g transform="matrix(1.1007,0,0,1.1007,25.6608,70.2629)" style="cursor: move; opacity: 1;" class="svg-clip svg-visible"><rect x="0" y="0" width="22" height="43" fill="none" style="" class="svg-hitbox"/><svg width="22.649313135478394" height="43.361" viewBox="0.9096868645216087,34.728,22.649313135478394,43.361"><desc>Created with Snap</desc><defs/><g/><g/><g><path d="M10.039,51.763c0.47-1,0.879-2.015,1.413-2.931c0.237-0.474,0.512-0.916,0.777-1.353c0.263-0.438,0.51-0.875,0.797-1.27  c0.541-0.813,1.094-1.556,1.611-2.242c0.544-0.662,1.04-1.279,1.512-1.8c0.474-0.517,0.888-0.975,1.25-1.33  c0.714-0.724,1.16-1.109,1.16-1.109s-0.131,0.067-0.376,0.193c-0.24,0.135-0.605,0.319-1.032,0.608  c-0.437,0.277-0.954,0.635-1.521,1.081c-0.573,0.441-1.191,0.974-1.839,1.588c-0.633,0.628-1.317,1.318-1.957,2.121  c-0.342,0.385-0.647,0.816-0.97,1.25c-0.334,0.427-0.639,0.888-0.926,1.372c-0.612,0.945-1.156,1.978-1.666,3.049  C7.82,52.087,7.353,53.2,7.027,54.363c-0.184,0.575-0.336,1.158-0.44,1.75c-0.115,0.589-0.248,1.172-0.345,1.756  c-0.071,0.588-0.132,1.172-0.182,1.75c-0.025,0.278-0.051,0.554-0.075,0.828c-0.016,0.288-0.033,0.575-0.049,0.859  c-0.089,2.235,0.057,4.306,0.299,6.065c0.243,1.758,0.587,3.198,0.889,4.184c0.13,0.497,0.291,0.874,0.374,1.136  c0.091,0.259,0.14,0.398,0.14,0.398s-0.044-0.583-0.122-1.604c-0.08-1.015-0.13-2.465-0.135-4.19  c0.019-1.726,0.091-3.738,0.312-5.86c0.031-0.26,0.062-0.522,0.093-0.786c0.042-0.276,0.085-0.554,0.127-0.834  C8,59.277,8.079,58.733,8.148,58.183c0.102-0.544,0.239-1.085,0.357-1.632c0.105-0.551,0.262-1.089,0.44-1.622  C9.224,53.839,9.641,52.796,10.039,51.763z" stroke="none" fill="url('#linearGradientSjzt8cqfa89f')" style=""/></g></svg></g><g transform="matrix(1.1007,0,0,1.1007,31.5492,94.3525)" style="cursor: move; opacity: 1;" class="svg-clip svg-visible"><rect x="0" y="0" width="20" height="27" fill="none" style="" class="svg-hitbox"/><svg width="20.353733856858735" height="27.96900000000001" viewBox="6.723266143141267,56.12599999999999,20.353733856858735,27.96900000000001"><desc>Created with Snap</desc><defs/><g/><g/><g><path d="M19.474,76.999c-0.686-0.698-1.413-1.561-2.092-2.558c-0.344-0.495-0.66-1.032-0.975-1.581  c-0.296-0.534-0.61-1.123-0.88-1.712c-0.555-1.18-1.068-2.39-1.504-3.549c-0.437-1.159-0.811-2.262-1.126-3.22  c-0.614-1.952-1.023-3.253-1.023-3.253s-0.058,0.344-0.106,0.949c-0.048,0.61-0.073,1.479,0.007,2.521  c0.068,1.042,0.249,2.254,0.571,3.525c0.313,1.273,0.772,2.607,1.375,3.883c0.308,0.64,0.634,1.25,1.028,1.861  c0.368,0.601,0.813,1.14,1.243,1.655c0.874,1.021,1.857,1.833,2.779,2.385c0.913,0.568,1.764,0.866,2.36,1.014  c0.293,0.089,0.539,0.11,0.699,0.138c0.161,0.025,0.247,0.038,0.247,0.038s-0.299-0.187-0.778-0.537  C20.813,78.215,20.164,77.692,19.474,76.999z" stroke="none" fill="url('#linearGradientSjzt8cqfa89i')" style=""/></g></svg></g><g transform="matrix(1.1007,0,0,1.1007,60.6415,51.4331)" style="cursor: move; opacity: 1;" class="svg-clip svg-visible"><rect x="0" y="0" width="19" height="20" fill="none" style="" class="svg-hitbox"/><svg width="19.369380894394496" height="20.56591722648492" viewBox="32.572000000000024,17.40108277351508,19.369380894394496,20.56591722648492"><desc>Created with Snap</desc><defs/><g/><g/><g><path d="M39.779,27.83c0.357-0.327,0.758-0.661,1.19-0.993c0.43-0.335,0.911-0.649,1.411-0.959c0.494-0.319,1.043-0.585,1.598-0.848  c0.091-0.04,0.181-0.083,0.272-0.125c-0.233,0.395-0.452,0.793-0.658,1.186c-0.591,1.171-1,2.35-1.184,3.4  c-0.204,1.045-0.17,1.949-0.064,2.552c0.036,0.303,0.122,0.534,0.168,0.689c0.048,0.154,0.073,0.235,0.073,0.235  s0.012-0.085,0.035-0.245c0.019-0.159,0.057-0.387,0.122-0.671c0.119-0.569,0.365-1.344,0.764-2.221  c0.401-0.877,0.955-1.852,1.615-2.863c0.324-0.507,0.704-1.01,1.068-1.522l0.286-0.383l0.151-0.199  c0.008-0.007,0.088-0.123,0.143-0.223c0.053-0.106,0.102-0.218,0.13-0.338c0.229-0.984-0.492-1.971-1.632-1.897  c-0.212,0.028-0.224,0.044-0.261,0.051l-0.111,0.035l-0.031,0.013l-0.062,0.025l-0.248,0.101l-0.495,0.203  c-0.335,0.122-0.64,0.312-0.955,0.468c-0.625,0.326-1.199,0.725-1.728,1.136c-0.54,0.397-1.003,0.856-1.414,1.307  c-0.423,0.44-0.765,0.908-1.055,1.349c-0.589,0.879-0.927,1.695-1.114,2.272c-0.185,0.581-0.221,0.927-0.221,0.927  S38.354,29.142,39.779,27.83z M45.542,24.381l0.01-0.004C45.574,24.372,45.58,24.372,45.542,24.381z" stroke="none" fill="url('#linearGradientSjzt8cqfa89l')" style=""/></g></svg></g><g transform="matrix(1.1007,0,0,1.1007,55.717,63.2635)" style="cursor: move; opacity: 1;" class="svg-clip svg-visible"><rect x="0" y="0" width="42" height="42" fill="none" style="" class="svg-hitbox"/><svg width="42.12310252443985" height="42.411" viewBox="28.35662959239449,28.354,42.12310252443985,42.411"><desc>Created with Snap</desc><defs/><g/><g/><g><path d="M51.822,39.963c-0.052-0.715-0.327-1.417-0.785-1.969c-0.46-0.549-1.042-0.972-1.656-1.304  c-0.618-0.329-1.242-0.62-1.884-0.89c-2.558-1.082-5.245-1.783-7.925-2.446l-0.048,0.194l3.878,1.465  c1.278,0.5,2.526,1.051,3.715,1.68c0.299,0.158,0.589,0.32,0.87,0.483c0.291,0.174,0.607,0.339,0.849,0.5  c0.519,0.326,0.949,0.711,1.228,1.11c0.272,0.404,0.381,0.811,0.379,1.279c-0.014,0.228-0.029,0.508-0.084,0.72  c-0.009,0.086-0.072,0.299-0.11,0.454c-0.026,0.076-0.096,0.112-0.123,0.175l-0.442,1.031l0.902,0.653  c1.274,0.921,2.615,1.561,3.861,2.184c0.623,0.313,1.237,0.595,1.807,0.907l0.417,0.233l0.397,0.237l0.737,0.471l0.012,0.011  l0.411,0.358l0.631,0.017l1.534,0.042l0.767,0.021l0.109,0.003c0.024,0.002,0.055,0.006,0.055,0.006l0.091,0.009l0.35,0.039  c0.45,0.058,0.856,0.123,1.174,0.223c0.184,0.058,0.379,0.129,0.524,0.261c-0.015-0.013-0.026-0.031-0.03-0.05  c0.023,0.035,0.046,0.07,0.07,0.105c0.054,0.281,0.012,0.633-0.135,0.882c0,0-0.08,0.135-0.08,0.135  c-0.057,0.073,0.011-0.005-0.109,0.136c-0.096,0.106-0.284,0.309-0.425,0.447c-0.304,0.304-0.623,0.574-0.919,0.781  c-0.142,0.103-0.299,0.198-0.404,0.252c-0.026,0.01-0.008,0.01-0.067,0.034l-0.159,0.066c-0.279,0.109-0.544,0.261-0.78,0.447  c-0.472,0.371-0.826,0.873-1.02,1.427c-0.099,0.303-0.154,0.51-0.175,0.919l-0.002,0.293c-0.004,0.133-0.068,0.247-0.065,0.236  c0.003-0.01,0.029-0.012-0.007,0.006c-0.06,0.03-0.125,0.049-0.19,0.065c-0.211,0.054-0.435,0.068-0.651,0.083  c-0.303,0.009-0.605,0.018-0.908,0.027c0,0-0.767,0.024-0.767,0.024c-0.133,0.015-0.453,0.004-0.67,0.008  c-0.97-0.005-1.962-0.057-2.973-0.121c-2.02-0.13-4.128-0.307-6.298-0.161c-1.079,0.065-2.208,0.211-3.258,0.453  c-1.076,0.244-2.122,0.616-3.122,1.078c-0.996,0.47-1.951,1.033-2.814,1.713c-0.862,0.689-1.613,1.477-2.277,2.359  c-0.623,0.832-1.206,1.825-1.527,2.843c-0.351,1.021-0.424,2.133-0.263,3.158l0.2-0.006c-0.051-1.011,0.156-2.019,0.552-2.947  c0.388-0.937,0.966-1.771,1.642-2.535c1.334-1.525,3.072-2.674,4.953-3.423c1.886-0.751,3.921-1.093,5.948-1.121  c2.035-0.038,4.068,0.188,6.106,0.375c1.02,0.094,2.043,0.178,3.071,0.215c0.514,0.025,1.039,0.011,1.544,0  c0.507-0.015,1.025,0.001,1.552-0.069c0.517-0.067,1.08-0.215,1.502-0.615c0.415-0.392,0.632-0.941,0.68-1.488  c0.017-0.304-0.009-0.5,0.078-0.708c0.074-0.207,0.207-0.391,0.38-0.525c0.161-0.14,0.388-0.185,0.65-0.317  c0.244-0.119,0.469-0.257,0.687-0.408c0.433-0.303,0.822-0.655,1.187-1.025c0.352-0.369,0.742-0.754,0.973-1.258  c0.234-0.491,0.347-1.032,0.336-1.574c0.003-0.529-0.201-1.135-0.585-1.519c-0.814-0.815-1.941-0.953-2.949-1.062  c-1.032-0.086-2.015-0.025-3.023-0.04l-0.028-0.023c-0.612-0.376-1.221-0.745-1.854-1.056c-0.63-0.316-1.272-0.6-1.911-0.883  c-1.242-0.549-2.487-1.092-3.614-1.825c0.14-0.295,0.222-0.593,0.259-0.9C51.833,40.675,51.839,40.32,51.822,39.963z" stroke="none" fill="url('#linearGradientSjzt8cqfa89o')" style=""/></g></svg></g><g transform="matrix(1.1007,0,0,1.1007,64.6885,69.0984)" style="cursor: move; opacity: 1;" class="svg-clip svg-visible"><rect x="0" y="0" width="17" height="14" fill="none" style="" class="svg-hitbox"/><svg width="17.650808805708124" height="14.711665929186204" viewBox="36.516000000000005,32.946429132062576,17.650808805708124,14.711665929186204"><desc>Created with Snap</desc><defs/><g/><g/><g><path d="M44.102,40.978c0.051,0.19,0.115,0.393,0.225,0.607c0.421,0.808,1.349,1.16,2.223,1.055  c0.557-0.067,1.049-0.252,1.494-0.486l0.334-0.188c0.018-0.001,0.384-0.228,0.535-0.492c0.348-0.523,0.347-1.236-0.058-1.769  c-0.324-0.361-0.344-0.298-0.458-0.397l-0.299-0.204c-0.193-0.143-0.413-0.249-0.623-0.363c-0.207-0.12-0.425-0.217-0.647-0.3  c-0.216-0.092-0.434-0.174-0.658-0.23c-0.437-0.134-0.877-0.211-1.293-0.242c-0.414-0.042-0.811-0.02-1.168,0.022  c-0.716,0.076-1.28,0.286-1.647,0.467c-0.368,0.185-0.546,0.341-0.546,0.341s0.942,0.019,2.127,0.333  c0.138,0.036,0.287,0.095,0.43,0.141C44.009,39.675,43.928,40.242,44.102,40.978z M45.54,39.864  c0.326,0.161,0.653,0.346,0.971,0.557c0.101,0.064,0.2,0.135,0.299,0.203c-0.203,0.114-0.401,0.214-0.575,0.27  c-0.273,0.066-0.385,0.132-0.625,0.031c0.009,0.018-0.098-0.024-0.188-0.108c-0.094-0.075-0.182-0.179-0.264-0.288  c-0.251-0.363-0.437-0.76-0.578-1.087C44.897,39.557,45.219,39.699,45.54,39.864z" stroke="none" fill="url('#linearGradientSjzt8cqfa89r')" style=""/></g></svg></g><g transform="matrix(1.1007,0,0,1.1007,28.1947,87.5681)" style="cursor: move; opacity: 1;" class="svg-clip svg-visible"><rect x="0" y="0" width="90" height="41" fill="none" style="" class="svg-hitbox"/><svg width="90.24526916038003" height="41.54281513493258" viewBox="3.6747308396199827,50.434,90.24526916038003,41.54281513493258"><desc>Created with Snap</desc><defs/><g/><g/><g><path d="M79.495,75.232c-1.969-0.286-4.204-0.559-6.66-0.673c-1.228-0.057-2.506-0.101-3.847-0.088  c-1.329,0.013-2.678,0.063-4.123,0.213c-2.849,0.317-5.801,1.076-8.688,2.19c-2.901,1.09-5.777,2.447-8.654,3.831  c-1.452,0.691-2.87,1.368-4.358,2.015c-1.449,0.62-2.898,1.164-4.434,1.507c-3.039,0.753-6.221,0.957-9.309,0.694  c-3.08-0.273-6.116-0.956-8.822-2.07c-0.669-0.244-1.364-0.604-2.039-0.912l-0.906-0.498c-0.303-0.177-0.589-0.376-0.884-0.561  c-1.146-0.784-2.154-1.717-3.002-2.741c-1.696-2.056-2.78-4.428-3.4-6.716c-0.645-2.287-0.819-4.498-0.954-6.465  c-0.12-1.964-0.104-3.684-0.027-5.098c0.088-1.412,0.203-2.523,0.32-3.274c0.111-0.753,0.196-1.152,0.196-1.152  s-0.121,0.388-0.302,1.13c-0.178,0.743-0.427,1.84-0.6,3.26c-0.176,1.419-0.311,3.155-0.327,5.151  c-0.003,1.982,0.009,4.277,0.585,6.722c0.53,2.436,1.552,5.048,3.348,7.368c0.891,1.158,1.97,2.234,3.214,3.151  c0.318,0.218,0.631,0.45,0.961,0.658c0.344,0.199,0.691,0.4,1.039,0.601c0.68,0.327,1.32,0.681,2.076,0.983  c2.908,1.256,6.065,2.078,9.355,2.382c3.282,0.303,6.674,0.113,9.953-0.673c1.639-0.373,3.242-0.989,4.761-1.654  c1.477-0.654,2.965-1.377,4.396-2.072c2.887-1.39,5.664-2.828,8.454-3.929c2.778-1.123,5.548-1.951,8.24-2.35  c1.328-0.191,2.695-0.282,3.992-0.356c1.286-0.076,2.547-0.097,3.757-0.101c4.839,0.029,8.885,0.416,11.698,0.793  c2.816,0.37,4.416,0.674,4.416,0.674s-1.558-0.477-4.351-1.058C83.17,75.828,81.464,75.52,79.495,75.232z" stroke="none" fill="url('#linearGradientSjzt8cqfa89u')" style=""/></g></svg></g><g transform="matrix(1.1007,0,0,1.1007,72.3165,41.1953)" style="cursor: move; opacity: 1;" class="svg-clip svg-visible"><rect x="0" y="0" width="55" height="56" fill="none" style="" class="svg-hitbox"/><svg width="55.53503748644023" height="56.6175416511028" viewBox="43.55499999999998,8.020458348897199,55.53503748644023,56.6175416511028"><desc>Created with Snap</desc><defs/><g/><g/><g><path d="M94.053,35.264c-0.18-3.434-1.128-6.882-2.77-9.973c-1.691-3.064-4.055-5.746-6.831-7.776  c-0.674-0.538-1.412-0.974-2.15-1.401c-0.711-0.46-1.528-0.783-2.302-1.148c-0.788-0.4-1.533-0.568-2.293-0.854l-0.611-0.204  l-0.602-0.141l-1.197-0.279c-3.198-0.666-6.412-0.587-9.32,0.025c-2.918,0.601-5.521,1.759-7.686,3.147  c-2.169,1.387-3.938,2.987-5.229,4.616c-0.709,0.761-1.188,1.619-1.72,2.335c-0.464,0.765-0.844,1.494-1.208,2.136  c-0.291,0.682-0.55,1.29-0.776,1.82c-0.228,0.526-0.324,1.004-0.452,1.376c-0.229,0.753-0.351,1.154-0.351,1.154  s0.157-0.389,0.453-1.118c0.161-0.358,0.301-0.829,0.573-1.328c0.26-0.501,0.56-1.076,0.895-1.721  c0.401-0.608,0.82-1.296,1.321-2.009c0.569-0.665,1.082-1.463,1.82-2.154c1.352-1.487,3.153-2.898,5.267-4.129  c2.124-1.217,4.628-2.183,7.374-2.664c2.744-0.481,5.725-0.43,8.673,0.232c0.715,0.209,1.509,0.329,2.174,0.609  c0.726,0.291,1.558,0.51,2.203,0.873c0.678,0.346,1.38,0.628,2.036,1.075c0.671,0.404,1.35,0.802,1.963,1.304  c2.535,1.881,4.687,4.356,6.218,7.174c1.518,2.825,2.414,5.979,2.6,9.131c0.181,3.161-0.279,6.27-1.362,9.146  c-1.051,2.8-2.64,5.327-4.544,7.361c-1.905,2.035-4.084,3.601-6.264,4.713c-2.187,1.095-4.353,1.83-6.338,2.148  c-0.982,0.24-1.931,0.233-2.798,0.345c-0.871,0.029-1.676,0.003-2.404,0.006c-0.725-0.072-1.372-0.137-1.935-0.193  c-0.567-0.045-1.032-0.185-1.42-0.246c-0.772-0.152-1.183-0.233-1.183-0.233s0.403,0.118,1.158,0.338  c0.381,0.096,0.84,0.279,1.404,0.376c0.565,0.101,1.215,0.216,1.943,0.346c0.737,0.047,1.555,0.128,2.449,0.159  c0.89-0.053,1.871,0.016,2.896-0.161c2.07-0.187,4.378-0.793,6.726-1.849c2.348-1.052,4.741-2.598,6.842-4.711  c2.104-2.098,3.929-4.741,5.13-7.811C93.605,42.125,94.257,38.692,94.053,35.264z" stroke="none" fill="url('#linearGradientSjzt8cqfa89x')" style=""/></g></svg></g><g transform="matrix(0.4763,0,0,0.4763,125,45)" style="pointer-events: fill; cursor: move; opacity: 1;" class="svg-text svg-visible"><path fill="none" style="" d="M1.12744140625,113.15899693965912 C171.72802734375,112.15899693965912 211.72802734375,112.15899693965912 382.32861328125,113.15899693965912"/><path d="M 27.86064366392967 64.61381011780718L 27.86064366392967 64.61381011780718Q 27.862804395821577 65.00380413216854  27.454860613544263 65.37606999214132Q 27.036861581363016 65.73839140897384  26.478809294490716 66.09148862663014Q 25.920701604236577 66.43458599776432  25.31270548813569 66.79796007885189Q 24.704764775416646 67.17133400646155  24.26665524342754 67.51376653701362L 24.26665524342754 67.51376653701362Q 23.440989445878195 68.29835304642937  23.176146104293334 69.22983466429316Q 22.911302762708473 70.16131628215696  22.91673229412916 71.14130124132141L 22.91673229412916 71.14130124132141Q 22.92293747289566 72.26128405179507  23.426171360738547 74.64853260486335Q 23.929405248581425 77.03578115793161  24.725515661420683 79.94141503207489Q 25.52157067087809 82.83704905969607  26.438621099473732 85.91201548413272Q 27.365671374591454 88.98692650518751  28.20973109491292 91.52228904110437Q 29.05373541185255 94.04765173049915  29.692701090602668 95.66413645402098Q 30.34161121249303 97.27056592763886  30.531608296412667 97.26951326338383L 30.531608296412667 97.26951326338383Q 30.781604459464823 97.26812817883774  31.453172708926445 95.74438407751525Q 32.1247963617699 94.23063982271485  33.091539912673696 91.83524697251555Q 34.05822806019565 89.42985427579417  35.18158954916036 86.42358433363812Q 36.31495088464715 83.41725898810022  37.44842302689763 80.43093333560645Q 38.58189516914811 77.44460768311274  39.63730765758643 74.80871988594679Q 40.69266474264291 72.16283224225873  41.47317863959244 70.44848161981633L 41.47317863959244 70.44848161981633Q 41.809405991378 69.76660834133179  42.14707383109149 69.34473107242147Q 42.48479707418684 68.93285365003324  42.8747910885482 68.93069291814133L 42.8747910885482 68.93069291814133Q 43.31478433551999 68.9282551693402  43.65705065592652 69.33636516176307Q 44.00937222623696 69.75441959732616  44.40313367056371 70.43224842893612L 44.40313367056371 70.43224842893612Q 45.24176385946449 71.98762600568854  46.39404591375163 74.20127594806148Q 47.55638321794271 76.42487033357469  48.839882151417534 78.85779665546958Q 50.123381084892365 81.29072297736447  51.4067692116035 83.70364960621518Q 52.6901019349328 86.1065763885438  53.770778365491864 88.03061860544918Q 54.86145464257302 89.95460541897269  55.61809153755075 91.15043174798475Q 56.3846728756687 92.33620282709289  56.63466903872086 92.3348177425468L 56.63466903872086 92.3348177425468Q 56.8246661226405 92.33376507829176  57.32640319137218 90.84096237402689Q 57.83814010662594 89.34810426638018  58.40544383046473 87.05492601667548Q 58.98269199744375 84.75169251706687  59.627279727748885 81.9680785607252Q 60.27186745805401 79.18446460438354  60.78778686473627 76.64156720853592Q 61.31370611794062 74.09861440930645  61.64273103008649 72.11676108295067Q 61.971755942232356 70.13490775659491  61.96771149535776 69.40491896048263L 61.96771149535776 69.40491896048263Q 61.96283599775551 68.52493246653904  61.65056921691525 68.11665626397067Q 61.328247186171055 67.69843561826204  60.49825992483789 67.70303409895507L 60.49825992483789 67.70303409895507Q 59.818270361336026 67.70680152892044  58.889115685509665 67.86195174126321Q 57.9599610096833 68.01710195360597  56.97997605051885 68.02253148502666L 56.97997605051885 68.02253148502666Q 56.39998495223785 68.0257448811736  56.12860401159542 67.77724460943122Q 55.85727847433484 67.53874418421093  55.85561637287953 67.23874878854834L 55.85561637287953 67.23874878854834Q 55.853455640987626 66.84875477418697  56.072399600218496 66.65753881586677Q 56.29128815606752 66.4563230110245  56.58078507477143 66.36471769425226L 56.58078507477143 66.36471769425226Q 57.409387251558485 66.11012305050707  59.53896673708995 66.02832320451974Q 61.65849097271749 65.93657891539219  64.97494960499397 65.28819466172862L 64.97494960499397 65.28819466172862Q 68.4416275486291 64.67897874342576  70.63743852984979 63.91680151026365Q 72.82319426116655 63.14467983396132  74.04317553686107 63.13792062137639L 74.04317553686107 63.13792062137639Q 75.1731581938568 63.13166003922804  75.17775667454984 63.9616473005612L 75.17775667454984 63.9616473005612Q 75.18152410451522 64.64163686406307  74.35319894463737 64.94623074041868L 74.35319894463737 64.94623074041868Q 73.61481700007647 65.24032613981564  72.47660740477764 65.56663721405256Q 71.32834255957488 65.88300384514928  69.96107835175941 66.38058658804408L 69.96107835175941 66.38058658804408Q 68.94303312487114 66.73623236126517  68.23542636722229 67.17015940182579Q 67.5278750129553 67.61408628890848  67.02126244662136 68.22690249922978Q 66.51464988028744 68.83971870955106  66.11953151700625 69.72192133876841Q 65.73441300024713 70.6040685646039  65.40090041417191 71.77593432267066L 65.40090041417191 71.77593432267066Q 65.0668891976601 72.85780146203868  64.5382551787454 74.91076178168592Q 64.01962100635282 76.96366669795131  63.34425808913561 79.60744901312931Q 62.67883961505865 82.24117607840336  61.86552877166047 85.25572836224434Q 61.05216252488044 88.26028079956325  60.20879673853415 91.26499944702768Q 59.37548620209178 94.27966253763236  58.51073563815522 97.03449582880833Q 57.64604047760051 99.79932896650638  56.80768823341036 101.90400602360121Q 55.959336142698135 104.00873848407788  55.216383883035824 105.28287424602112Q 54.463431776851415 106.55706541134619  53.87344083204833 106.56033421087497L 53.87344083204833 106.56033421087497Q 53.2434505011569 106.56382462393113  52.25792520380807 105.56926950314319Q 51.282399752981334 104.5746589789734  50.12349745846457 102.97105507782958Q 48.964595163947806 101.36745117668572  47.66309105917519 99.29463013634961Q 46.35164251126232 97.23186434591744  45.1197495084714 95.08865655625384L 45.1197495084714 95.08865655625384Q 42.1616495595235 90.02496771391425  38.85574295198471 83.55318422694319L 38.85574295198471 83.55318422694319Q 38.757628201746535 83.89373304251257  38.25533709919642 85.28653728155658Q 37.7530459966463 86.6793415206006  37.05374974627402 88.61324553947414Q 36.354453495901744 90.5471495583477  35.5367657853379 92.77171396694386Q 34.71907807477404 94.99627837554004  33.970170415464246 97.00045833697742Q 33.23131800605837 99.01458274155503  32.62997029577873 100.57793840529295Q 32.0286225854991 102.14129406903088  31.782116835503096 102.7726694844684L 31.782116835503096 102.7726694844684Q 31.013541903440178 104.83695933180198  30.125578250312515 107.01191233146064Q 29.237614597184844 109.1868653311193  28.367766922118662 111.02171274226332Q 27.49791924705248 112.85656015340734  26.76446820347566 114.04064189326996Q 26.040961603039083 115.21466838322866  25.55096912345686 115.21738314893899L 25.55096912345686 115.21738314893899Q 25.070976490396717 115.2200425112675  24.23312194884175 113.80466278582428Q 23.39532281066862 112.39928290690315  22.352318824160452 110.05502552254279Q 21.309370241034138 107.72076798470451  20.152489706053963 104.6771307809984Q 18.98555392116986 101.62354913415203  17.797344165459176 98.34008182406139Q 16.609079006366645 95.04661466744864  15.461145653653528 91.81292497644104Q 14.323156744080652 88.56918003552951  13.37776887737407 85.79437521690102Q 12.432325607285645 83.00957055175041  11.72097865746164 80.9634802514518Q 10.99963186111555 78.91744535453502  10.655038598671585 78.08934180818457L 10.655038598671585 78.08934180818457Q 10.00668251059966 76.58291079978751  9.073705001426076 76.04807160210635Q 8.150727338774582 75.51317700104332  7.020744681778835 75.51943758319166L 7.020744681778835 75.51943758319166Q 5.800763406084314 75.5261967957766  4.702442390110139 75.832286563442Q 3.6140658172762086 76.12832108120348  2.7340793233326197 76.13319657880572L 2.7340793233326197 76.13319657880572Q 2.2940860763608253 76.13563432760685  1.8527077448429372 75.88807591335582Q 1.4113848167068923 75.65051734562685  1.408116017178111 75.06052640082376L 1.408116017178111 75.06052640082376Q 1.4035175364850803 74.2305391394906  2.0316241523938263 73.88705394468353Q 2.669730614824658 73.5435133464946  3.6881082620039853 73.24786665240603L 3.6881082620039853 73.24786665240603Q 4.566986688310699 73.04299422436205  5.955081639898 72.69529837253484Q 7.353176438007386 72.34754711732577  9.010547001727044 71.86835736940166Q 10.667972968828549 71.39916746799963  12.44467685023112 70.79931472122837Q 14.221436135015532 70.20946182097917  15.777367745586393 69.47083009729927L 15.777367745586393 69.47083009729927Q 18.261068947437522 68.32705199822443  20.1153892555975 67.2967626239487Q 21.959654313853548 66.25652880653271  23.275201784221434 65.44922783836243Q 24.590693851207472 64.63192702367007  25.488131482630422 64.16694777928818Q 26.395513557193613 63.69191328500234  26.975504655474616 63.6886998888554L 26.975504655474616 63.6886998888554Q 27.36549866983598 63.6865391569635  27.6167137072887 63.90515069590331Q 27.857928898219328 64.12381763822496  27.86064366392967 64.61381011780718ZM 112.19326338663807 86.7002948578628L 112.19326338663807 86.7002948578628Q 112.87826858489252 87.81724063916302  113.4568101395166 89.7246707609691Q 114.02530704420694 91.62214573296676  114.03407805649212 93.58212610770104L 114.03407805649212 93.58212610770104Q 114.05000907880603 97.14209046181021  112.89259556150108 99.9572980829209Q 111.72518214432503 102.77255045409429  109.54379608459008 104.702331493071Q 107.35245487504673 106.64215718198149  104.2570951714638 107.68601938813472Q 101.16169071781823 108.71988169441691  97.30172936757624 108.7371552186112L 97.30172936757624 108.7371552186112Q 91.73178513937732 108.76208100352369  87.35341588392583 106.90165560514912Q 82.97504662847435 105.04123020677454  79.97999569576557 101.68459946889465Q 76.99498941299056 98.33792388082313  75.40410685395759 93.67499640086328Q 73.82326894485838 89.02202407071185  73.7983431599459 83.45207984251293L 73.7983431599459 83.45207984251293Q 73.7758338784181 78.42213020735304  74.83747553879756 74.31733825343542Q 75.88911729930592 70.2125910495805  77.73468915514647 66.98429977943009Q 79.5702611111159 63.75605325934236  81.99949666461956 61.34515827498619Q 84.42877696818589 58.944263190501104  87.16176852308745 57.372017293436365Q 89.88476017811789 55.79981614643432  92.71133083687361 55.02715948849293Q 95.54790139550045 54.25445808048886  98.17787506159797 54.24268881400415L 98.17787506159797 54.24268881400415Q 100.7678491282111 54.23109854777015  103.5509090466999 54.908651121450674Q 106.34392411499712 55.57615904519742  108.67132939549556 57.22576040925725Q 110.99873467599397 58.875361773317074  112.50084702377302 61.578666879044086Q 113.99295947168098 64.28201673483379  114.01130699737958 68.381975681982L 114.01130699737958 68.381975681982Q 114.02723801969348 71.9419400360912  112.98928630008949 74.63661185799661Q 111.9513345804855 77.33128367990203  110.26007786462216 79.28887166542073Q 108.55882124888772 81.24650440100211  106.3845263349497 82.52624719829508Q 104.22023132088277 83.80594524552538  101.95365505490824 84.57609589995673Q 99.68707878893372 85.34624655438806  97.51839826872423 85.64595441425121Q 95.3397178486436 85.94570702417705  93.67973447004212 85.95313553458185L 93.67973447004212 85.95313553458185Q 91.28975840085084 85.96383079956226  89.01825962798158 85.63399246817335Q 86.74676085511231 85.30415413678442  85.47502831903897 84.91984129977209L 85.47502831903897 84.91984129977209Q 85.69207609034173 88.72890814940502  86.70790759963961 92.26439769750405Q 87.72373910893748 95.7998872456031  89.58571360188783 98.47158164946038Q 91.45773274477196 101.15323120312607  94.2249098692851 102.75086406507253Q 96.99208699379822 104.34849692701899  100.70204984597382 104.33189465376488L 100.70204984597382 104.33189465376488Q 103.29202391258696 104.32030438753088  105.16806708283669 103.43190018709093Q 107.0441102530864 102.54349598665097  108.25743027802054 101.04805139821119Q 109.47075030295466 99.5526068097714  110.04201823325556 97.6000308312728Q 110.62328606342756 95.64741010271153  110.61366479995147 93.49743163042649L 110.61366479995147 93.49743163042649Q 110.60798154199117 92.22744434679765  110.43185248559546 90.85821881552343Q 110.2557234291998 89.48899328424922  109.81026832722479 88.27097450273375L 109.81026832722479 88.27097450273375Q 109.50700457651638 87.54232431402433  109.31418722501681 86.91318087333636Q 109.11132522358345 86.27408228284  109.10957997113896 85.88408618786735L 109.10957997113896 85.88408618786735Q 109.10519446499636 84.90409600050022  109.98518565365256 84.90015799498441L 109.98518565365256 84.90015799498441Q 110.42518124798067 84.89818899222651  111.03714414287526 85.33545483273117Q 111.64910703776985 85.77272067323582  112.19326338663807 86.7002948578628ZM 85.27057595124272 81.69072389259989L 85.27057595124272 81.69072389259989Q 86.54230848731606 82.07503672961222  88.15350061825441 82.33782926604034Q 89.76469274919276 82.60062180246845  92.20466831773952 82.58970278717464L 92.20466831773952 82.58970278717464Q 95.0346399812589 82.57703851943634  97.41982779374345 81.49635396824895Q 99.81497075603644 80.40562476712782  101.51631687189625 78.46799183128863Q 103.20770783794762 76.54040354538321  104.17543650814056 73.79604547456108Q 105.14320992839619 71.06168730361003  105.1281291572732 67.6917210470516L 105.1281291572732 67.6917210470516Q 105.11479363859469 64.71175088546582  104.4457159843786 62.684724715770756Q 103.77668308022517 60.667698445946776  102.7012342863713 59.45249891838011Q 101.61578559264635 58.237344140876125  100.22347250730503 57.72356960629173Q 98.83120417202643 57.21979497157844  97.36121889097574 57.226373230792326L 97.36121889097574 57.226373230792326Q 95.51123741482348 57.23465199238804  93.36627094955854 58.36426204142658Q 91.22134923435628 59.5038719903362  89.40380807537113 62.29203341597047Q 87.586266916386 65.08019484160474  86.40735621137685 69.79551768841118Q 85.2384901563015 74.52079568502604  85.27057595124272 81.69072389259989ZM 134.1385599639075 50.20392062019915L 134.1385599639075 50.20392062019915Q 134.14031571613305 50.78391796272248  134.09349446218587 51.834064509723795Q 134.05667316242008 52.88418078513504  134.06006358051076 54.00417565345594L 134.06006358051076 54.00417565345594Q 134.0643621463043 55.424169147219956  134.2391745502139 57.013647245036765Q 134.41395668253332 58.59312538867214  134.688042110095 59.94230187023352Q 134.95209731188513 61.28150866920356  135.22482051789248 62.1806872126003Q 135.49757399548997 63.089865710178465  135.69757307911868 63.08926027837656L 135.69757307911868 63.08926027837656Q 135.88757220856598 63.08868511816475  136.25327194748562 61.667571575567216Q 136.60897173222378 60.246488304559776  137.3124903588254 58.104348826835555Q 138.01597871383694 55.95220939492991  139.12849649940432 53.47883029402438Q 140.25104451074327 51.01542087571019  141.9945281006242 48.86013319843463Q 143.74801164468656 46.70481524956898  146.21370176170788 45.27734467305144Q 148.6694221961379 43.85990432230543  152.03940675528207 43.84970279644333L 152.03940675528207 43.84970279644333Q 155.16939241407175 43.84022778874352  157.2926217606765 44.90380530905705Q 159.4258510614627 45.96735255778049  160.7007492401006 47.583500643231126Q 161.97561714714837 49.18964877450034  162.51130577770243 51.068035766335385Q 163.05699436243793 52.946392486580336  163.06201944639375 54.606384880698826L 163.06201944639375 54.606384880698826Q 163.06985978822843 57.19637301369093  162.395675049189 59.118422684653254Q 161.71152062755826 61.05050258138711  160.57537034281657 62.32394772370042Q 159.42922010389347 63.59742313760383  157.96122476416855 64.26187003732265Q 156.5032293786251 64.9262866654514  154.9832363430467 64.93088794714588L 154.9832363430467 64.93088794714588Q 152.20324908060732 64.93930344919235  150.43926129478191 63.62463729709947Q 148.6852734631379 62.30994087341651  148.6775844792537 59.76995251133159L 148.6775844792537 59.76995251133159Q 148.67346754300075 58.4099587426562  149.03049927770314 57.428873455631965Q 149.39753096658694 56.44775789701765  150.0054697035281 55.765914445684146Q 150.61340844046927 55.08407099435064  151.4619817811569 54.61150006266501Q 152.3205853476161 54.14889881357074  153.33970279800985 53.85581244011935L 153.33970279800985 53.85581244011935Q 155.43775579434543 53.2094583385874  156.1949370542558 52.27716195886656Q 156.95214858575622 51.35486553332714  156.9484554517646 50.134871123191864L 156.9484554517646 50.134871123191864Q 156.94621535409755 49.39487451376555  156.67415812307226 48.71569496236042Q 156.402100892047 48.036515410955296  155.79037820634392 47.46836458960922Q 155.178685792231 46.910213722444574  154.22766091093123 46.57309108133477Q 153.2666360754501 46.235998711815085  151.9066423067747 46.24011564806804L 151.9066423067747 46.24011564806804Q 149.11665509015387 46.248561421704615  147.02056974717445 47.544912545029945Q 144.92451467578513 48.85126362253672  143.37109075853166 51.02597604796334Q 141.81766684127822 53.20068847338996  140.7962384205872 56.03379348051636Q 139.7848402256677 58.8768681702341  139.15422735098528 61.97879134824556Q 138.53361443048428 65.08068425466695  138.27315121846553 68.23148715475207Q 138.01268800644675 71.3822900548372  138.02095215054274 74.11227754636941L 138.02095215054274 74.11227754636941Q 138.02848977647648 76.60226613754715  138.23729789282294 79.51164737254332Q 138.43607578339785 82.41105892494815  138.76494389310173 85.34007680922603Q 139.0938120028056 88.26909469350394  139.4922257179281 91.04790136392964Q 139.89066970464071 93.83670798853674  140.25760024930426 96.12560771884233Q 140.63456101973932 98.42447713173924  140.92958477495682 100.08359164974496Q 141.23460848435573 101.74267589616059  141.37651495307185 102.37224920732979L 141.37651495307185 102.37224920732979Q 141.92317222869036 104.5706044613807  143.07574004471368 105.41711933394187Q 144.22833813232714 106.27363416068447  146.12832942680012 106.26788255856636L 146.12832942680012 106.26788255856636Q 146.95832562385934 106.26537001658845  147.85817014223815 106.21264580257271Q 148.7680146147984 106.15989131696686  149.2080125987816 106.15855936700267L 149.2080125987816 106.15855936700267Q 150.51800659654984 106.15459378870018  150.52097321237918 107.13458929848098L 150.52097321237918 107.13458929848098Q 150.5233343964066 107.91458572463303  149.794064259324 108.15679445106448L 149.794064259324 108.15679445106448Q 149.21482370655303 108.40854905782592  147.72498189146947 108.46305929565729Q 146.2351098047958 108.50756957930724  144.25527023482178 108.56356312505328Q 142.2754306648478 108.61955667079931  139.98574387319977 108.7264884067455Q 137.68605712737028 108.83345041428178  135.53679349652364 109.07995770650675L 135.53679349652364 109.07995770650675Q 133.14768232327307 109.37719128780118  130.90926670931617 109.90396974141721Q 128.6608208695878 110.42077851244193  126.7622220682592 110.88652800690612Q 124.85365358433928 111.36230772714183  123.39468950791277 111.70672582146459Q 121.92572547730481 112.05117418737744  121.04572950933837 112.05383808730582L 121.04572950933837 112.05383808730582Q 120.11573377046477 112.05665334518467  119.77455473628221 111.66768436617188Q 119.43337570209964 111.27871538715908  119.43204375213546 110.83871740317588L 119.43204375213546 110.83871740317588Q 119.42983392605849 110.10872074793099  120.03886244024308 109.78687564712921Q 120.6478909544277 109.46503054632743  121.72685677195962 109.1217627724283L 121.72685677195962 109.1217627724283Q 122.55612645085657 108.87925133009591  123.69530389460778 108.60580160592626Q 124.84448129254042 108.3323216101665  126.40241567671806 107.64760235777396L 126.40241567671806 107.64760235777396Q 127.97031974348707 106.95285287960986  128.57686598728384 105.81101153593028Q 129.1833819594905 104.65917023806924  129.1762681358181 102.30918100543161L 129.1762681358181 102.30918100543161Q 129.17405830974116 101.57918435018675  129.06882178284033 99.84949499269915Q 128.96358525593948 98.11980563521155  128.7863208532322 95.72033124869837Q 128.609086722115 93.33085681636662  128.38043005535616 90.47153589545782Q 128.1518036601874 87.62221492873046  127.90269301121425 84.6129552382803Q 127.64361267964976 81.61372577360169  127.36459298290256 78.63455676046613Q 127.0855732861554 75.65538774733055  126.83767350078605 73.0461262241379Q 126.5897737154167 70.43686470094518  126.36356904745557 68.38754006873276Q 126.13736437949444 66.33821543652034  125.98367193278128 65.1186751002365L 125.98367193278128 65.1186751002365Q 125.78922287958999 63.6492569957771  125.3866516271744 62.800471753958796Q 124.9940500573502 61.94165628636895  124.46272053576985 61.50326269666079Q 123.92142133159817 61.07489933272416  123.21103105404492 60.94704921126224Q 122.50067104808178 60.82919904398177  121.67067485102253 60.83171158595967L 121.67067485102253 60.83171158595967L 119.67068401473519 60.83776590397872Q 119.43068511438071 60.83849242214101  119.06062626648738 60.81961256261166Q 118.70053710118536 60.79070247731078  118.35017544575395 60.67176253278687Q 118.00981374450393 60.55279231667287  117.78905796275995 60.30345943711905Q 117.56833245260606 60.064126511746665  117.56715186059235 59.67412829867063L 117.56715186059235 59.67412829867063Q 117.5655171947272 59.13413077287305  118.00478866054813 58.89279992255438Q 118.44402985477896 58.641469118054275  119.08375447808005 58.549532148655246L 119.08375447808005 58.549532148655246Q 121.52283515064775 58.24214725522891  123.49122173011574 57.70618618036399Q 125.46957799217503 57.16019487972755  127.37527067503592 55.73441951225534L 127.37527067503592 55.73441951225534Q 128.54248032797526 54.81088195152202  129.82781259250592 53.26698397245848Q 131.12314481121805 51.723055721804855  131.94796456637096 50.01055101480127L 131.94796456637096 50.01055101480127Q 132.52426877490268 48.788800852440474  133.21426561342182 48.7867121127239L 133.21426561342182 48.7867121127239Q 133.84426272685232 48.7848050025479  133.99574534748854 49.27434868358687Q 134.13722801394331 49.76392263621593  134.1385599639075 50.20392062019915ZM 197.10342393476154 86.520545320903L 197.10342393476154 86.520545320903Q 197.78428436427424 87.6400224647178  198.3557518779726 89.54958390148472Q 198.91721171042448 91.44915302540286  198.9187178134009 93.40915244674305L 198.9187178134009 93.40915244674305Q 198.92145338819475 96.96915139570787  197.75361299349865 99.78004961736515Q 196.5757726017549 102.59095552322128  194.38724861449964 104.51263779592101Q 192.18873231439562 106.44432774986724  189.0895247021054 107.47670954742195Q 185.9903094056163 108.499091347929  182.13031054522185 108.50205744868863L 182.13031054522185 108.50205744868863Q 176.5603121896786 108.50633754745319  172.18886885046828 106.6296960973957Q 167.817425511258 104.75305464733822  164.8348368160416 101.38534553353885Q 161.86225580207167 98.02762873258831  160.28866774472274 93.35883653055478Q 158.72508736862036 88.70003664137009  158.7208072698558 83.13003828582684L 158.7208072698558 83.13003828582684Q 158.71694211782966 78.1000397708569  159.79379127744403 73.99921108784199Q 160.8606404400107 69.89839008902591  162.7181655788417 66.67696177869354Q 164.56569072062504 63.45554115256002  167.00384579252642 61.05366691660143Q 169.44200854862663 58.6617926776905  172.1808090046618 57.09968766776906Q 174.90960946364928 55.53759034204649  177.73902462902208 54.775415938147646Q 180.5784397914425 54.01323385004994  183.20843901497548 54.01121290574998L 183.20843901497548 54.01121290574998Q 185.79843825031787 54.00922269824545  188.57896763928696 54.69708628725073Q 191.36948934110484 55.37494219500949  193.69076423317114 57.03315897078472Q 196.01203912523752 58.69137574655995  197.50412110322878 61.400230000844154Q 198.98620308417236 64.10909193932721  198.98935360570462 68.20909072886535L 198.98935360570462 68.20909072886535Q 198.99208918049848 71.76908967783015  197.94415653998797 74.45989572452929Q 196.8962238994774 77.1507017712284  195.19772282015379 79.102007509327Q 193.4892217437825 81.05332093162443  191.31019828064905 82.32499571202779Q 189.14117481456327 83.59666280823228  186.87175948385908 84.358406896995Q 184.60234415315495 85.12015098575773  182.43256763558094 85.41181837129216Q 180.2527911209593 85.70349344102542  178.59279161104874 85.70476901803603L 178.59279161104874 85.70476901803603Q 176.20279231665944 85.70660554156338  173.9325317240808 85.36834995508417Q 171.66227113150214 85.03009436860496  170.3919718226946 84.64107037700158L 170.3919718226946 84.64107037700158Q 170.594899443413 88.45091556818055  171.59761935457453 91.99014610316414Q 172.60033926573607 95.52937663814772  174.4523980848463 98.20795427013005Q 176.31446458520307 100.89652421496115  179.0757009263719 102.5044029007483Q 181.83693726754072 104.11228158653546  185.54693617222034 104.10943074875871L 185.54693617222034 104.10943074875871Q 188.1369354075627 104.10744054125419  190.01625864302204 103.22599617167512Q 191.8955818784814 102.34455180209603  193.11443657266517 100.85361476973478Q 194.33329126684893 99.36267773737352  194.91179267683532 97.41223262954718Q 195.50029408386933 95.46177983752196  195.49864198111462 93.31178047227635L 195.49864198111462 93.31178047227635Q 195.4976660878595 92.0417808472243  195.3266134028057 90.6719118830763Q 195.15556071775185 89.30204291892831  194.71462337539427 88.08238138386434L 194.71462337539427 88.08238138386434Q 194.41406251744795 87.35261212535138  194.2235784690144 86.7227583111275Q 194.0230867393343 86.08291218405483  194.0227870555788 85.69291229919634L 194.0227870555788 85.69291229919634Q 194.0220340040906 84.71291258852625  194.90203374428418 84.71223637902665L 194.90203374428418 84.71223637902665Q 195.34203361438094 84.71189827427685  195.95237153903764 85.1514294082432Q 196.56270946369432 85.59096054220956  197.10342393476154 86.520545320903ZM 170.19948988255763 81.41121733038767L 170.19948988255763 81.41121733038767Q 171.4697891913652 81.80024132199105  173.07999618940667 82.06900408626139Q 174.69020318744816 82.33776685053174  177.13020246707575 82.33589190601009L 177.13020246707575 82.33589190601009Q 179.9602016315618 82.33371727773294  182.3493787166732 81.26188107010663Q 184.7485481146333 80.1800371812338  186.4570645594023 78.24872375303167Q 188.15558869132255 76.32741800607606  189.13348293150523 73.58666576353066Q 190.11138485588677 70.85591351803293  190.10879528087122 67.48591451297355L 190.10879528087122 67.48591451297355Q 190.1065053896112 64.50591539277268  189.4449456920976 62.47642314922362Q 188.7833936787829 60.45693090272223  187.7124565224231 59.23775347218637Q 186.63151936901565 58.01858372584938  185.24112020105107 57.499651983012804Q 183.85072871728536 56.990720237223876  182.38072915128024 56.991849814456174L 182.38072915128024 56.991849814456174Q 180.53072969746424 56.993271391245116  178.38159096249086 58.11492316333709Q 176.23245991171635 59.2465749324767  174.40459665927852 62.02798032011573Q 172.5767334068407 64.80938570775476  171.38035301878492 69.52030642106288Q 170.1939803119756 74.24121944721979  170.19948988255763 81.41121733038767ZM 227.66035319833512 64.05619532524135L 227.66035319833512 64.05619532524135Q 227.65939530954003 64.44619414889222  227.24848777992196 64.81518602157125Q 226.82760484171786 65.17415336316193  226.2667468870441 65.52277687739921Q 225.7059134936215 65.8614004217993  225.09503112851053 66.219901099618Q 224.48412420214845 66.5884017472739  224.04329044677223 66.92732002668788L 224.04329044677223 66.92732002668788Q 223.21137717269428 67.7052790901436  222.9390937907323 68.63461313122212Q 222.66681040877032 69.56394717230066  222.66440340615696 70.5439442163464L 222.66440340615696 70.5439442163464Q 222.66165254602743 71.66394083811298  223.14578092902386 74.05513713051081Q 223.62990931202032 76.4463334229087  224.40275963523544 79.35824042312456Q 225.1756345197018 82.26014745350324  226.0680669396937 85.34234867596541Q 226.9704993295228 88.42457445967878  227.7942582682167 90.96660538217395Q 228.61804176816185 93.49863633483196  229.2440609452182 95.12017880728149Q 229.8801046533629 96.73174587114497  230.07010408026972 96.73221253491694L 230.07010408026972 96.73221253491694Q 230.32010332619976 96.73282656619585  231.00383458530527 95.21450131601986Q 231.68754128315962 93.70617603568107  232.6734084662318 91.31859024720325Q 233.65930021055516 88.9210044888882  234.8066651473431 85.92381352035957Q 235.96403005396826 82.92664711308211  237.12134583809112 79.94948064547906Q 238.27866162221395 76.97231417787599  239.3551180038487 74.34495016456572Q 240.43159894673462 71.70758618141826  241.22579653782134 69.99953167809817L 241.22579653782134 69.99953167809817Q 241.56746567736485 69.32036881170777  241.90849622437824 68.90120516108463Q 242.24950221014055 68.4920414802987  242.63950103379142 68.49299936909381L 242.63950103379142 68.49299936909381Q 243.0794997066283 68.4940800641447  243.4184916697957 68.90491391000928Q 243.7674590415492 69.32577228696222  244.1557877001214 70.00672812468704L 244.1557877001214 70.00672812468704Q 244.98195364142873 71.56876200313648  246.11649760511293 73.79155528962708Q 247.26101697738318 76.02437310720605  248.52502020142558 78.46748502638013Q 249.78902342546797 80.9105969455542  251.05307577201268 83.33370892505388Q 252.31715267980852 85.74682093471635  253.38240913091587 87.67944316717002Q 254.45766555186043 89.61208996087484  255.20471593951177 90.81392843517578Q 255.96179085825142 92.00579150089067  256.2117901041815 92.00640553216958L 256.2117901041815 92.00640553216958Q 256.40178953108835 92.00687219594155  256.9154476192079 90.51812931400751Q 257.4391056771647 89.02941099332462  258.0247284542373 86.74084245317253Q 258.62037576239817 84.4422985044344  259.28720179947504 81.66392793226869Q 259.95402783655186 78.885557360103  260.49026479571734 76.34686676776509Q 261.03650172472 73.80820073667834  261.3813638269139 71.82904179145174Q 261.7262259291077 69.84988284622517  261.7280189004422 69.11988504810944L 261.7280189004422 69.11988504810944Q 261.73018029054396 68.2398877024357  261.4211882368881 67.82912754032458Q 261.10222077464624 67.40834284712511  260.27222327815855 67.40630426327911L 260.27222327815855 67.40630426327911Q 259.5922253292288 67.40463409820046  258.6618597156017 67.55234944940092Q 257.7314941019746 67.70006480060137  256.7514970579289 67.69765779798803L 256.7514970579289 67.69765779798803Q 256.17149880737117 67.69623324542094  255.90211365304563 67.44557084570967Q 255.63270393746893 67.20490841583562  255.63344077500363 66.90490932071957L 255.63344077500363 66.90490932071957Q 255.63439866379872 66.51491049706871  255.85486466398916 66.32545141768733Q 256.0753552254307 66.12599236846873  256.36557540197 66.03670491621746L 256.36557540197 66.03670491621746Q 257.19618692973665 65.78874425413342  259.32635243381867 65.72397601176935Q 261.4465425293147 65.64918323831694  264.76807987408847 65.02733947395724L 264.76807987408847 65.02733947395724Q 268.2395185214156 64.44586400771368  270.44135397943677 63.70126974517802Q 272.6332140288718 62.946650951554  273.8532103490104 62.949647424195106L 273.8532103490104 62.949647424195106Q 274.9832069406142 62.952422845575796  274.9811683567682 63.782420342063524L 274.9811683567682 63.782420342063524Q 274.9794981916895 64.46241829099324  274.14876385766706 64.76037880226329L 274.14876385766706 64.76037880226329Q 273.4080538134306 65.04856039495654  272.2672712919527 65.36575944711514Q 271.11651336188856 65.67293396818536  269.74531399288526 66.1595675987998L 269.74531399288526 66.1595675987998Q 268.7244574257002 66.50706129548388  268.0134034334592 66.93531614965143Q 267.30232487996705 67.3735709736562  266.79082818194917 67.9823165099165Q 266.2793314839313 68.59106204617682  265.8771713003415 69.47007694180428Q 265.4850110865888 70.34911639868292  265.1421384457387 71.51827778709618L 265.1421384457387 71.51827778709618Q 264.7994868561489 72.59743944697462  264.2544534284529 74.6461069560385Q 263.7194199705941 76.69479902635352  263.0229378815219 79.33309633704494Q 262.33648032353796 81.9614182391503  261.49908989045207 84.96937057630198Q 260.6617240186174 87.96732294361647  259.79435823727107 90.96520162717746Q 258.93696786451085 93.97310484182685  258.05021617476893 96.7209351569555Q 257.163439923776 99.47876544192135  256.308284624871 101.57667140138538Q 255.4431293561288 103.67455279959825  254.6900123394418 104.9427068750861Q 253.9268953529176 106.21083638932282  253.3368971325227 106.20938727550458L 253.3368971325227 106.20938727550458Q 252.706899032779 106.2078399166817  251.72935811384892 105.2054359303482Q 250.761817164756 104.20305650526585  249.61577499491406 102.59023681759338Q 248.46973282507207 100.97741712992091  247.18484545631364 98.89425500238379Q 245.88993355646684 96.8210682834327  244.67521790532692 94.66807829579325L 244.67521790532692 94.66807829579325Q 241.7577038586144 89.58089717190596  238.5036539738501 83.08288521843392L 238.5036539738501 83.08288521843392Q 238.40281919293878 83.42263858038721  237.88940671733073 84.81138176394924Q 237.37599424172268 86.20012494751128  236.66125606180813 88.12837527725905Q 235.9465178818936 90.05662560700685  235.11106778764912 92.2745803270196Q 234.2756176934046 94.49253504703236  233.51070773554596 96.49066235938477Q 232.75577318627336 98.49881420282556  232.14194347102364 100.05731126110844Q 231.52811375577392 101.61580831939135  231.276567151021 102.24519238785612L 231.276567151021 102.24519238785612Q 230.49150988598103 104.30327039672943  229.5861828091319 106.47105333879809Q 228.68085573228277 108.63883628086674  227.79636367764738 110.46666937097285Q 226.911871623012 112.29450246107896  226.16897562742258 113.47268136928317Q 225.43610416292157 114.64088486890131  224.94610564089868 114.63968136759465L 224.94610564089868 114.63968136759465Q 224.46610708871302 114.63850242753912  223.6395972898895 113.2164681268105Q 222.81306292981486 111.8044337959191  221.78883793060487 109.45191107530756Q 220.76458837014377 107.10938832453327  219.63208299030555 104.05659754155492Q 218.4896022018813 100.99378222748824  217.32768638255922 97.7009184846636Q 216.16579512448834 94.39805477200176  215.04375637825927 91.15528912336774Q 213.9317421631186 87.90254806614769  213.0085729960804 85.12027225504808Q 212.08542839029332 82.32799647411127  211.39046555817632 80.27628336990396Q 210.6855027562221 78.22454570444553  210.34754236560326 77.39371312541847L 210.34754236560326 77.39371312541847Q 209.711253044947 75.88214575992703  208.7825821576497 75.33986319236057Q 207.8639112401896 74.79760518604526  206.73391464858582 74.79482976466457L 206.73391464858582 74.79482976466457Q 205.51391832844723 74.79183329202345  204.41318480882035 75.0891306495123Q 203.32247582028185 75.37645259841507  202.4424784746081 75.37429120831328L 202.4424784746081 75.37429120831328Q 202.00247980177124 75.37321051326239  201.5630951602133 75.12213057228146Q 201.1236859574042 74.88105060113774  201.12513507122245 74.29105238074284L 201.12513507122245 74.29105238074284Q 201.12717365506842 73.4610548842551  201.75800683735145 73.12260326861312Q 202.39883998947164 72.78417621422228  203.4195491891498 72.49668233656142L 203.4195491891498 72.49668233656142Q 204.30003775984665 72.29884432991916  205.690868649757 71.96225936936509Q 207.09169950950454 71.62569897006216  208.75284888128436 71.15977755540567Q 210.41397369181303 70.7038561105864  212.19541743665314 70.11822979289737Q 213.97683662024212 69.54260344504556  215.53862488617997 68.81643720211027L 215.53862488617997 68.81643720211027Q 218.03139279702387 67.69255636204448  219.89389243436136 66.67712783136506Q 221.74641666311277 65.65167476959726  223.0683775817159 64.85491926777381Q 224.39036306157018 64.04816379611314  225.29149016447155 63.59037569620596Q 226.20264179846126 63.12261218771274  226.78264004901897 63.12403674027982L 226.78264004901897 63.12403674027982Q 227.1726388726698 63.124994629074926  227.4220977710744 63.34560799677228Q 227.6615566996418 63.566196803218475  227.66035319833512 64.05619532524135ZM 275.2916321140773 82.61333796166747L 275.2916321140773 82.61333796166747Q 275.317283657868 77.14339810840573  277.047992428002 72.7314657479789Q 278.7787011981359 68.31953338755207  281.9132981193066 65.21419892218654Q 285.05794182548107 62.098911461739704  289.48577157776356 60.439657507457326Q 293.91364822500736 58.77040366313243  299.28358917784385 58.79558625731092L 299.28358917784385 58.79558625731092Q 304.1135360683839 58.8182365235832  308.18589422201586 60.45735185465273Q 312.24829938056655 62.08642040071851  315.2141981248715 65.10036211192174Q 318.18009686917634 68.11430382312497  319.85005413791964 72.39218211973085Q 321.5099646216592 76.680013411418  321.48501650228684 81.99995491404185L 321.48501650228684 81.99995491404185Q 321.4554726767143 88.29988564083325  319.3644396003208 92.78012901295362Q 317.26340663388476 97.26032549011275  313.9999366212307 100.12505295996172Q 310.74646649861904 102.98982732477194  306.7301797718006 104.32100760106121Q 302.72393982998585 105.64223488226922  298.8639822735708 105.62413342723589L 298.8639822735708 105.62413342723589Q 294.2240332938387 105.6023741652269  289.9613020697089 104.04236695023427Q 285.6985708455792 102.48235973524166  282.4423470253124 99.53705730046055Q 279.17612331500317 96.5917079707182  277.2261691250691 92.312516615198Q 275.2662150450926 88.0332783647166  275.2916321140773 82.61333796166747ZM 298.58463982731536 60.702329503108786L 298.58463982731536 60.702329503108786Q 295.8046703954931 60.68929270388789  293.7681743172499 62.069757742670085Q 291.7416781290491 63.4502696764135  290.41057853762504 65.81405348161032Q 289.07947894620105 68.17783728680712  288.45471374082064 71.32494205756802Q 287.82994853544034 74.47204682832893  287.813722878856 77.93200878304295L 287.813722878856 77.93200878304295Q 287.8002171300229 80.81197711529043  288.1264731678295 83.74353932643226Q 288.45272920563605 86.67510153757408  289.1500128641631 89.38840128134571Q 289.8472965226901 92.10170102511732  290.8861708713447 94.47659893612476Q 291.9250452199994 96.8514968471322  293.3767756530323 98.6183241589558Q 294.8385059761079 100.38519836574065  296.71379580798015 101.39400362270379Q 298.5890856398524 102.40280887966694  300.8790604595909 102.41354782578775L 300.8790604595909 102.41354782578775Q 303.8590276922636 102.42752252423317  305.89533619066196 101.08705704562107Q 307.9215979040565 99.75654456209028  309.16176058587337 97.59233650309297Q 310.39192337764763 95.4280815491344  310.9146263043087 92.72050299063241Q 311.4373292309699 90.01292443213038  311.4501784503459 87.27295456047824L 311.4501784503459 87.27295456047824Q 311.4817856542124 80.53302867181569  310.5251501207355 75.54848772443752Q 309.5785144773011 70.56399367202062  307.83396227206 67.26577633485374Q 306.08945696178006 63.957559107644315  303.7270331104588 62.336462704987Q 301.37460914918006 60.71541319729091  298.58463982731536 60.702329503108786ZM 341.035735646081 21.615067763628023L 341.035735646081 21.615067763628023Q 341.0327366325885 22.155059435710175  341.02162917520906 24.155028591569973Q 341.0105217178296 26.154997747429775  341.0250263521231 28.94512133171488Q 341.0295866779242 31.7251895329338  341.04198089531576 34.895307256832275Q 341.04431972964096 38.075369289223154  341.128045762373 41.00587947542673L 341.128045762373 41.00587947542673Q 341.2052739325381 45.10637161780831  341.41544670817734 50.4776216961774Q 341.6256194838167 55.84887177454651  341.8634592307442 61.64028198750685Q 342.1013545149586 67.4216923546879  342.3888047297743 73.28337917453784Q 342.6762549445901 79.14506599438776  342.9579261474307 84.24670899772408Q 343.2495416587637 89.35840738412658  343.4676007291424 93.30967936183522Q 343.6956041080135 97.27100672261005  343.8242168051098 99.32175262938291L 343.8242168051098 99.32175262938291Q 344.0082189820693 102.20281895955898  344.588990693423 103.86607005884956Q 345.15976255899744 105.52926562085324  346.2043592489947 106.50508207656945Q 347.24890040170516 107.49089837806498  348.83587686712127 108.03972047876383Q 350.42285333253733 108.58854257946264  352.6595976244603 109.18097398692699L 352.6595976244603 109.18097398692699Q 353.4881963919696 109.43557972622193  353.7365819551321 109.72696368599405Q 353.9749676725152 110.01829210847924  353.97280171832625 110.40828609387191L 353.97280171832625 110.40828609387191Q 353.97035807770277 110.84827930816107  353.6285861280259 111.16638610534413Q 353.286814178349 111.48449290252718  352.3568285208742 111.47932793484573L 352.3568285208742 111.47932793484573Q 351.916835306585 111.47688429422224  350.577411345028 111.36944383998502Q 349.22798753769155 111.26194784846089  347.4288483567212 111.10195345012987Q 345.6196537926847 110.95190336029127  343.50024186034227 110.84013099767604Q 341.37083008222055 110.72830309777392  339.3708609263607 110.71719564039445L 339.3708609263607 110.71719564039445Q 337.7608857558936 110.70825413720397  335.95008061053704 110.84819957496504Q 334.1492753109597 110.98820055001299  332.438524160683 111.11870151486373Q 330.7277174731194 111.25920232549379  329.2369073927004 111.40092495643557Q 327.7461528495683 111.53264774159805  326.766167963197 111.5272050874821L 326.766167963197 111.5272050874821Q 326.08617845020467 111.52342855197308  325.4275215236565 111.27976679233467Q 324.7689201343952 111.02610518691698  324.7738074156422 110.14611875833867L 324.7738074156422 110.14611875833867Q 324.7810828002257 108.8361389612505  326.6810534982925 108.84669104576099L 326.6810534982925 108.84669104576099Q 327.9510339122635 108.85374428119697  329.5418424504755 108.71257702312415Q 331.1326509886875 108.57140976505134  332.154801212365 108.18708058292222L 332.154801212365 108.18708058292222Q 332.9863989933668 107.90169465013501  333.4793904500449 107.36442430511084Q 333.9723263694362 106.83715380586597  334.2459876664124 106.17866349117847Q 334.5196489633887 105.52017317649094  334.6235905685515 104.8107394990297Q 334.71753232793486 104.10125028428153  334.7215865498784 103.37126154239272L 334.7215865498784 103.37126154239272Q 334.72647383112536 102.4912751138144  334.6171943781449 100.56063843096693Q 334.5079149251646 98.63000174811945  334.3223021668849 96.03893094554306Q 334.14663371709776 93.45791552603288  333.8940210518556 90.32646429036606Q 333.6413528493265 87.20501290047855  333.36968462640294 83.90345321198984Q 333.0880165577001 80.60183798621425  332.81618172291587 77.33027783506347Q 332.5443468881316 74.05871768391266  332.2706237855929 71.12715228925804Q 331.98690083727485 68.19553135731651  331.7801776416987 65.8043463957523Q 331.57345444612264 63.4131614341881  331.4418982728208 61.89240735371809L 331.4418982728208 61.89240735371809Q 331.2043424806033 59.65105346698268  330.9777862053294 57.229757893506786Q 330.741230084276 54.80840678274399  330.51422951070685 52.46710997550248Q 330.2872289371376 50.125813168260976  329.99917408044155 47.97418020710477Q 329.72111906952483 45.82260278323546  329.4408981044191 44.06101934475882L 329.4408981044191 44.06101934475882Q 329.1503996070996 42.34937959789176  328.4556864448039 41.39550663877556Q 327.7509734367289 40.441578142372435  326.3309953360685 40.433691847633014L 326.3309953360685 40.433691847633014Q 325.211012608787 40.427471671500506  323.71809211146586 40.94918844205566Q 322.22511607685783 41.48090505839009  320.71158497782227 42.11250905794373Q 319.18810957029433 42.73405767443118 317.8451312223757 43.26660735006907Q 316.50215287445724 43.79915702570698 315.72216490367185 43.79482511732899L 315.72216490367185 43.79482511732899Q 315.1821732315898 43.791826103836534 314.76367921560546 43.519497701745756Q 314.35518504540033 43.247224836941896 314.3589615809094 42.56723532394957L 314.3589615809094 42.56723532394957Q 314.36412654859083 41.63724966647475 315.34766582132363 41.00270219071556L 315.34766582132363 41.00270219071556Q 315.78954730336727 40.665151074842875 316.52142431301064 40.32921054029023Q 317.2533013226539 39.993270005737564 318.4566705906706 39.38994388762801Q 319.6500400129079 38.786562232231546  321.415733210615 37.76635267945769Q 323.1813708710351 36.756142972463124  325.68082934614 35.05999812864043L 325.68082934614 35.05999812864043Q 328.33084088080335 33.264687886328204  330.4819153349528 31.276603709864435Q 332.6429896348816 29.288575070687568  334.3434045815198 27.417989865665007Q 336.03381968237875 25.547349123355556  337.192521301041 23.9837601239988Q 338.3511673824163 22.430170970421347  338.9363234052972 21.503406475586594L 338.9363234052972 21.503406475586594Q 339.48036929932283 20.77641674719022  339.772808467546 20.338034114221088Q 340.07524748154844 19.899707018538855  340.4652414669411 19.901872972727855L 340.4652414669411 19.901872972727855Q 340.8552354523338 19.90403892691685  340.9421239762812 20.46453012613967Q 341.038956808721 21.035076708428683  341.035735646081 21.615067763628023ZM 386.0888600363115 0.6783655919523293L 386.0888600363115 0.6783655919523293Q 388.81881688953916 0.6937141917269489  391.3539978775941 1.5579811399581125Q 393.88912264367184 2.4322479301424957  395.8585216186955 4.323350168831827Q 397.8179207517659 6.214396185543948  398.9714292209735 9.15092784916795Q 400.1349375321343 12.087515734769132  400.1116054115978 16.237450145353392L 400.1116054115978 16.237450145353392Q 400.09074705805796 19.947391509996176  399.1437264973185 22.972114977941075Q 398.19676215855617 25.986838603932757  396.5247006692252 28.127471775659398Q 394.8526391798943 30.26810494738604  392.5560974012761 31.42521162313421Q 390.2495557807046 32.5822620769052  387.51959892747686 32.566913477130576L 387.51959892747686 32.566913477130576Q 385.709627533945 32.55673729925803  384.29279840731147 31.988762629116092Q 382.8859691226311 31.42084418095137  381.9113256990497 30.46534944163069Q 380.94668211742146 29.5099109242872  380.4339991928898 28.207007927555033Q 379.93125988833424 26.914160994753264  379.9395245189821 25.44418422763065L 379.9395245189821 25.44418422763065Q 379.9452591606561 24.424200348402717  380.19127111909324 23.355566586861414Q 380.4473391414609 22.276989205344094  381.13283814804475 21.30082778837839Q 381.8282807746046 20.334722435343078  383.02349061091644 19.41142754898044Q 384.2287002891816 18.488188884595004  386.0827752548617 17.76860148779165L 386.0827752548617 17.76860148779165Q 389.71070156268746 16.36897628618021  391.4022005161528 14.328453977940121Q 393.1036993115714 12.287987891677213  393.119891241004 9.40803340915128L 393.119891241004 9.40803340915128Q 393.1254009947692 8.428048897736199  392.7822656076247 7.206100410242087Q 392.44913006243337 5.984208144725171  391.57504727815603 4.929277205644309Q 390.70096449387876 3.874346266563445  389.1450933535125 3.1355871755361013Q 387.58922221314634 2.3968280845087575  385.14926077656185 2.3831099220728333L 385.14926077656185 2.3831099220728333Q 382.1193086647377 2.3660746629823213  379.9404036665158 3.943849364491899Q 377.75155504831787 5.511568002071061  376.2268487553569 8.123037075256756Q 374.70219868437323 10.72450630648923  373.75343524234063 14.059224874983798Q 372.8046155783308 17.403943285431573  372.2950018525817 20.89113325022102Q 371.7953879687858 24.378379436987643  371.59661267324435 27.717314653771943Q 371.4077809976789 31.06630593448665  371.39293839569905 33.70626421013542L 371.39293839569905 33.70626421013542Q 371.3822562200317 35.60623418124629  371.45168522394454 37.486654244268294Q 371.51111438590414 39.36701808531309  371.9927295670094 40.859749413224776Q 372.4743447481147 42.35248074113644  373.48909998346335 43.28820068445948Q 374.5139112827424 44.213977007806484  376.4138812538533 44.224659183473804L 376.4138812538533 44.224659183473804Q 377.9338572307419 44.23320492400766  379.51546269668864 43.95209257976146Q 381.1070680045885 43.67103645749245  382.54884434912174 43.35913747970586Q 383.990620693655 43.047238501919246  385.21223184928596 42.764102166493984Q 386.4338430049169 42.4809658310687  387.26382988703375 42.48563225517601L 387.26382988703375 42.48563225517601Q 388.6338082346242 42.493334666051915  388.62807359295016 43.513318545279844L 388.62807359295016 43.513318545279844Q 388.6241942765236 44.2033076400517  388.0120112602669 44.5898719356181Q 387.3998282440101 44.97643623118451  385.83822246196985 45.257661019385104L 385.83822246196985 45.257661019385104Q 385.097390827774 45.40349822237079  384.19673038825823 45.518436347861694Q 383.29606994874257 45.633374473352596  382.1152452686052 45.776737909341655Q 380.9444766523983 45.910157725354686  379.483094177799 46.151945365514386Q 378.01176808322367 46.38367694174367  376.1093243451162 46.81298781201781L 376.1093243451162 46.81298781201781Q 374.8377139797192 47.09584303755711  374.0750835583466 47.561562739091286Q 373.3225092009044 48.01733882064945  372.9191984261212 48.60508061680128L 372.9191984261212 48.60508061680128Q 372.4348206981456 49.382369634246636  372.2983572253762 50.53162057316281Q 372.1719498165372 51.67092789210297  372.1639662957753 53.09090544945951L 372.1639662957753 53.09090544945951Q 372.16177363866467 53.480899285634905  372.22749199208255 56.0213089175691Q 372.28321050354714 58.5616623275261  372.3812258139019 62.47227519495955Q 372.4792973462339 66.37288822043979  372.60157754077426 71.30365363303277Q 372.7238577353147 76.23441904562573  372.8647320643316 81.41529295100348Q 373.0056063933485 86.59616685638122  373.147211608069 91.64704281636715Q 373.2888168227895 96.69791877635312  373.4154823315512 100.8486965165953Q 373.5321479983597 104.99941803486031  373.63578550643405 107.91004670697225Q 373.74942285646176 110.8207316010614  373.8345301220246 111.69122384878587L 373.8345301220246 111.69122384878587Q 374.06805313153643 114.6225830905078  374.9573005096812 116.53761288151955Q 375.85660395175654 118.44269905255528  378.09268923285015 119.14528187021914L 378.09268923285015 119.14528187021914Q 378.8713275777482 119.38966339131761  379.530642482934 119.51337214525115Q 380.18995738811986 119.63708089918468  380.8994963909806 119.72107139519134Q 381.60909161581844 119.79506204924482  382.40851675230374 119.89955822695266Q 383.2179417307422 120.00411062663774  384.2871377120554 120.15012416554276L 384.2871377120554 120.15012416554276Q 385.5562743104558 120.30726198594493  386.28418255988424 120.68136034254923Q 387.022146873243 121.0455150791775  387.0180426689077 121.7755035417622L 387.0180426689077 121.7755035417622Q 387.01253291514246 122.75548805317727  385.87996456347815 123.20912769960198Q 384.75733983178975 123.67282340995709  382.80737065091284 123.66186012440379L 382.80737065091284 123.66186012440379Q 381.67738851019953 123.6555070409806  379.75769996506824 123.59471321159282Q 377.8280115779838 123.53386316022784  375.6780455580425 123.5217754351306L 375.6780455580425 123.5217754351306Q 371.08783699163087 123.54596875736353  367.5631137560374 124.37616518741366Q 364.04833414042 125.21641768139422  361.3826415391908 126.22144651468793Q 358.71689271598433 127.23647518993484  356.78214435095214 128.07561091435917Q 354.8473397639427 128.9247464807368  353.4773614163523 128.91704406986088L 353.4773614163523 128.91704406986088Q 352.3573791175922 128.91074720841488  352.36260776147145 127.98076190676586L 352.36260776147145 127.98076190676586Q 352.36592485812605 127.39077123152619  352.92822110857117 126.98392614216736Q 353.4905735809935 126.56708121085532  354.5632553248929 126.09310454866103L 354.5632553248929 126.09310454866103Q 356.7681680885935 125.22548729176131  358.2436546094813 124.2537674109941Q 359.709141288416 123.2819913082497  360.64649166907776 121.97724065625779Q 361.58389827171663 120.66249016231268  362.0044615235114 118.7848249761733Q 362.4350246172594 116.90721601201112  362.5504278585433 114.16782153660216L 362.5504278585433 114.16782153660216Q 362.65330126890024 111.87836372711067  362.6722480752154 108.50841698887717Q 362.69119488153063 105.1384702506437  362.7142458921811 101.03853504982553L 362.7142458921811 101.03853504982553Q 362.73701579294567 96.98859905877343  362.7425971086636 92.43855852610618Q 362.73812236045114 87.89846161341495  362.74392856407786 83.30842171293486Q 362.7497347677046 78.71838181245474  362.7249792256997 74.22817166557519Q 362.70022368369484 69.73796151869564  362.6724883768985 65.77774299533648Q 362.644696848125 61.82752431393055  362.5926889871553 58.62718133506136Q 362.5306812842325 55.42678213421497  362.49248868967766 53.32653421415382L 362.49248868967766 53.32653421415382Q 362.45934840308274 52.1063286079528  362.2637368782398 51.32521649605809Q 362.07812519535 50.544160606140586  361.6406059164052 50.101693793202486Q 361.2030866374604 49.65922698026437  360.44405442262837 49.484956796792794Q 359.6850222077964 49.31068661332121  358.51504069927023 49.30410864198923L 358.51504069927023 49.30410864198923Q 357.4950568200423 49.2983740003152  356.22451467221197 49.391232228743405Q 354.9540287463589 49.47409061521839  353.70331761650345 49.59706081346064Q 352.4626625505784 49.71008739172686 351.41211692571886 49.804182503653394Q 350.3616275228366 49.8882777736267 349.7216376378308 49.88467956708613L 349.7216376378308 49.88467956708613Q 348.89165075571395 49.880013142978825 348.35300861769304 49.636980949333065Q 347.8243663216254 49.394004977664494 347.827964528166 48.75401509265873L 347.827964528166 48.75401509265873Q 347.8317876226153 48.074025839840104 348.41329644928607 47.807290981780696Q 349.0048051179101 47.54061234569846 350.1256307463281 47.39691157784625L 350.1256307463281 47.39691157784625Q 351.9369514673127 47.16709154884163  353.6678798988313 47.00682063769196Q 355.408808172303 46.846605948519475  357.80124416611807 46.42004995512795L 357.80124416611807 46.42004995512795Q 359.85312331375184 46.0915808340439  361.0290081298836 45.0481754002883Q 362.20489294601543 44.0047699665327  362.9032591153895 42.5186728319302Q 363.59162544281037 41.032519475350526  363.89190948128055 39.20417883525086Q 364.20219336170396 37.375894417128386  364.5034893957637 35.36755662187086L 364.5034893957637 35.36755662187086Q 365.1081616770394 30.980886879086835  365.96215534341906 26.715620789171307Q 366.81620523177605 22.440354857302562  368.0879996030801 18.567443926604657Q 369.3597939743842 14.694532995906766  371.00826524325583 11.413749175582018Q 372.66679257605796 8.12302173528126  374.870195016362 5.745372121468872Q 377.08365352059644 3.357778887680474  379.85125608858255 2.013317647749435Q 382.6189148785458 0.6588565658651748  386.0888600363115 0.6783655919523293Z" data-textpath="werewolf" data-text-anchor="middle" data-font-size="100" data-letterspacing="0" data-side="left" data-offset="0.5" data-dx="0" data-dy="0" data-href="" data-font="Henny Penny" data-font-src="/Content/clientfonts/hennypenny.woff" data-font-scale="contain" transform="translate(0,0)" data-x="0" data-y="0" data-xmlspace="preserve" fill="url('#linearGradientSjzt8cqfa8a0')"/><rect x="0" y="0" width="0" height="0"/></g><g transform="matrix(0.4763,0,0,0.4763,207,81)" style="pointer-events: fill; cursor: move; opacity: 1;" class="svg-text svg-visible"><path fill="none" style="" d="M-188.85,105.2 C-20,104.2 20,104.2 188.85,105.2"/><path d="M-135.85-32.8L-135.85-32.8Q-148.05-11.1 -148.05-4.8L-148.05-4.8Q-148.05-2 -146.14999999999998-2L-146.14999999999998-2Q-143.75-2 -140.64999999999998-5.6L-140.64999999999998-5.6Q-135.95-11.3 -132.45-19.3L-132.45-19.3Q-131.85-20.7 -131.25-20.4Q-130.64999999999998-20.1 -130.64999999999998-19.6Q-130.64999999999998-19.1 -131.64999999999998-17.1Q-132.64999999999998-15.1 -133.25-13.9Q-133.85-12.7 -135.89999999999998-9.3Q-137.95-5.9 -139.39999999999998-4.3Q-140.85-2.7 -143.1-1.15Q-145.35 0.4 -148.2 0.4Q-151.05 0.4 -153.05-2.4L-153.05-2.4Q-153.95-3.7 -153.95-5.95Q-153.95-8.2 -152.95-11.4Q-151.95-14.6 -147.45-21.8L-147.45-21.8Q-146.35-23.6 -146.35-24.65Q-146.35-25.7 -148-25.7Q-149.64999999999998-25.7 -153.95-21.7Q-158.25-17.7 -163-10.9Q-167.75-4.1 -168.65 0L-168.65 0Q-170.35 0 -171.15-1.4Q-171.95-2.8 -171.95-3.8L-171.95-3.8Q-171.95-7.9 -166.45-19.4L-166.45-19.4Q-164.65-23.2 -164.54999999999998-24.55Q-164.45-25.9 -164.9-25.95Q-165.35-26 -166.15-25.6L-166.15-25.6Q-167.95-24.7 -171.65-21.2L-171.65-21.2Q-178.65-14.8 -185.45-1.7L-185.45-1.7Q-185.95-0.6 -186.7-0.35Q-187.45-0.1-189.65 0Q-191.85 0.1-192.54999999999998 0.5L-192.54999999999998 0.5Q-190.75-3 -186.25-12.6L-186.25-12.6Q-178.15-29.8 -175.45-32.4L-175.45-32.4Q-174.25-33.6 -172.15-33.6L-172.15-33.6Q-171.75-33.6 -170.1-33.3Q-168.45-33 -167.65-33.2L-167.65-33.2Q-171.35-31.2 -179.75-14.4L-179.75-14.4Q-175.04999999999998-20.2 -173-22Q-170.95-23.8 -169.95-24.7Q-168.95-25.6 -168.4-26.1Q-167.85-26.6 -166.79999999999998-27.55Q-165.75-28.5 -165.2-28.95Q-164.65-29.4 -163.65-30.2Q-162.65-31 -162.1-31.25Q-161.54999999999998-31.5 -160.6-32.1Q-159.65-32.7 -159.2-32.7Q-158.75-32.7 -157.95-32.95Q-157.15-33.2 -156.85-32.8L-156.85-32.8Q-154.85-32 -154.85-30.3L-154.85-30.3Q-154.85-28.8 -158.25-22.6Q-161.65-16.4 -162.65-14.4L-162.65-14.4Q-158.25-19.9 -154.25-23.45Q-150.25-27 -144.8-30Q-139.35-33 -136.85-33L-136.85-33Q-136.25-33 -135.85-32.8ZM-102.04999999999998-27.1Q-103.84999999999998-25.3 -107.14999999999998-18.95Q-110.44999999999997-12.6 -111.09999999999998-9.45Q-111.74999999999997-6.3 -111.74999999999997-4.35Q-111.74999999999997-2.4 -110.24999999999997-2.4L-110.24999999999997-2.4Q-108.34999999999998-2.4 -105.54999999999998-5.9L-105.54999999999998-5.9Q-101.44999999999997-11 -97.44999999999997-19.2L-97.44999999999997-19.2Q-97.04999999999998-20.1 -96.54999999999998-20.2L-96.54999999999998-20.2Q-95.74999999999997-20.5 -95.74999999999997-19.6L-95.74999999999997-19.6Q-95.74999999999997-19.1 -96.04999999999998-18.4L-96.04999999999998-18.4Q-105.24999999999997 0.2 -111.54999999999998 0.2L-111.54999999999998 0.2Q-114.44999999999997 0.2 -116.24999999999997-2.6L-116.24999999999997-2.6Q-117.14999999999998-4.1 -117.14999999999998-6.6Q-117.14999999999998-9.1 -116.14999999999998-12.7L-116.14999999999998-12.7Q-124.14999999999998 0.2 -129.95 0.2L-129.95 0.2Q-131.54999999999998 0.2 -132.84999999999997-0.8L-132.84999999999997-0.8Q-135.84999999999997-2.9 -135.84999999999997-8L-135.84999999999997-8Q-135.84999999999997-17.8 -127.34999999999998-27.9L-127.34999999999998-27.9Q-122.54999999999998-33.5 -115.54999999999998-35.2L-115.54999999999998-35.2Q-113.64999999999998-35.7 -111.94999999999997-35.7L-111.94999999999997-35.7Q-107.34999999999998-35.7 -104.14999999999998-32.5L-104.14999999999998-32.5Q-103.14999999999998-31.4 -103.54999999999998-30.4Q-103.94999999999997-29.4 -105.24999999999997-29.6L-105.24999999999997-29.6Q-106.34999999999998-33.2 -110.04999999999998-33.2L-110.04999999999998-33.2Q-114.34999999999998-33.2 -120.64999999999998-26.4L-120.64999999999998-26.4Q-124.24999999999997-22.4 -127.34999999999998-17L-127.34999999999998-17Q-131.24999999999997-10.5 -131.24999999999997-6.6Q-131.24999999999997-2.7 -128.74999999999997-2.7L-128.74999999999997-2.7Q-122.74999999999997-2.7 -113.04999999999998-21.1L-113.04999999999998-21.1Q-111.14999999999998-24.8 -109.84999999999998-26.15Q-108.54999999999998-27.5 -106.54999999999998-27.5L-106.54999999999998-27.5Q-106.14999999999998-27.5 -104.49999999999997-27.2Q-102.84999999999998-26.9 -102.04999999999998-27.1L-102.04999999999998-27.1ZM-63.04999999999998-1.9L-63.04999999999998-1.9Q-61.749999999999986-1.7 -61.249999999999986-1.7L-61.249999999999986-1.7Q-57.249999999999986-1.7 -53.34999999999999-6.4L-53.34999999999999-6.4Q-51.249999999999986-9 -45.84999999999999-19.5L-45.84999999999999-19.5Q-45.649999999999984-20 -45.149999999999984-20L-45.149999999999984-20Q-44.249999999999986-20.1 -44.249999999999986-19.3L-44.249999999999986-19.3Q-44.249999999999986-19.1 -44.69999999999999-18.15Q-45.149999999999984-17.2 -45.54999999999998-16.25Q-45.94999999999999-15.3 -46.84999999999999-13.5Q-47.749999999999986-11.7 -48.399999999999984-10.6Q-49.04999999999998-9.5 -50.04999999999998-7.9Q-51.04999999999998-6.3 -52.04999999999998-5.4L-52.04999999999998-5.4L-54.149999999999984-3.2Q-55.84999999999999-1.5 -58.149999999999984-0.8L-58.149999999999984-0.8Q-61.84999999999999 0.4 -65.34999999999998-0.6L-65.34999999999998-0.6Q-67.64999999999999 0.4 -69.44999999999999 0.4L-69.44999999999999 0.4Q-76.54999999999998 0.4-78.04999999999998-5.2L-78.04999999999998-5.2Q-78.34999999999998-6.5-78.34999999999998-8.35Q-78.34999999999998-10.2 -77.09999999999998-11.9Q-75.84999999999998-13.6 -74.44999999999999-13.7L-74.44999999999999-13.7Q-69.34999999999998-23.4 -65.74999999999999-31.2L-65.74999999999999-31.2Q-61.749999999999986-39.7 -56.44999999999999-39.7L-56.44999999999999-39.7Q-55.04999999999998-39.7 -53.69999999999999-39.05Q-52.34999999999999-38.4 -52.69999999999999-37.6Q-53.04999999999998-36.8 -54.149999999999984-37.3Q-55.249999999999986-37.8 -56.04999999999998-37.8Q-56.84999999999999-37.8 -57.44999999999999-37.5L-57.44999999999999-37.5Q-60.84999999999999-35.9 -60.84999999999999-30.6L-60.84999999999999-30.6Q-60.84999999999999-27.8 -60.04999999999998-26Q-59.249999999999986-24.2 -58.249999999999986-22.1L-58.249999999999986-22.1Q-55.94999999999999-16.9 -55.94999999999999-13.6L-55.94999999999999-13.6Q-55.94999999999999-10.3 -58.04999999999998-7.1Q-60.149999999999984-3.9 -63.04999999999998-1.9ZM-66.44999999999999-2.6L-66.44999999999999-2.6Q-62.04999999999998-6 -62.04999999999998-13.6L-62.04999999999998-13.6Q-62.04999999999998-16.7 -62.749999999999986-22.1Q-63.44999999999999-27.5 -63.44999999999999-29.4Q-63.44999999999999-31.3 -63.34999999999999-32L-63.34999999999999-32Q-70.94999999999999-16.8 -72.74999999999999-13.5L-72.74999999999999-13.5Q-70.64999999999999-13.5 -70.64999999999999-10.5L-70.64999999999999-10.5Q-70.64999999999999-4.6 -66.44999999999999-2.6ZM-73.94999999999999-5.3L-73.94999999999999-5.3Q-73.94999999999999-4.7 -73.84999999999998-4L-73.84999999999998-4Q-73.04999999999998-1.3 -70.14999999999999-1.3L-70.14999999999999-1.3Q-68.94999999999999-1.3 -68.14999999999999-1.7L-68.14999999999999-1.7Q-71.84999999999998-4 -72.14999999999999-9.2L-72.14999999999999-9.2Q-73.94999999999999-7.4 -73.94999999999999-5.3ZM-27.75-35L-27.75-35Q-20.45-35 -20.45-25.8L-20.45-25.8Q-20.45-21.6 -22.65-16.8L-22.65-16.8Q-25.45-10.3 -31.049999999999997-5L-31.049999999999997-5Q-29.75-2.5 -26.349999999999998-2.5L-26.349999999999998-2.5Q-23.65-2.5 -21.25-5.2L-21.25-5.2Q-18.25-8.3 -16.949999999999996-10.65Q-15.649999999999999-13 -15.049999999999997-14.1Q-14.449999999999996-15.2 -13.5-17.25Q-12.549999999999997-19.3 -12.350000000000001-19.75Q-12.149999999999999-20.2 -11.600000000000001-20.25Q-11.049999999999997-20.3 -10.799999999999997-19.9Q-10.549999999999997-19.5 -10.850000000000001-18.8L-10.850000000000001-18.8L-11.449999999999996-17.4Q-12.049999999999997-16 -12.350000000000001-15.4Q-12.649999999999999-14.8 -13.399999999999999-13.25Q-14.149999999999999-11.7 -14.699999999999996-10.8Q-15.25-9.9 -16.199999999999996-8.4Q-17.15-6.9 -17.9-6Q-18.65-5.1 -19.75-4Q-20.849999999999998-2.9 -21.849999999999998-2.3L-21.849999999999998-2.3Q-24.349999999999998-0.8 -26.549999999999997-0.8L-26.549999999999997-0.8Q-30.65-0.8 -32.95-3.4L-32.95-3.4Q-37.55 0 -41.45 0L-41.45 0Q-48.75 0 -48.75-9.2L-48.75-9.2Q-48.75-13.4 -46.55-18.2L-46.55-18.2Q-43.55-25.2 -38.099999999999994-30.1Q-32.65-35 -27.75-35ZM-26.65-31.9L-26.65-31.9Q-29.349999999999998-31.9 -33.05-28.3Q-36.75-24.7 -39.65-18.5L-39.65-18.5Q-43.15-11.3 -43.15-6.7Q-43.15-2.1 -39.65-2.1L-39.65-2.1Q-37.15-2.1 -34.05-4.8L-34.05-4.8Q-35.65-7.1 -35.65-9.7L-35.65-9.7Q-35.45-14 -32.15-14L-32.15-14Q-30.849999999999998-14 -30-13.1Q-29.15-12.2 -29.15-11.45Q-29.15-10.7 -29.349999999999998-9.9L-29.349999999999998-9.9Q-27.65-12.4 -25.45-17L-25.45-17Q-22.95-22.1 -22.95-27Q-22.95-31.9 -26.65-31.9ZM-26.049999999999997-41.8L-26.049999999999997-41.8Q-26.15-41.8 -26.4-41.95Q-26.65-42.1 -26.65-42.45Q-26.65-42.8 -26.45-43.1Q-26.25-43.4 -23.599999999999998-45.4Q-20.95-47.4 -17.85-49.55Q-14.75-51.7 -13.350000000000001-52.75Q-11.949999999999996-53.8 -10.600000000000001-53.8Q-9.25-53.8 -8.199999999999996-53.3Q-7.149999999999999-52.8 -7.149999999999999-52.05Q-7.149999999999999-51.3 -7.449999999999996-50.7L-7.449999999999996-50.7Q-7.949999999999996-49.5 -16.449999999999996-45.65Q-24.95-41.8 -26.049999999999997-41.8ZM 1.25-38.9Q-0.14999999999999858-37.7 -1.8499999999999979-37.7Q-3.549999999999999-37.7 -4.549999999999999-38.9Q-5.549999999999999-40.1 -5.349999999999998-41.8L-5.349999999999998-41.8Q-5.049999999999999-43.5 -3.6499999999999986-44.7Q-2.2499999999999982-45.9 -0.5499999999999972-45.9Q 1.1500000000000021-45.9  2.200000000000003-44.7Q 3.25-43.5  2.950000000000003-41.8Q 2.650000000000002-40.1  1.25-38.9ZM-8.549999999999999-2.2L-8.549999999999999-2.2Q-6.649999999999999-2.2 -4.549999999999999-4.1L-4.549999999999999-4.1Q-0.8499999999999979-7.8  4.850000000000001-19.2L 4.850000000000001-19.2Q 5.550000000000001-20.7  6.25-20.1L 6.25-20.1Q 6.450000000000003-19.9  6.450000000000003-19.45Q 6.450000000000003-19  5.650000000000002-17.25Q 4.850000000000001-15.5  4.200000000000003-14.1Q 3.5500000000000007-12.7  1.7000000000000028-9.55Q-0.14999999999999858-6.4 -1.6499999999999986-4.7L-1.6499999999999986-4.7Q-5.749999999999998 0 -9.399999999999999 0Q-13.049999999999999 0 -14.649999999999999-2.2Q-16.25-4.4 -16.25-7.1Q-16.25-9.8 -14.95-13L-14.95-13L-8.549999999999999-29.3Q-8.349999999999998-29.9 -8.349999999999998-30.9Q-8.349999999999998-31.9 -9.549999999999999-33.5L-9.549999999999999-33.5L-4.049999999999999-33.6Q-1.75-33.6 -1.3499999999999979-32.75Q-0.9499999999999993-31.9 -1.9499999999999993-30.1L-1.9499999999999993-30.1L-9.95-11.4Q-11.649999999999999-7.7 -11.649999999999999-5.1L-11.649999999999999-5.1Q-11.649999999999999-2.2 -8.549999999999999-2.2ZM 49.050000000000004-35L 49.050000000000004-35Q 56.35000000000001-35  56.35000000000001-25.8L 56.35000000000001-25.8Q 56.35000000000001-21.6  54.150000000000006-16.8L 54.150000000000006-16.8Q 51.35000000000001-10.3  45.75000000000001-5L 45.75000000000001-5Q 47.050000000000004-2.5  50.45-2.5L 50.45-2.5Q 53.150000000000006-2.5  55.550000000000004-5.2L 55.550000000000004-5.2Q 58.550000000000004-8.3  59.85000000000001-10.65Q 61.150000000000006-13  61.75000000000001-14.1Q 62.35000000000001-15.2  63.300000000000004-17.25Q 64.25-19.3  64.45-19.75Q 64.65-20.2  65.15-20.2L 65.15-20.2Q 66.15-20.3  66.15-19.5L 66.15-19.5Q 66.15-19.2  65.95-18.8L 65.95-18.8L 65.35000000000001-17.4Q 64.75-16  64.45-15.4Q 64.15-14.8  63.400000000000006-13.25Q 62.650000000000006-11.7  62.10000000000001-10.8Q 61.550000000000004-9.9  60.60000000000001-8.4Q 59.650000000000006-6.9  58.900000000000006-6Q 58.150000000000006-5.1  57.050000000000004-4Q 55.95-2.9  54.95-2.3L 54.95-2.3Q 52.45-0.8  50.25000000000001-0.8L 50.25000000000001-0.8Q 46.150000000000006-0.8  43.85000000000001-3.4L 43.85000000000001-3.4Q 39.25000000000001 0  35.35000000000001 0L 35.35000000000001 0Q 28.050000000000004 0  28.050000000000004-9.2L 28.050000000000004-9.2Q 28.050000000000004-13.4  30.250000000000007-18.2L 30.250000000000007-18.2Q 33.25000000000001-25.2  38.7-30.1Q 44.150000000000006-35  49.050000000000004-35ZM 50.150000000000006-31.9L 50.150000000000006-31.9Q 47.45-31.9  43.75000000000001-28.3Q 40.050000000000004-24.7  37.150000000000006-18.5L 37.150000000000006-18.5Q 33.650000000000006-11.3  33.650000000000006-6.7Q 33.650000000000006-2.1  37.150000000000006-2.1L 37.150000000000006-2.1Q 39.650000000000006-2.1  42.75000000000001-4.8L 42.75000000000001-4.8Q 41.150000000000006-7.1  41.150000000000006-9.7L 41.150000000000006-9.7Q 41.35000000000001-14  44.650000000000006-14L 44.650000000000006-14Q 45.95-14  46.800000000000004-13.1Q 47.650000000000006-12.2  47.650000000000006-11.45Q 47.650000000000006-10.7  47.45-9.9L 47.45-9.9Q 49.150000000000006-12.4  51.35000000000001-17L 51.35000000000001-17Q 53.85000000000001-22.1  53.85000000000001-27Q 53.85000000000001-31.9  50.150000000000006-31.9ZM 94.55000000000001-32.8L 94.55000000000001-32.8Q 82.25-11.2  82.25-4.6L 82.25-4.6Q 82.25-2  84.15-2L 84.15-2Q 89.25-2  97.85000000000001-19.3L 97.85000000000001-19.3Q 98.45-20.7  99.05000000000001-20.4Q 99.65-20.1  99.65-19.6Q 99.65-19.1  99.25-18.4L 99.25-18.4Q 93.95-7.7  90.30000000000001-3.65Q 86.65 0.4  83 0.4Q 79.35000000000001 0.4  77.45-2.4L 77.45-2.4Q 76.45-3.7  76.45-5.95Q 76.45-8.2  77.45-11.4Q 78.45-14.6  82.95-21.8L 82.95-21.8Q 84.05000000000001-23.6  84.05000000000001-24.65Q 84.05000000000001-25.7  82.35000000000001-25.7Q 80.65-25.7  75.85000000000001-21.2L 75.85000000000001-21.2Q 68.65-14.6  61.95-1.4L 61.95-1.4Q 61.35000000000001-0.4  60.60000000000001-0.15Q 59.85000000000001 0.1 57.650000000000006 0.2Q 55.45 0.3 54.75000000000001 0.7L 54.75000000000001 0.7Q 56.35000000000001-2.5  61.050000000000004-12.4L 61.050000000000004-12.4Q 69.45-29.9  72.05000000000001-32.4L 72.05000000000001-32.4Q 73.25-33.6  75.35000000000001-33.6L 75.35000000000001-33.6Q 75.75-33.6  77.4-33.3Q 79.05000000000001-33  79.85000000000001-33.2L 79.85000000000001-33.2Q 76.15-31.2  67.75-14.4L 67.75-14.4Q 72.45-20.2  76.30000000000001-23.65Q 80.15-27.1  85.55000000000001-30.05Q 90.95-33  93.45-33L 93.45-33Q 94.05000000000001-33  94.55000000000001-32.8ZM 103.35000000000001-19.3Q 103.25-18.9  102.45-16.55Q 101.65-14.2  101.10000000000001-12.05Q 100.55000000000001-9.9  100.55000000000001-7.75Q 100.55000000000001-5.6  101.55000000000001-3.75Q 102.55000000000001-1.9  104.75-1.9L 104.75-1.9Q 108.35000000000001-1.9  111.75-6.75Q 115.15-11.6  118.95-19.1L 118.95-19.1Q 119.75-20.5  120.45-20.2L 120.45-20.2Q 120.95-19.8  120.65-19.15Q 120.35000000000001-18.5  119.4-16.35Q 118.45-14.2  118-13.35Q 117.55000000000001-12.5  116.4-10.35Q 115.25-8.2  114.4-7.15Q 113.55000000000001-6.1  112.10000000000001-4.45Q 110.65-2.8  109.35000000000001-2L 109.35000000000001-2Q 105.85000000000001 0.2  102.75 0.2Q 99.65 0.2  97.95-1.15Q 96.25-2.5  95.9-4.05Q 95.55000000000001-5.6  95.55000000000001-6.8Q 95.55000000000001-8  95.65-9.9L 95.65-9.9Q 95.95-13.1  96.9-16.1Q 97.85000000000001-19.1  97.95-19.5L 97.95-19.5Q 100.25-27.8  104.5-37.6Q 108.75-47.4  111.7-52.35Q 114.65-57.3  116.35000000000001-59.1L 116.35000000000001-59.1Q 119.75-62.7  123.05000000000001-62.7L 123.05000000000001-62.7Q 125.35000000000001-62.7  126.15-59.4L 126.15-59.4Q 126.25-58.8  126.25-57.9L 126.25-57.9Q 126.25-54.5  123.85000000000001-49.3L 123.85000000000001-49.3Q 115.25-30.2  103.35000000000001-19.3L 103.35000000000001-19.3ZM 104.15-22.5Q 109.25-27.7  114.25-35.6Q 119.25-43.5  121.60000000000001-49.05Q 123.95-54.6  123.95-56.6Q 123.95-58.6  123.25-58.6L 123.25-58.6Q 122.25-58.6  119.45-54.65Q 116.65-50.7  111.9-40.45Q 107.15-30.2  104.15-22.5L 104.15-22.5ZM 132.75-38.9Q 131.35000000000002-37.7  129.65-37.7Q 127.95-37.7  126.95-38.9Q 125.95-40.1  126.15-41.8L 126.15-41.8Q 126.45-43.5  127.85000000000001-44.7Q 129.25-45.9  130.95000000000002-45.9Q 132.65-45.9  133.70000000000002-44.7Q 134.75-43.5  134.45000000000002-41.8Q 134.15-40.1  132.75-38.9ZM 122.95-2.2L 122.95-2.2Q 124.85000000000001-2.2  126.95-4.1L 126.95-4.1Q 130.65-7.8  136.35000000000002-19.2L 136.35000000000002-19.2Q 137.05-20.7  137.75-20.1L 137.75-20.1Q 137.95000000000002-19.9  137.95000000000002-19.45Q 137.95000000000002-19  137.15-17.25Q 136.35000000000002-15.5  135.70000000000002-14.1Q 135.05-12.7  133.20000000000002-9.55Q 131.35000000000002-6.4  129.85000000000002-4.7L 129.85000000000002-4.7Q 125.75000000000001 0  122.10000000000001 0Q 118.45 0  116.85000000000001-2.2Q 115.25000000000001-4.4  115.25000000000001-7.1Q 115.25000000000001-9.8  116.55000000000001-13L 116.55000000000001-13L 122.95-29.3Q 123.15-29.9  123.15-30.9Q 123.15-31.9  121.95-33.5L 121.95-33.5L 127.45-33.6Q 129.75-33.6  130.15-32.75Q 130.55-31.9  129.55-30.1L 129.55-30.1L 121.55000000000001-11.4Q 119.85000000000001-7.7  119.85000000000001-5.1L 119.85000000000001-5.1Q 119.85000000000001-2.2  122.95-2.2ZM 166.65-32.8L 166.65-32.8Q 154.35-11.2  154.35-4.6L 154.35-4.6Q 154.35-2  156.25-2L 156.25-2Q 161.35-2  169.95-19.3L 169.95-19.3Q 170.55-20.7  171.15-20.4Q 171.75-20.1  171.75-19.6Q 171.75-19.1  171.35-18.4L 171.35-18.4Q 166.05-7.7  162.4-3.65Q 158.75 0.4  155.1 0.4Q 151.45 0.4  149.55-2.4L 149.55-2.4Q 148.55-3.7  148.55-5.95Q 148.55-8.2  149.55-11.4Q 150.55-14.6  155.05-21.8L 155.05-21.8Q 156.15-23.6  156.15-24.65Q 156.15-25.7  154.45-25.7Q 152.75-25.7  147.95-21.2L 147.95-21.2Q 140.75-14.6  134.05-1.4L 134.05-1.4Q 133.45-0.4  132.7-0.15Q 131.95 0.1 129.75 0.2Q 127.55 0.3 126.85 0.7L 126.85 0.7Q 128.45-2.5  133.15-12.4L 133.15-12.4Q 141.55-29.9  144.15-32.4L 144.15-32.4Q 145.35-33.6  147.45-33.6L 147.45-33.6Q 147.85-33.6  149.5-33.3Q 151.15-33  151.95-33.2L 151.95-33.2Q 148.25-31.2  139.85-14.4L 139.85-14.4Q 144.55-20.2  148.4-23.65Q 152.25-27.1  157.65-30.05Q 163.05-33  165.55-33L 165.55-33Q 166.15-33  166.65-32.8ZM 174.35-15.4L 174.35-15.4Q 172.95-12  172.95-7.8L 172.95-7.8Q 172.95-5  174.2-3.35Q 175.45-1.7  177.75-1.7L 177.75-1.7Q 186.85-1.7  194.25-18.8L 194.25-18.8Q 194.95-20.4  195.95-20.2L 195.95-20.2Q 196.35-20.1  196.35-19.7Q 196.35-19.3  194.1-14.45Q 191.85-9.6  189.55-6.6L 189.55-6.6Q 184.45 0.4  176.95 0.4L 176.95 0.4Q 172.95 0.4  170.15-2.2Q 167.35-4.8  167.35-9.3Q 167.35-13.8  169.5-18.85Q 171.65-23.9  175.35-28.25Q 179.05-32.6  183.85-34.6L 183.85-34.6Q 186.15-35.6  188.25-35.6Q 190.35-35.6  192.15-34.4L 192.15-34.4Q 193.85-33  193.85-31.3L 193.85-31.3Q 193.85-25.3  186.65-19.8L 186.65-19.8Q 184.45-18.1  180.45-16.75Q 176.45-15.4  174.35-15.4ZM 191.15-31.4L 191.15-31.4Q 191.15-33.4  189.55-33.4L 189.55-33.4Q 186.75-33.4  181.05-26.5L 181.05-26.5Q 177.65-22.3  175.05-17.1L 175.05-17.1Q 176.75-17.1  180-18.3Q 183.25-19.5  185.65-21.5L 185.65-21.5Q 191.15-26.2  191.15-31.4Z" data-textpath="ma si online" data-text-anchor="middle" data-font-size="100" data-letterspacing="0" data-side="left" data-offset="0" data-dx="0" data-dy="93.9" data-href="" data-font="Great Vibes" data-font-src="/Content/clientfonts/greatvibes.woff" data-font-scale="contain" transform="translate(0,93.9)" data-xmlspace="preserve" fill="url('#linearGradientSjzt8cqfa8a3')"/><rect x="0" y="0" width="0" height="0"/></g></svg>